<svg baseProfile="tiny" xmlns="http://www.w3.org/2000/svg" viewBox="0 0 650 650"><path fill="#4891CE" d="M610.1 395.5l2.4-.4.6-1.7L639 292.7l.6-1.6-2.4.2-7 .8-26.4 3.6-.9 1.1-44.2 72.6-7-65.7-.2-1c-13 1.7-26.1 3-39.1 4.9l-5.2 8.4-.8 1.2 1.1.6s4 2 3.8 5.8l-29.2 98.8-.6 1.9 2.4-.6 28.1-6.4 2.4-.6.6-1.8 15.9-54 4.2 50.2.2 1 1.7-.3 17.6-3.9 1.7-.3.9-1.2 34-55.8-14.5 50.5-.6 1.7 2.4-.6 31.6-6.7zM96.8 523.1c.3-.1 33.2-5.8 42.2-44.7l7.6-32.3 1.5-6.4 17-69.2c8.1-33.7-25.4-28.3-25.7-28.2-31.4 4.8-64.6 10.2-95.6 16.2l-6.1 13.2 1.1.7s3.9 2.7 3.8 8l-41 163.4-.6 2.5 2.4-.7 89.8-21.4 3.6-1.1zm-47.5-16.3l34-131.1 41.8-6.8h.2s1.7-.3 2.9.8c1.3 1.3 1.6 4.3.6 8.4l-25.5 101.4c-1 4.4-3.5 11.5-8.9 15.8-2 1.6-3.6 2.2-3.6 2.2l-41.5 9.3zm210.2-27.6l-.8-2.7-7.9-44.1c23.5-17.6 26.4-29.1 30.3-44.7l.1-.4 3.9-15c8-31-25.4-25.8-25.7-25.8-25.5 4.3-50.9 8.6-76.2 13.2l-.9 1.8-4.4 9-.8 1.6 1.1.7s3.7 2.4 3.8 7L156.4 487c-2.4 5.3-7.6 9.7-7.6 9.8l-1.6 1.3v1.5l.2 8.2v1.7l1.8-.4 4.4-1.2 25.8-7 5.8-1.6 2.4-.7 2.9-12.1 2.1-8.9 30.3-23.8 4.7 32.9.3 1.1 1.5-.3 26.1-6.8 4-1.5zm-21-63.4l-37.7 28.6 16.6-68.2 28-5.2c1-.2 9.4-1.5 6.3 11l-5.4 21.1c-1.8 7.1-6.4 11.5-7.8 12.7zm207.3-43.1c8.1-1.3 16.1-2.8 24.1-4.2l-4.3-33.8-20.6 28.4c.2 3.3.5 6.4.8 9.6zM363 453l28.3-7 1.8-.4.9-1.6 9-17 40.9-9.2 1.8 14 .1 1.2 1.7-.4 26.5-6.2 3.3-.8-.3-2.2-7-54.3c-7.4 6.6-15 13-22.9 19.2.7 8.5 1.1 17.2 1.6 25.7-5.3-5.3-10.6-10.2-16.2-15.2-7.3 4.8-14.7 9.3-22.6 13 4.2-7.1 8.3-14.1 12.2-21.2-5.4-3.9-10.9-7.9-16.7-11.1l24.9-4c4.7-9 9-18.1 13.1-27.3.1 1.3.2 2.8.3 4.2l15.5-36.9c-11.8 1.7-23.6 3.4-35.5 5.2l-.9 1.5-4.4 7.5-.8 1.3 1.1.6s3.8 2 3.8 6l-50.2 93.1-7 1.6-47.2 11 8.8-34.9 43.9-8 12.8-22.6-51.3 9.1 8.1-32.6 48.4-8.2 2.4-.3.6-1.9 5.3-19c-30.3 4.6-60.6 9.2-90.8 14.1l-6 11.3 1.1.6s3.8 2.2 3.8 6.5l-25.4 98.2c-2.4 4.8-7.5 9-7.6 9l-1.5 1.2.3 10.4c29.9-7.7 59.7-15.3 89.7-22.7l2.3-.5z"/><path fill="#C7D9EA" d="M554.7 278.3c-.4-4.7-.9-9.3-1.3-14-2.4 5.3-4.8 10.4-7.5 15.6l-14.1 2.4c3.4 1.9 6.5 4 9.5 6.4-2.2 4-4.6 8.1-7 12.1 4.5-2 8.8-4.6 12.9-7.4 3.1 2.8 6.2 5.6 9.2 8.6-.2-4.9-.6-9.8-.9-14.7 4.6-3.6 9.1-7.4 13.6-11.3-4.9.7-9.7 1.5-14.4 2.3zm-138-23c7.2-3.3 14-7.5 20.7-11.9 5.1 4.5 10 9.1 14.8 13.8-.3-7.9-.8-15.7-1.3-23.6 7.4-5.8 14.7-11.9 21.8-18.2-7.6 1.3-15.3 2.6-22.9 3.9-.7-7.5-1.3-15-2.1-22.6-3.8 8.4-7.7 16.7-12 25-7.6 1.2-15.3 2.6-22.8 3.7 5.4 3 10.3 6.5 15.3 10.2-3.9 6.8-7.7 13.3-11.5 19.7zm24.8 206.1c-.6-5.2-1.1-10.4-1.8-15.6-2.8 6-5.7 11.9-8.9 17.7-5.7 1.1-11.5 2.2-17.2 3.3 4 2 7.9 4.3 11.7 6.6-2.7 4.6-5.5 9.3-8.3 13.9 5.4-2.5 10.6-5.6 15.5-8.9 3.9 2.9 7.6 6 11.3 9.2-.3-5.5-.8-10.9-1.2-16.4 5.6-4.3 11-8.8 16.3-13.4-5.8 1.2-11.7 2.4-17.4 3.6z"/><path fill="#E3173E" d="M554.7 306c1 9.5 4.7 45.3 5.8 55.7 1-1.7 2.7-4.4 4.8-7.9l-4.3-40.5-.2-1.1-6.1-6.2zm86.9-12.8v.1c-.1.3-26.1 100.6-26.1 100.7l-1 3.1-1.5.3-2.4.4-31.4 7.1-.7.1 7.1 7.1 2.4-.6 31.4-7.1 2.4-.4.6-1.7 26.1-100.6.6-1.6-7.5-6.9zM517.6 416l-1 3.3-3.8.9-28.1 6.4-6.6 1.6-3.6.8-26.5 6.2-.2.1 7 7 1.7-.4 26.5-6.2 3.3-.8-.3-2.2-.6-4.6 5.7 5.7 2.4-.6 28.1-6.4 2.4-.6.6-1.8 7.3-24.7c-.6-7.4-1.3-16.8-2-24.4-5 16.1-12.3 40.7-12.3 40.7zm41.8-7.8l-1.5 2-1 .2-1.7.3-17.6 3.9 7.1 7.1 1.7-.3 17.6-3.9 1.7-.3.9-1.2 5.6-8.2c1-3.1 2.2-7.1 2.2-7.1s4.8-17.1 9.1-31.9c-10.1 16.5-24 39.3-24.1 39.4zm-364.3 70.5c-.6 2.2-1.9 8-1.9 8l-3.3 13.6-3.8 1-5.8 1.6-25.8 7-4.8 1.3 7.1 7.1 1.8-.4 4.4-1.2 25.8-7 5.8-1.6 2.4-.7.6-2.2 4.5-18.6 21-16.5c-.7-4.7-1.3-9.2-1.7-11.7-5.6 4.1-25 19.4-26.3 20.3zm50.7-105.1s-23.4 4.4-26.3 4.9c-.7 2.8-11.8 48.2-14.5 59.4 2.9-2.2 6.7-5.1 10.6-8l10.9-44.4 22.7-4.3c.3-1.6.6-2.9.6-4 0-1.3-.2-2.4-.8-2.9-1.2-1.1-3.2-.7-3.2-.7zm14.1 68c23.5-17.6 26.4-29.1 30.3-44.7l.1-.4 3.9-14.9c2.5-9.5 1-15.7-2.2-19.5-.7-.8-2-2.2-3.6-3.7.3 1.7.6 3.5.6 5.4 0 2.9-.4 6.1-1.3 9.4l-4 15.5c-3.9 15.3-7.1 27.5-30 45.1.6 2.9 7.4 42.1 7.5 42.4.1.2 1.6 5.2 1.6 5.2l-32.3 8.4h-.1l7.1 7.1 1.5-.3 26.1-6.8 3.7-1-.8-2.7-8.1-44.5zm219.5-18.5v.1c.2-.8.3-1.2.3-1.3 0 0 1.2-4.3 3.3-11.1l-10.9-85.2-4.5 6.2c4 29.8 11.8 91.3 11.8 91.3zm-37.8-2c-4.7 1.1-34.8 7.9-36.8 8.3-1.9 3.6-8.4 15.8-8.4 15.8l-1.5 2.7-1.1.2-1.8.4-28.3 7-3.7.9c-28.1 7-57.3 14.3-86.8 21.9l7.1 7.1c29.9-7.7 59.7-15.3 89.6-22.7l2.4-.6 28.3-7 1.8-.4.9-1.6 9-17 30.5-7c-.5-2.3-1-5.9-1.2-8zm-284 27.8l17-69.2c2.6-10.7.9-17.4-2.5-21.7-.8-1-2.5-2.7-4.3-4.5.7 2.2 1 4.7 1 7.4 0 3.1-.4 6.5-1.3 10.2l-16.8 69.1-1.5 6.4-7.6 32.3c-8.9 38.4-40.5 45.9-44 46.6 0 0-3.5 1-3.6 1L4.3 548.1l-.7.2 7.2 7.2 2.4-.7 89.8-21.4 3.5-1c.3-.1 33.2-5.8 42.2-44.7l8.9-38.8zm-31.5-71.5c.4-1.8.6-3 .6-3.9 0-1.6-.3-2-.4-2-.1-.1-.3-.1-.6 0h-.2s-36.9 6.1-40.1 6.5c-.8 3.1-30.5 117.7-32.5 125.3 1.8-.3 5.2-1.1 9.2-2L92.3 385l33.2-5.2c.4-1.5.6-2.4.6-2.4zm274.3-22.8l.6-1.9 5.3-19-7-7-5.8 21-3.9.7s-43.6 7.4-46.7 8c-.7 2.6-5.3 21.3-6.6 26.9 1.5-.2 4.7-.8 9-1.6l4.6-18.5 48.4-8.2 2.1-.4zm-71.2 55.7c-.7 2.6-5.7 23-7.3 29.1 1.6-.3 4.6-1.1 8.4-1.9l5.2-20.1 44.5-8.1 12.8-22.6-7.2-7.2-13 22.9c.1 0-40.2 7.5-43.4 7.9z"/><path fill="#C7D9EA" d="M444.9 363.1l-13 18 12-28.9c-.1-1.5-.2-2.8-.3-4.2-4.2 9.2-8.4 18.3-13.1 27.3-8.3 1.5-16.6 2.8-24.9 4 5.8 3.4 11.3 7.2 16.7 11.1-4 7.2-8.1 14.3-12.2 21.2 7.9-3.6 15.3-8.2 22.6-13 5.5 4.8 10.9 9.9 16.2 15.2-.3-8.6-.9-17.2-1.6-25.7 7.9-6.2 15.5-12.6 22.9-19.2.2-.2.6-.4.8-.7-.3 0-.6.1-.9.1-8.1 1.3-16.1 2.8-24.1 4.2-.5-3-.8-6.1-1.1-9.4z"/><path fill="#E3173E" d="M431.8 381.1l80.4-135.3c.3.2.7.4 1 .8.1.1.2.2.4.3 1.7 1.1 3.5 2.1 5.2 3.1 3.4 1.7 6.2 3 6.2 3l-50.8 70 44.7-45.1c4-4.6 17-15.4 34.7-17.7 28.7 1.8 57.7-11.3 74.7-37.2 25.2-38.2 14.5-89.7-23.8-114.9-38.2-25.2-89.7-14.5-114.9 23.8-16.4 24.9-16.5 54.5-5.8 80.5 0 0 8.9 21.2.3 43.3l-24.9 59.5-15.4 37.1-12 28.8zM611 226.8c-12.2 10.6-25.3 13.6-39.9 14.9-7.2 6.1-15.2 8.9-15.2 8.9 14-13.5 20.5-28.6 29.9-65.8 3.4-13.4 5.1-18.5 7.1-20.5.3-.3 1.5-1.1 2.5-1.1 5.7-.2 10 6.2 15.7 21.7 1.7 4.5 2.8 8.6 3.7 12.5 3 13.7-.7 24.1-3.8 29.4zm2.2-99.2c.1-.1.2-.3.6-.6 1-.1 2.1 0 3 .1 5.1 6 9 12.5 12 19.5-1.7-1.5-3.8-3.4-5.7-4.8l-1.2-.9c-3.8-2.8-6.1-4.4-8.2-9.5-.9-1.7-.9-3.3-.5-3.8zm-35.3-24.3c1.7.9 2.1 2.8 1.2 3.5-.6.4-1.8.8-3.3.9-5.5.2-8-1-12.1-3.3l-1.3-.7c-1.7-.9-3.6-1.7-5.4-2.5 7.1-.4 14.2.4 20.9 2.1zm-51.4 5.8c.3-.1.6-.3.9-.4.9-.4 1.9-1 2.9-1.5 1.8-.8 3.7-1.6 5.5-2.2 2.8-.2 8.2-.1 13.7 2 2.9 1.1 5.7 2.4 7.7 3.5l.6.3c4.9 2.6 10 5.3 18 4.8 2.6-.1 5.2-.4 7-1.6 1.7-.6 3-1.5 4-3 .1-.2.3-.6.4-.9.6-1.1.7-2.4.6-3.6 3.8 1.6 7.6 3.4 11.2 5.6 3.7 2.4 7.1 5.1 10.3 8-1.1.4-2.1 1.1-2.9 2-.2.2-.3.6-.6.8-.6.8-.8 1.6-1 2.5-1.3 2.8-.3 5.8 1 9.1 3 7.4 7.6 10.8 12.1 14l.6.3c1.8 1.3 4.2 3.4 6.4 5.5 4.4 4.2 6.7 9.1 7.9 11.8 1 9.9.3 19.8-2.4 29.1-1.7 5.8-3.8 10.9-6.6 16.1.9-7.9-.7-19.8-5.5-32.9-4.6-12.8-9-24.9-21.4-24.7-8.5.1-12.4 3.9-15.7 13.4-1.6 4-2.9 9.4-4.6 16.3-2.6 10.9-5.3 19.9-7.9 27.4-3.7 10.3-7.9 20.2-14.4 29-24.7-3.7-42.8-18-47.8-24.8-4.8 2.7-9.9 8.9-9.9 8.9 2.7-10.7 13-32.6 49.4-61.9 16.5-13.2 21.8-18.9 16.8-29.8-4.8-10.6-15.6-10.3-31.6-8.8-13.8 1.3-25.7 5.2-32.2 9.3 6.2-10 17.4-17.9 27.5-23.6zm-28.3 33.1c1.6-1.2 2.6-1.9 4.5-2.8 6-2.7 16.8-5.7 27.6-6.7 6.5-.6 11.2-.7 14.7-.3 4.9.7 7.6 2.4 8.9 5.4.4.9 1.8 3.7-2.6 7.6-2.5 2.4-6.2 5.6-11.8 10.3-19 15.7-36.5 33.6-41.8 45.3-9.7-14.5-12.6-48.1.5-58.8z"/><path fill="#fff" d="M621.8 140.9l1.2.9c1.9 1.5 4 3.4 5.7 4.8-2.9-7-7-13.6-12-19.5-1-.1-2-.2-3-.1-.3.2-.4.4-.6.6-.3.6-.2 2.1.4 3.8 2.3 5.1 4.5 6.8 8.3 9.5zm-58-36.5c4.2 2.2 6.6 3.5 12.1 3.3 1.5-.1 2.7-.4 3.3-.9.9-.6.3-2.6-1.2-3.5-6.8-1.7-13.9-2.5-20.9-2.1 1.8.8 3.8 1.7 5.4 2.5l1.3.7zm-24.3 51.1c5.6-4.6 9.3-7.9 11.8-10.3 4.4-3.8 2.9-6.6 2.6-7.6-1.2-2.9-3.9-4.6-8.9-5.4-3.4-.3-8.1-.2-14.7.3-10.8 1-21.7 3.9-27.6 6.7-1.9.8-2.9 1.5-4.5 2.8-13 10.7-10.1 44.4-.4 58.7 5.3-11.6 22.7-29.5 41.7-45.2z"/><path fill="#C7D9EA" d="M562.8 132.5c4.9 10.9-.3 16.5-16.8 29.8-36.3 29.3-46.6 51.2-49.4 61.9 0 0 5.1-6.2 9.9-8.9 5.1 6.7 23.1 21.1 47.8 24.8 6.5-8.8 10.7-18.6 14.4-29 2.7-7.5 5.3-16.5 7.9-27.4 1.7-7 3-12.2 4.6-16.3 3.3-9.5 7.2-13.2 15.7-13.4 12.5-.2 16.8 11.9 21.4 24.7 4.7 13.1 6.3 25 5.5 32.9 2.8-5.2 4.9-10.1 6.6-16.1 2.7-9.3 3.4-19.2 2.4-29.1-1-2.7-3.4-7.7-7.9-11.8-2.2-2.1-4.6-4.2-6.4-5.5l-.6-.3c-4.5-3.3-9-6.7-12.1-14-1.3-3.3-2.4-6.3-1-9.1.1-.9.4-1.7 1-2.5.2-.3.3-.6.6-.8.8-.9 1.8-1.6 2.9-2-3.3-2.9-6.6-5.6-10.3-8-3.6-2.2-7.3-4-11.2-5.6.1 1.2 0 2.5-.6 3.6-.1.3-.3.6-.4.9-1 1.6-2.4 2.5-4 3-1.9 1.1-4.4 1.5-7 1.6-8 .4-13-2.2-18-4.8l-.6-.3c-2-1-4.8-2.4-7.7-3.5-5.4-2.1-10.8-2.1-13.7-2-1.9.7-3.7 1.3-5.5 2.2-1 .4-1.9.9-2.9 1.5-.2.1-.6.2-.9.4-10.2 5.5-21.3 13.6-27.5 23.9 6.5-4.2 18.4-8 32.2-9.3 16-1.8 26.7-2 31.6 8.5z"/><path fill="#fff" d="M611.2 184.7c-5.7-15.5-10-21.9-15.7-21.7-.9 0-2 .8-2.5 1.1-2 2-3.7 7.2-7.1 20.5-9.3 37.2-15.8 52.3-29.9 65.8 0 0 8-2.8 15.2-8.9 14.6-1.3 27.6-4.5 39.9-14.9 3-5.3 6.7-15.7 3.8-29.6-.8-3.5-2.1-7.7-3.7-12.3zm-92.6 65.1c-2-1-3.9-2.2-5.1-3-.1-.1-.3-.2-.4-.3-.7-.4-1-.8-1-.8L431.7 381l13-18 20.7-28.4 2.2-3.1 4.5-6.2 52.8-72.5s-2.8-1.3-6.2-3c0 .2 0 .2-.1 0z"/><path fill="#E3173E" d="M355.8 322.2c1.6-5.7 3-11.6 4.6-17.3 2.5 5.2 4.9 10.3 7.3 15.4 4.4-.7 8.6-1.3 12.9-2l10.1-37.1c-.4.1-.9.1-1.3.2-3.3.4-6.4.9-9.7 1.2-.4.1-.9.1-1.3.2-.1.3-.2.7-.2 1-1.6 6-3.3 11.8-4.8 17.6-2.6-5.5-5.3-11-7.9-16.5-.1-.1-.1-.3-.2-.4-.2 0-.6.1-.8.1s-.6.1-.8.1c-2.1.2-4.3.6-6.4.8-.8.1-1.6.2-2.5.3-4 .7-1.5-.9-4.8 4.2l.7.3s1.1.6 1.2 1.7c-2.8 10.8-5.6 21.4-8.5 32.2 4.2-.8 8.3-1.5 12.4-2zm60.4-9.5c4.2-.7 8.2-1.2 12.2-1.8.9-1.5 1.8-2.9 2.8-4.4 4.3-.7 8.6-1.5 12.9-2.1.1 1.3.3 2.6.4 3.9v.1c3.8-.6 7.5-1.1 11.2-1.7 0-.3-.1-.7-.1-.9-1.2-10.9-2.4-21.7-3.6-32.5 0-.2 0-.4-.1-.7-.3 0-.7.1-1 .1-.8.1-1.7.2-2.5.3-2.4.3-4.8.7-7.2 1-1 .1-2.1.3-3.1.4-.3 0-.7.1-1 .1-.1.2-.3.4-.4.7-.4.8-.9 1.5-1.3 2.2-.1.2-.2.4-.4.7.2.1.4.2.7.2 0 0 1.1.4 1.2 1.5-6.9 11.3-13.7 22.1-20.7 32.9zm26.2-23.2c.3 2.9.7 5.7 1.1 8.6-2.5.4-4.9.8-7.5 1.2 2.1-3.2 4.3-6.6 6.4-9.8zm-47.8-3.2v.1c-.1.3-.2.7-.2 1 .4-.1.9-.1 1.3-.2 2.7-.3 5.4-.8 8-1.1-2.7 10-5.5 19.9-8.2 29.9l13.5-2c2.8-9.9 5.5-19.8 8.3-29.6 2.7-.3 5.4-.8 8-1.1.4-.1.9-.1 1.3-.2.6-1.9 1.1-3.9 1.7-5.8.1-.3.2-.7.2-.9-.4.1-.9.1-1.3.2-6.2.9-12.5 1.7-18.6 2.5-3.6.4-7.3 1-10.9 1.5-.6.1-1 .1-1.6.2-.3 0-.7.1-1 .1-.1.2-.3.4-.4.8-.4.8-.9 1.6-1.3 2.2-.1.2-.2.4-.4.7l.7.3c-.4-.2.9.3.9 1.4zm-159.9 20.8v.2c-.1.3-.2.7-.2 1.1.4-.1.9-.1 1.3-.2l8.1-1c-2.7 11.3-5.5 22.7-8.2 34 4.5-.8 9.1-1.5 13.6-2.2 2.7-11.2 5.5-22.3 8.2-33.6l8.1-1c.4-.1.9-.1 1.3-.1.1-.3.2-.7.2-1l1.7-6.7c-11.2 1.3-22.5 2.8-33.7 4.2-.1.3-.3.6-.4.9-.4.9-.9 1.7-1.3 2.6-.1.2-.2.6-.4.8l.7.3c-.4-.3 1 .5 1 1.7zm76.2 22c.8-1.2 1.5-2.6 2.2-3.8 4.4-.7 8.6-1.3 13-2 .1 1.1.2 2.2.4 3.4 3.8-.6 7.5-1.1 11.3-1.8-1.2-11.9-2.5-23.9-3.7-35.8 0-.2 0-.4-.1-.7-.3 0-.7.1-1 .1-.8.1-1.7.2-2.5.3l-7.2.9c-1 .1-2.1.2-3.1.3-.3 0-.7.1-1 .1l-.4.8c-.4.8-.9 1.6-1.3 2.5-.1.2-.2.4-.4.7l.7.3s1.1.6 1.2 1.6c-6.7 11.7-13.6 23.4-20.4 35 3.9-.5 8.2-1.2 12.3-1.9zm13.3-22.4c.3 3.3.8 6.4 1.1 9.7-2.5.3-5.1.8-7.5 1.1l6.4-10.8zm-122.7 40c.8-1.5 1.7-3 2.5-4.5l13.1-2c.1 1.3.2 2.6.4 3.9 3.8-.7 7.5-1.2 11.3-1.9-1.2-13.1-2.5-26.4-3.7-39.6 0-.2 0-.6-.1-.8-5.1.7-10 1.2-15 1.9-.1.3-.3.6-.4.9l-1.3 2.7c-.1.2-.2.6-.4.8l.7.3s1.1.7 1.2 1.8c-7 12.9-13.8 25.8-20.8 38.7 4.1-.8 8.3-1.5 12.5-2.2zm13.6-24.9c.3 3.6.8 7.1 1.1 10.7-2.5.3-5.1.8-7.5 1.1l6.4-11.8zm57.3-19.6c-2.8 11.5-5.6 22.9-8.5 34.5 9.8-1.6 19.4-3.1 29.1-4.6.9-1.6 1.7-3.1 2.6-4.7.2-.4.4-.9.8-1.3-.6.1-1.1.2-1.7.2l-15.6 2.4c2.9-11.5 5.7-22.9 8.6-34.5-.4.1-.9.1-1.3.1-.7.1-1.3.1-2 .2-2.9.3-6 .7-8.9 1.1-.6.1-1 .1-1.6.2-.3 0-.7.1-1 .1l-.4.8c-.4.9-.9 1.7-1.3 2.5l-.4.8.7.3c-.3 0 .9.6.9 1.9z"/></svg>