<svg baseProfile="tiny" xmlns="http://www.w3.org/2000/svg" viewBox="0 0 650 650"><path fill="#FF671B" d="M39 274.3c-5.8 3.6-11.8 7.3-17.7 11.3-2.1 1.4-4.2 2.8-6.4 4.2l-4.5 3v.1l-.2.2.1.2 2.8 4.9c.5.8 47.9 83.2 100.1 144.8l4 4.8 4.8-4c.1-.1 4.4-3.7 12.3-9.6.1.2.3.3.5.6 27 33 54.6 61.3 78.3 83.6 57.7 54.3 104.8 85.4 106.8 86.8l6.1 4 1-.3s.1-.1.3-.2l6.3-3.1c2-1 50.6-24.9 111-74.7 40.5-33.4 92-83.5 135.7-150 1.9-2.8 3.6-5.6 5.5-8.5 2.1 1.2 4.7 2.6 6.3 3.5 1.7.9 3.1 1.7 4.3 2.3l4.4 2.3 1.3-.2 3-5.2c.3-.6 35.8-62.4 41.1-71.1l2.9-4.7-4.3-3.5s-.1 0-.1-.1h-.1s-.1-.1-.2-.1c-1.6-1.3-7.9-6.2-18.3-13.2l8.9-21.9 3.6-9.1-8.3-5.1-13.9-8.6c.2-.9.6-1.7.8-2.6l2.9-9.6-8.3-5.6c-69.5-46.7-175.5-77.3-283.6-82.1C211.8 132.1 111.7 152 46 193.2c0 0-8.2 5.1-8.3 5.1 0 0 4.3 19.6 6.1 25l-11.4 8-7.9 5.6 3.5 9 10.7 27.4.3 1"/><path fill="#003DA6" d="M327.5 151.6c-11.9-.6-23.6-.8-35.1-.8-100.5 0-183.5 19.9-238.6 54.4 2.9 12.3 8.3 27 12.9 38.6 1.6 4.2 3.3 7.9 4.7 11.1 91.8-49.4 173.6-64.2 246.4-64.2 36.7 0 71.2 3.7 103.4 8.9 71.4 11.2 131.5 38.6 171.5 61.3 4.4-10.8 8-21.3 10.6-29.6-63.6-42.8-163.7-74.9-275.8-79.7zm60.7 178.5c-81.3 3.4-165.6 47.9-208.6 74.1-3.6 2.2-7.1 4.4-10.4 6.5 63.3 83.1 143.5 141.3 160.9 153.4 23.3-13.3 153.3-91.6 218.8-209.6-31.7-12.5-78.4-24.9-140.8-24.9-6.5.2-13.2.3-19.9.5zM333 578.2l-3.6 2-3.4-2.3c-.9-.6-86.4-57.9-157.1-145.6-2.4 1.7-6.9 4.8-8.9 6.2 66.2 76.5 135.8 130.3 159.6 147.7 4.3 3.3 7.1 5.1 8.2 5.8 1-.5 3.8-2 8.4-4.5 5.7-3.1 13.9-7.9 23.9-14.3 20.2-12.7 48.1-31.9 78.7-57.4C481 480.7 528.6 433.4 569 374c-1.9-.9-8.2-3.8-12.2-5.6-75.4 128.9-222.3 209-223.8 209.8zM40.5 241.9l9.7 24.7c3.5-2.1 7.1-4.1 10.6-6.1l-9.9-26-10.4 7.4zm569.5 5.9l-7.5 18.4c4.8 2.8 9.1 5.5 13 8l7.5-18.3-13-8.1z"/><path fill="#2E2A25" d="M596.1 377.8c-1.2-.6-2.6-1.4-4.3-2.3-1.6-.9-4.2-2.3-6.3-3.5-1.9 2.9-3.6 5.7-5.5 8.5l3 2.3 17.5-2.6-4.4-2.4zm-27.2-3.6c1.9-2.7 3.6-5.5 5.5-8.2-3.8-1.9-8-4-12.8-6.1-1.6 2.9-3.3 5.8-4.9 8.6 4 1.8 12.2 5.7 12.2 5.7zM160 438.6c2-1.4 6.4-4.5 8.9-6.2-3.7-4.7-7.5-9.3-11.1-14.1-3.4 2.2-6.5 4.4-9.4 6.5 3.7 4.7 7.6 9.2 11.6 13.8"/><path fill="#2E2A25" d="M28 246.3l-3.5-9 7.9-5.6 11.4-8c-1.9-5.6-6.1-25-6.1-25L13.4 267c2.2 7.3 5.1 13.5 7.9 18.9 5.9-4 11.9-7.7 17.7-11.3l-11-28.3zm391.2-33.1c-31.6-4.9-65.1-8.6-101-8.6-84 0-180.2 20.3-290.4 92.6C39 316 77.1 378.6 118.8 429c8.7-6.9 27.6-21 53.6-36.7 44.1-26.9 130.8-72.6 215.4-76.1 6.8-.2 13.4-.5 20-.5 70.1 0 133.7 15.5 189.1 46.4 7.8-13.5 26.4-46 34.6-60-20.4-15.1-102.8-71.9-212.3-88.9zM213 518.1c-23.8-22.4-51.3-50.6-78.3-83.6-.1-.2-.3-.3-.5-.6-7.8 5.8-12.2 9.4-12.3 9.6l-4.8 4-4-4.8C60.9 381.3 13.3 298.9 12.9 298.1l-2.8-4.9-.1-.2-9 22.6s50.9 94.2 112.1 156.8c0 0 13.6-9.8 18.2-13.4 57.8 76.6 168 158.5 168.7 159l25.9-9.1-6.1-4c-2.1-1.4-49.1-32.5-106.8-86.8zm60.8-332.6c2.1 0 4-.1 5.8-.1-1.2-5.2-2.1-9.8-3.4-15l.7-.2.7-.1-.7.1-.7.2c-.1-1-.7-2.3-1.3-4l1.3-.7c5.8 6.9 10.9 12.7 16.9 19.5h.1c1.2 0 2.3 0 3.5-.1-1.7-7.7-3.3-14.4-4.9-22.2l-.2-.9h2.8c-.1-.8-.3-1.5-.5-2.2-1.9 0-3.6.1-5.5.1h-.6c1.2 5.1 2.2 9.8 3.3 14.9.3 1.3.5 2.3 1.3 4l-1.2.8c-5.8-6.9-10.7-12.7-16.4-19.5-2.4.1-4.5.1-6.9.1.1.8.2 1.5.5 2.3h2.8l.1.6c1.5 6.8 2.8 12.7 4.4 19.5l.2.9h-2.7c.4.4.5 1.1.6 2zm70-.7c-.3-2.2-.9-4.3-1.4-6.8h-3c.2 1.3.3 2.4.7 3.6l.2.9h-.9c-3.5 0-6.5-.1-10-.1h-.6l-.1-.6c-.5-2.8-.9-5.2-1.6-7.9l-.2-.9h.9c3.3 0 6.2 0 9.4.1-.1-.6-.3-1.3-.5-2-3.4-.1-6.3-.1-9.7-.1h-.6l-.1-.6c-.5-2.4-.9-4.7-1.4-7.1l-.1-.9h.9c3.5.1 6.4.1 9.7.2h.6l.1.6c.2 1.2.6 2.4.8 3.7h2.9c-.5-2.2-.8-4.2-1.3-6.4-7.3-.2-13.5-.3-20.7-.5.2.7.3 1.4.5 2.1h2.7l.1.6c1.2 6.5 2.4 12 3.8 18.6l.2.9h-2.7c.1.7.3 1.4.5 2.1 7.2.2 13.7.3 20.9.5zm49.3 4.8c.9-7.1 2.2-13.3 3.3-20.4l.1-.7.7.1c.7.1 1.3.1 2 .2-.1-.7-.1-1.3-.2-2-2-.2-3.8-.5-5.8-.7-.7 6.1-1.3 11.5-2.1 17.7l-.3 2.7-1-2.4c-2.9-6.8-5.2-12.7-8.2-19.3-1.5-.2-2.9-.3-4.5-.6-1.5 6.1-2.4 11.4-3.7 17.6l-.6 2.7-.9-2.6c-2.3-6.8-4-12.5-6.5-19.1-2-.2-4-.5-6.1-.7.1.7.1 1.3.2 2 .8.1 1.5.1 2.3.2l.3.1.1.3c2.9 7.7 5.5 14.6 8.3 22.2 1.4.1 2.6.2 3.8.5 1.4-6.6 2.9-12.3 4.4-19l.5-2.2.9 2.1c3.3 7.3 6.1 13.6 9.2 20.9 1.2.1 2.3.3 3.8.4zm67.9 13.1c0-.6.1-1.3.1-1.9-.8-.2-1.6-.3-2.4-.7l-.6-.2v-.6c.2-2.7.3-4.9.5-7.6v-.3l.2-.2c2.9-2.8 5.2-5.1 8.3-7.9l.3-.2.5.1c.7.2 1.3.3 2 .6 0-.7.1-1.3.1-1.9-1.4-.3-1.7-.3-3.4-.8-2.7 2.7-5.4 4.9-9.2 7.3l-.7.5-.3-.7c-2.1-4-3.8-7.5-5.9-11.4l-5.7-1.5c0 .6-.1 1.2-.1 1.9.8.2 1.6.5 2.3.7l.2.1.1.2c2.4 4.2 4.7 7.9 7.1 12.2l.1.2v.2c-.1 2.7-.3 4.8-.3 7.5v1l-.9-.3c-.7-.2-1.4-.3-2.1-.6 0 .7-.1 1.3-.1 1.9 3.4.6 6.3 1.5 9.9 2.4zm24.8 2.1v.6c0 2 1.5 3.7 4.7 4.9 3.4 1.2 6.2 2.2 9.6 3.3 1.2.3 2.1.5 2.9.5 1.7-.1 2.4-.6 2.8-2.2.9-5.1 1.7-9.7 2.8-14.8v-.6c0-2.1-1.4-3.6-4.7-4.9-3.4-1.2-6.3-2.1-9.7-3.4-1.2-.3-2.1-.5-2.9-.5-1.6.1-2.3.6-2.8 2.2-.8 5.1-1.8 9.6-2.7 14.9zm14 6.5c-.3 0-.8-.1-1.3-.2-2.3-.8-4.2-1.4-6.4-2.2-1.5-.5-2.3-1.5-2.2-2.7 0-.2 0-.6.1-.8l.7.1-.7-.1c.9-4.5 1.4-8.5 2.3-13 .1-1 .8-2.1 2-2.1.5 0 .9.1 1.4.2 2.3.8 4.2 1.4 6.5 2.3 1.3.5 2.2 1.4 2.1 2.7v.6c-1 4.4-1.5 8.4-2.4 13-.1 1.2-.8 2.2-2.1 2.2.1 0 0 0 0 0zm44.2 18.9c.1-.6.3-1 .5-1.5-.7-.2-1.3-.6-2-.8l-.7-.2.3-.7c.6-1.3.7-2.4 1.2-4 .1-.6.2-.9.2-1.4 0-1.3-.6-2.1-3-3.7l.6-1.4c1.2.3 2 .5 2.6.5.9-.1 1.2-.2 1.5-1.2.2-1.2.6-2.2.9-3.4v-.7c0-1.7-1-3.4-4-4.7-5.4-2.3-9.9-4.3-15-6.6-.2.6-.3 1-.3 1.5.7.3 1.4.6 2.2.9l.6.2-.1.6c-1.5 5.4-2.8 10-4.2 15.4l-.2.8-.8-.2c-.7-.2-1.3-.5-1.9-.8-.1.5-.2.9-.3 1.5 2.2.9 4.2 1.9 6.3 2.8.9-2.9 1.4-5.5 2.3-8.6l.2-.8.8.3c2.3 1 4.2 1.9 6.6 2.9 1 .5 2 1.3 2 2.4 0 .3-.1.7-.2 1-.8 2.3-1.2 4.5-1.9 7 1.8 1 3.8 2 5.8 2.9zm-4.6-14.5c-.5 0-.9-.1-1.4-.3-2.3-1-4.4-1.9-6.5-2.8l-.6-.2.1-.6c.5-2.2 1-4.1 1.7-6.2l.2-.8.8.3c2.3 1 4.4 1.9 6.5 2.9 1.2.5 2 1.4 2 2.6 0 .2 0 .6-.1.9-.2.8-.2 1.7-.8 2.8 0 .7-.9 1.4-1.9 1.4.1 0 .1 0 0 0zm41 32.7c.2-.5.3-.9.6-1.3-.6-.3-1.2-.7-1.7-.9l-.6-.3.2-.7c.7-1.7 1.4-3 1.9-4.7.1-.5.2-.8.2-1.3 0-1.3-1-2.7-3.5-4.1-.8-.6-1.7-.9-2.8-1.5l-1.5-.8 1.6-.6c2.7-.9 5.1-1.7 7.8-2.7l.3-.1.3.1c.9.5 1.7.9 2.6 1.4.2-.5.3-.8.6-1.3-1.6-.9-3.1-1.7-4.8-2.6-3.8 1.5-6.9 2.8-10.7 4.3l-1.4.6.6.3c2.2 1.2 3.8 2.1 5.9 3.3.9.6 1.6 1.3 1.6 2.3 0 .3-.1.8-.2 1.2-.8 2.2-1.5 4.1-2.4 6.2 1.7 1.2 3.4 2.1 5.4 3.2zm-14.6-8c1-2.7 2-5 2.9-7.6l.2-.7v-.1l.6-1.5c1.2-2.8 2.1-5.2 3.3-8-2-1-3.7-2.1-5.7-3.1-.2.5-.3.9-.6 1.3.6.3 1.2.6 1.9 1l.6.3-.2.6c-2 4.9-3.5 9.1-5.5 14l-.3.8-.7-.5c-.6-.3-1-.6-1.6-.9-.1.5-.2.8-.5 1.3 2.1 1.2 3.8 2.1 5.6 3.1z"/><path fill="#003DA6" d="M235.1 239.6l5.1-3.7.8-.6 32 87c5.8-1.6 48.7-13.3 70.4-14.7l1.2-.1-2.2 5.8h-.5c-20.2 2.2-38.1 6.8-50.9 10.8-12.9 4.1-20.7 7.6-20.7 7.6l-.7.3-34.5-92.4z"/><path fill="#fff" d="M174.2 336.6s-15.8 10-21.4 13c-17.5-28-34.1-54.7-51.6-82.7-8.4 3.8-23.1 12.7-31.6 17.1-4 2.1-7.7 4-11.6 6.2 3.6 5.1 7 10 10.6 15.1 3.5-2 7-3.7 10.5-5.7 19 28 37.2 54.7 56 82.8 17.1-11.1 50.4-31 79.4-46.1l-20.4-36.7c1 .7-18.5 6.1-32 14.8 2.7 4.4 9.5 17.8 12.1 22.2z"/><path fill="#6ECDB2" d="M79.9 291.1c19.1 28.5 37.4 55.9 56.5 84.6 1.3-.7 2.3-1.4 3.6-2.2-18.9-28.7-36.9-55.9-55.7-84.6-1.5.9-2.8 1.6-4.4 2.2zm103 41.2c-2.6-4.5-7.5-13.2-10-17.7-1.4.7-2.4 1.2-3.7 1.9 2.2 3.8 8.2 13.7 10.4 17.5l3.3-1.7z"/><path fill="#003DA6" d="M75.9 322l-9 4.7-14.4-20.2.7-9.7.1-2 15.4 21.1 8.9-4.6 55.1 83.7 74.4-45.8 5.4 6.3-82.2 50.9L75.9 322z"/><path fill="#fff" d="M312 266.2c2.8 8.7 5.4 16.9 8 25.5-6.5 1-12.6 2.2-19.1 3.6-4.4-12.7-8.7-24.8-13.2-37.4 8.5 2.8 16.4 5.5 24.3 8.3.4-.1.1 0 0 0zm-11.3-36c2.6 8.2 5 16 7.6 24-7.9-2.9-16-5.7-24.6-8.4-1.6-4.5-3.1-8.9-4.7-13.4 7.5-.8 14.4-1.5 21.7-2.2m12.4 25.8c2.9-2.4 5.8-4.7 8.7-6.5-3.4-11.4-6.5-22.4-9.8-33.8-5.1 0-10.3.5-15.7.8-18.5 1.2-45 3-64.3 6.6 2 4.9 3.8 9.6 5.8 14.4 3.3-.6 6.4-1.2 9.7-1.9 10.3 26.4 20.2 51.8 30.4 78.3 20-5.6 46.7-9 66.2-11.9-3.6-12.9-7-25.3-10.6-38.3-6.9-2.3-13.2-5.1-20.4-7.7"/><path fill="#6ECDB2" d="M248.3 229c10.4 27 20.3 52.8 30.6 79.8 1.3-.2 2.4-.7 3.5-.9-10.1-26.9-19.8-52.7-29.9-79.4-1.3-.1-2.7.3-4.2.5zm78.4 62c-2.2-7.5-4.4-14.7-6.8-22.2-1.5-.5-2.7-1-4.2-1.5 2.6 8.2 5 16.1 7.6 24.2 1.2 0 2.1-.3 3.4-.5zm-19.3-63.4c2.2 7.3 4.4 14.4 6.6 21.8-1.2.9-2 1.6-3.1 2.3-2.3-7.5-4.5-14.6-6.8-21.9 1.2-.5 2.1-1.1 3.3-2.2z"/><path fill="#fff" d="M330 215.4c1.2 4.4 2.3 8.7 3.5 13.3 3 0 5.8-.1 9.1 0 6.1 24.2 11.9 47.5 17.8 71.8 17.4-1.9 33.4-2.4 49.7-2.3-.8-5.6-1.6-10.8-2.4-16.3-4.4-2.3-9.2-4.5-13.7-6.8.7 3.7 1.3 7.2 1.9 10.9-6.8-.1-12.8 0-19.5.3-1.3-6.1-2.4-11.8-3.7-17.8 3.1-2.9 6.4-5.4 9.6-8-.8-4-1.5-7.9-2.2-11.9-3.3 2.6-6.6 5-9.9 7.8-2-9.2-3.7-17.8-5.7-27 7.5.3 14.4.7 22 1.6.9 5.4 1.9 10.5 2.8 15.8 4.1-2.2 8.5-4.3 12.6-6.3-1-6.8-2-13.2-2.9-19.9-22.6-3.5-45.1-5.1-69-5.2z"/><path fill="#6ECDB2" d="M344.3 223c6.1 24.7 11.8 48.2 17.8 72.9 1.2-.1 2.1-.1 3.3-.3-5.8-24.6-11.4-48-17.2-72.6-1.6.1-2.5 0-3.9 0zm58.2 66.6c-.5-2.7-.8-5.2-1.3-7.9-.8-.3-1.3-.6-1.9-.9l-1.6-.8c.5 2.7.8 5.2 1.3 7.9.6.2 1 .6 1.5.8.9.2 1.2.5 2 .9z"/><path fill="#003DA6" d="M334.6 240.3l-8.7.2-5.2-18.6 2.8-5.9.8-1.7 5.8 20.2 8.7-.2 17.8 71.4c4.8-.5 33.9-3.6 47.8-3.6 2.6 0 4.5.1 5.8.3l1.4.2-4.2 3.8h-.2c-9 .1-22.4 1.3-33.5 2.3-11.2 1-20.2 2.1-20.2 2.1l-.7.1-18.2-70.6z"/><path fill="#fff" d="M442.6 249.6c-.2-3.6-.5-7.1-.7-10.7 6.4 1.4 12.3 2.6 18.3 4.2.1 6.3.3 12.3.5 18.6-5.9-4.1-11.7-7.9-18.1-12.1zm21.5 14.6c2.9-1 5.9-1.7 8.9-2.7.1-8.6.1-16.8.2-25.4-4.3-1.3-8.6-2.7-13.3-3.7-15.7-4.3-31.3-7.7-48-10.4.5 4 .9 7.8 1.5 11.8 2.8.2 5.6.9 8.4 1.3 2.3 21.4 4.7 41.9 7 63.4 5.8.3 11.6.7 17.2 1.2-.9-13.6-1.7-26.7-2.7-40.3 6.3 4.1 12 7.8 17.8 11.9.2 10.1.5 19.9.7 30.1 5.6.7 10.8 1.4 16.3 2.3.2-9.8.5-19.1.7-28.9-4.9-3.7-9.7-7.2-14.7-10.6"/><path fill="#6ECDB2" d="M424.3 230.6c2.2 21.7 4.4 42.5 6.6 64.3 1 0 2.1.2 3 .2-2.1-21.7-4.1-42.2-6.2-63.8-1 0-2.1-.4-3.4-.7zm39.4 42.4c.1 8.5.2 16.7.5 25.2 1 .2 2 .3 2.8.3-.1-7.9-.1-15.5-.2-23.4-.9-.5-2-1.4-3.1-2.1z"/><path fill="#003DA6" d="M421 305.5l-7.1-62.2-8.7-1-2.3-16.7 3.3-3.7 1-1.3 2.6 17 8.4 1.4 7.1 62.4 20.4 1.4-4.3 3.8-20.4-1.1zm33.1 2.1l-1.4-30.5 2.9-2.9 1.2-1.2 1.2 30.9 21.4 3.4-4.8 3.7-20.5-3.4z"/><path fill="#fff" d="M542.5 281.6c1.5-6.4 2.9-12.5 4.4-18.9-18.2-8.3-37-15.4-57.2-21.8-.3 7.7-.6 15.1-.8 22.8 4.1-1 8.2-2 12.6-2.6.1-2.1.3-4.3.5-6.4 2.2.7 4.5 1.4 7 2.3-1.7 17.4-4.8 35.3-6.4 52.7 5.1.9 11.6 3.6 16.5 4.9 2.7-16.4 5-34.8 7.7-51.1 2.3.9 4.5 1.9 6.6 2.6-.3 2-.7 3.8-1 5.7 3.7 3.5 7 6.5 10.1 9.8z"/><path fill="#6ECDB2" d="M512.7 258.3c-1.5 13.9-3.7 30.3-5.6 47.9.9.2 1.6.3 2.7.6 2.1-17.4 4.3-33.7 6.1-47.3l-3.2-1.2z"/><path fill="#003DA6" d="M493.5 314.5l6.8-46.1-19.5 3.5.5-29.9 3.3-2.7 1.3-1-.3 29.9 19.6-3.7-7 47.4 22.4 6.9-5.8 2.1-21.3-6.4zm36.7-35.7l.6-2.9.2-1.4 11.9 11.8-4.7.8-8-8.3z"/><path fill="#fff" d="M597.7 292.3c-2.2 4.7-4.3 9.2-6.4 13.9-4.7-1-9.3-1.7-14.1-2.3l5.7-20.5c-5-2.6-19-11.5-21.5-12.6l-2.2 9.9s3.8 2.7 5.8 3.6l-5.7 25c9.9.6 19.2 1.6 29 3.3-2.6 5.6-4.9 9.9-7.5 15.5-7.9-3.3-15.8-6.3-24.5-9.3-.7 2.6-2 7.5-2 7.5 12.2 4.4 34.9 15 34.9 15 7.9-13.4 15.8-27.1 23.8-40.4-5-3-9.9-5.8-15.3-8.6z"/><path fill="#6ECDB2" d="M568.9 283.6c-2.4 8-3.4 15.7-5.8 23.6 1 .1 1.9.1 2.9.2 2.4-7.6 3.4-14.9 5.8-22.6-1.1-.3-1.9-.7-2.9-1.2z"/><path fill="#003DA6" d="M556.2 288.4l-5.9-3 4-16.7 3.6-1.6 1.4-.7-4 16.8 5.7 3.7-5.6 24.2-4.2.7 5-23.4zm-10.5 42.2L549 319l3.5-.5 1-.1-2.7 10.4 37.5 15.7-4.4 2-38.2-15.9z"/><path fill="#6ECDB2" d="M273.8 184.2c-.1-1.3-.5-2.3-.8-3.6l-.3-.9h2.8c-1.5-6.2-2.8-11.8-4.1-17.9-.7 0-1.3 0-2.1.1h-.6l-.2-.6c-.5-1.4-.6-2.7-.9-3.8l-.2-.9h.9c2.9-.1 5.4-.1 8.2-.1h.3l.2.2c5 5.9 9.3 11.1 14.2 16.8 0-.2-.1-.3-.1-.5-1.2-5.5-2.3-10.3-3.5-15.8l-.2-.9h2.4c2.1 0 4 0 6.1-.1h.6l.1.6c.3 1.3.5 2.4.8 3.7l.2.9h-2.8c1.6 7.7 3.1 14.4 4.9 22.1l.2.9h-.9c-1.5 0-2.9.1-4.4.1h-.8l-.2-.2c-5.1-5.9-9.7-11.1-14.6-16.8 0 .2.1.3.1.6 1.4 5.5 2.3 10.3 3.6 15.8l.2.9h-.9c-2.4.1-4.7.1-7.5.2h-.7v-.8zm72.2 0c-7.7-.1-14.7-.2-22.5-.3h-.5l-.1-.6c-.2-1.3-.5-2.3-.7-3.6l-.1-.9h2.8c-1.3-5.9-2.4-11.2-3.5-17.1h-2.9v-.7c-.1-1.2-.3-2.2-.7-3.5l-.3-.9h1c7.8.1 14.3.2 22.4.5h.6l.1.6c.5 2.8.9 5.1 1.5 7.9l.2.9-1-.1c-1.5-.1-2.9 0-4.5-.1h-.7v-.7c-.1-1.2-.5-2.4-.7-3.7-2.8-.1-5.4-.1-8.2-.1.3 1.9.8 3.6 1.2 5.6 3.4 0 6.4.1 9.8.2h.7v.7c.1 1 .5 2 .7 3.4l.1.9h-.9c-3.3-.1-6.2-.1-9.4-.1.5 2.2.9 4.3 1.3 6.5 2.9 0 5.5.1 8.4.1-.2-1.3-.3-2.4-.7-3.6l.7-.2-.7.2-.2-.9h1c1.5 0 3 0 4.7.1h.6l.1.6c.5 2.8 1.3 5.4 1.6 8.3l.1.8-1.3-.2zm48.9 4.9c-2.1-.2-3.3-.3-5-.6h-.5l-.1-.3c-2.9-6.8-5.5-12.6-8.4-19.2-1.4 5.9-2.7 11.3-4.1 17.5l-.1.7-.7-.1c-1.7-.2-3-.3-5-.6h-.5l-.1-.5c-2.8-7.7-5.2-14.6-8.3-22.2-.7-.1-1.5-.1-2.4-.2l-.6-.1v-.6c-.1-1.2-.2-2.2-.3-3.6v-.9l.9.1c2.4.3 4.9.6 7.3.8h.5l.1.5c2.3 5.9 3.8 11.2 5.8 17 1-5.2 2-10.1 3.4-15.6l.1-.7.7.1c2.1.2 3.7.5 5.7.7l.5.1.1.3c2.6 6.1 4.8 11.3 7.2 17.2.7-5.4 1.2-10.3 1.9-15.7l.1-.7.7.1c2.4.2 4.8.6 7.2.9l.6.1v.6l.3 3.5.1.9-.9-.1c-.7-.1-1.4-.2-2.1-.2-1 7.1-2.3 13.3-3.3 20.4l-.1.7-.7-.3zm68.1 13.2c-4.2-1-7.6-2.1-11.5-3l-.6-.1v-.6c0-1.3.1-2.2.2-3.4v-.9l.9.2c.7.2 1.4.3 2.2.6.1-2.2.3-4.1.3-6.2-2.3-4.1-4.5-7.7-6.9-11.8-.8-.2-1.6-.5-2.6-.7l-.6-.1v-.6c0-1.2.1-2.3.2-3.4v-.9l.9.2c2.3.6 4.7 1.3 6.9 1.9l.3.1.1.2c2.1 3.8 3.7 7.1 5.7 10.8 2.3-2.4 4.1-4.8 6.6-7.3l.3-.3.5.1c2.1.6 4.3 1 6.4 1.7l.6.1v.6c-.1 1.2-.1 2.2-.2 3.4v.9l-.8-.2c-1-.2-1.7-.5-2.6-.7-2.8 2.6-5 4.8-7.7 7.3 0 2.3-.2 4.4-.3 6.6.8.2 1.5.3 2.4.6l.6.1v.6c-.1 1.2-.1 2.3-.2 3.4v.9l-1.1-.1zm41.2 11.1c-1 0-2.1-.2-3.4-.6-3.4-1.2-6.2-2.1-9.6-3.4-3.4-1.3-5.6-3.5-5.6-6.3v-.8c.9-5.2 1.9-9.8 2.7-14.9.5-2.1 2.1-3.4 4.3-3.3.9 0 2.1.2 3.4.6 3.4 1.3 6.3 2.2 9.7 3.4 3.5 1.3 5.6 3.5 5.6 6.3v.8l-.7-.1.7.1c-1 5.1-1.9 9.7-2.8 14.9-.3 2.1-2 3.4-4.1 3.4-.1-.1-.2-.1-.2-.1zm-11.4-9.8v.6c.1.6 0 .7 1.3 1.3 2.1.8 4.1 1.4 6.4 2.2.3.1.7.1.8.1.3-.1.3.1.6-.8.9-4.4 1.4-8.5 2.4-13v-.5c0-.7-.1-.8-1.2-1.3-2.3-.8-4.2-1.5-6.5-2.2-.3-.1-.7-.2-.9-.2-.3 0-.3 0-.6.8-.9 4.4-1.4 8.4-2.3 13zm52.9 26.2c-2.7-1.2-5-2.2-7.7-3.4l-.6-.2.2-.6c.8-2.6 1.2-4.9 2.1-7.7.1-.2.1-.5.1-.6 0-.3-.1-.6-1-1-2.1-.9-3.8-1.6-5.8-2.6-.8 2.9-1.3 5.6-2.3 8.6l-.2.8-.7-.3c-2.6-1.2-4.9-2.3-7.7-3.4l-.7-.2.2-.7c.5-1 .5-1.7.8-2.9l.2-.8.8.3c.7.3 1.2.6 1.9.8 1.3-4.9 2.4-9.2 3.8-14l-2.1-.9-.6-.2.1-.6c.2-1 .5-2 .9-3.1l.2-.7.7.3c5.4 2.4 10.1 4.4 15.7 6.9 3.1 1.4 4.9 3.5 4.9 6.1 0 .3 0 .7-.1.9v.1c-.5 1.2-.7 2.1-1 3.4-.3 1.3-1.5 2.2-2.9 2.1.9.9 1.3 1.9 1.3 3 0 .6-.1 1-.2 1.7-.3 1.2-.5 2.2-.9 3.5.7.3 1.3.6 2 .9l.6.2-.2.6c-.3 1-.6 2-.8 2.9l-.1.9-.9-.1zM540 212l-.2.7.2-.7c.3.1.7.2.8.2.2 0 .3 0 .6-.7v-.2c.5-.8.5-1.5.7-2.4 0-.2.1-.5.1-.6 0-.5-.1-.7-1-1.2-1.9-.8-3.6-1.6-5.7-2.6-.5 1.6-.9 3-1.3 4.8 1.8 1 3.7 1.8 5.8 2.7zm41.8 36c-2.4-1.3-4.5-2.6-6.9-3.8l-.6-.3.2-.6c.9-2.4 1.9-4.4 2.7-6.9.1-.2.1-.5.1-.6 0-.2-.1-.5-.9-1-1.7-1-3.3-1.9-5.1-2.8-1 2.6-2 4.9-2.9 7.6l-.3.8-.8-.5c-2.4-1.4-4.4-2.4-7-3.8l-.7-.3.5-.7c.5-.8.7-1.5.9-2.6l.2-.9.8.5c.6.3 1.2.6 1.6.9 1.7-4.3 3.1-8.3 4.9-12.6-.6-.3-1.2-.6-1.9-1l-.5-.3.2-.6c.3-1 .8-1.9 1-2.7l.2-.9.8.5c2.4 1.4 4.5 2.6 7 3.8l.6.3-.2.6c-1 2.4-1.9 4.7-2.8 7.1 3.3-1.3 6.1-2.4 9.4-3.8l.3-.1.3.2c1.9 1 3.7 2 5.6 3.1l.5.3-.1.6c-.3 1-.7 1.9-1.2 2.8l-.3.7-.7-.3c-1-.6-2-1-3-1.6-2 .7-3.8 1.4-5.8 2 .5.2.9.5 1.3.7 2.6 1.5 4.2 3.1 4.2 5.4 0 .6-.1 1.2-.3 1.7-.5 1.5-1 2.7-1.6 4.1.7.3 1.3.7 1.9 1l.5.3-.2.6-1 2.8-.3.7-.6-.4z"/><path fill="#003DA6" d="M222.7 364.8s-19.6-19.8-20.9-24.2c-1.3-4.4-6.6-40.2-6.6-40.2s-18.5-5.8-20.5-9.6c-1.9-3.8-.6-7-.6-7s-8.4-3.4-9.9-7.2c-1.4-3.8.5-10.5.5-10.5s-10.9-2.6-14.6-5.7c-5.5-4.7-1.9-14.8-1.9-14.8s-7.7-2.9-9.1-6.6c-.3-.8-.2-2 0-3.3-1.2-.1-2.3-.2-3.4-.5-.8 3.5-1.5 7.8-.9 9.1 1.4 3.8 9.1 6.6 9.1 6.6s-2.8 9.9 1.9 14.8c3.3 3.5 13.2 5.7 13.2 5.7s-1.9 6.6-.5 10.5c1.4 3.8 9.9 7.1 9.9 7.1s-1.3 3.1.7 7c1.9 3.8 19.2 9.1 19.2 9.1s6.5 36.3 7.8 40.8c1.3 4.4 21.1 23.3 21.1 23.3 8.7 29.6 16.5 36.3 16.5 36.3s.2-.1.5-.3c-2.6-5.9-4.9-12.3-6.9-18.6-1.6-6.3-3.3-14-4.6-21.8z"/><path fill="#2E2A25" d="M444.8 372.1l79.2 3.8-68.7-15.1c.3-.3.8-.7 1.2-1.2.7-.7 1.3-1.4 1.9-2l75.1-9.7-70-3.4c-.1-1.4-.6-2.6-1-3.6-.3-.7-.7-1.3-1.2-1.9l69.7-34.1-88.8 24.9c-2.9-.5-6.1-.8-9.6-1l34-53-33.8 29.8-29.3 24.4c-1.9.2-3.8.5-5.8.8l-17.5-65.2-5.5 41.4-4.3 29.6c-.9.2-2 .5-2.9.8l-22.9-11.6-53.3-27.1 44.6 49.9c-.6.2-1.3.6-1.9.8l-54.9-3.4c0-6.8 0-26.6-.7-31.3-1.4-9.6-28.8-42.6-28.8-42.6s5.8-15.3 6.3-30.9c.2-6.9-3.6-28-4.5-28.9-2-2-10.6-7-14.1-7.2-1.4-.1-2.8-.1-4.2-.1 12.7-10.4 15.4-19.8 15.8-23.5.8-5.9-1.3-11.2-5.4-14-1.7-1.2-3.7-1.7-5.8-1.9-1-13-1.3-24.2-1.6-36.7l-1.2-22.1-6.8 4.1-28.5 19.1L90 159.9l-10 .5c8.2 9.4 18.3 22.4 25.2 29.9 5.4 6.1 10.9 12.2 17 19.2-1.2 1.7-2.2 4-2.8 6.4-1.4 5.4 1.6 10.4 5.4 13.9 3.4 3.1 8.2 5 14.6 5.6-.2 1.3-.2 2.4 0 3.3 1.4 3.8 9.1 6.6 9.1 6.6s-3.5 10.1 1.9 14.8c3.6 3.1 14.6 5.7 14.6 5.7s-1.9 6.6-.5 10.5c1.4 3.8 9.9 7.2 9.9 7.2s-1.3 3.1.6 7 20.5 9.6 20.5 9.6 5.4 35.8 6.6 40.2c1.3 4.4 20.9 24.2 20.9 24.2 1.3 7.8 3 15.5 4.7 21.8 8.2 26.8 25 54.3 25 54.3-9-11.3-16.3-24.8-21.7-36-2.8 4-9.4 14.3-13.4 28.4-3.3 11.6-2.6 24.1-1.6 31.7 51 53.6 101.1 89.9 114.4 99.1 16.4-9.4 85.7-51 148.3-116-7.9-3.4-26.7-7.7-26.7-7.7s.7-4-.9-9.3l-25-1.5s5-13.2 5.4-17.4c.5-6.2-2-14-2-14s3.5-1.4 5.4-6.9l-.6-6.4c2.3-1.4 9.2-6.7 10.5-12.5zm-144.4 2.2c-1.6-.3-3.4-.6-4.5-.7-2.2-3.8-4.7-7-6.9-9.4l14.9 5.1c-1.6 1.7-2.7 3.3-3.5 5z"/><path fill="#FF671B" d="M115.7 176.4s-13.3-7.7-23.5-11.8l-.2-.1-1.7-2.4.6-.5-.7.3c-2.8-4.8-5.7-10.6-8.7-17.9-5.6-13.3-14.4-15.1-22.4-17-7.5-1.7-11.9-8.6-14.6-14.8-2.7-6.3-3.5-12-3.5-12l-.3-2.6 1.6 2c6.8 8 14.6 11.9 21.3 11.9.5 0 1 0 1.5-.1.5 0 .9-.1 1.4-.1 8.2 0 13.9 6.5 15.6 8.7 1-1.4 1.5-3 1.5-4.9 0-1.7-.3-3.5-.8-4.8-.3-1.3-.8-2.1-.8-2.1-3.8-9.9-9.3-10.7-16-11.4-6.5-.7-14.1-1.2-20.3-10.6-4-5.9-5.4-11.6-5.4-16.7 0-11.6 7.3-19.8 7.5-19.8l.8-.8.5 1C54.7 62.2 60 65.4 65.9 65.4c7.1 0 15.5-5 25.4-5 1.6 0 3.4.1 5.2.5 7 1.4 14.9 5.1 19.2 7.3-5.4-7.2-7.1-14.2-7.1-19.9 0-9.3 4.4-15.5 4.4-15.6l.5-.7.6.7c11.1 11.6 31.8 13.9 51 15.5 19.7 1.6 38.2 12.7 50.6 30.1 8.2 11.4 12.5 24.5 13.3 37.5v.1l-7.6 25.5-.8-.3c-5-2.2-17.7-8.4-21-10l-9.7 28.8-.8-.3c-5.8-3-20.3-10.7-23.8-12.5-1.4 3.6-7.6 19-9.9 24.6l-.3.8-.7-.3c-6.4-3.5-23.6-13-27.1-15.1l-11.3 20-.3-.7z"/><path fill="#2E2A25" d="M183.9 111.5l-1.3.3-.2-.7-.2-.6c-1.4-4.5-3.1-8.9-5.1-12.8l-.7-1.4.8-.2.7-.2c7-2.6 13.5-3.8 19.2-3.8 4.9 0 9.3.9 12.9 2.9.9.5 1.7 1 2.6 1.6-.9-1.3-2.1-2.3-3.5-3.3-3.1-2.1-7.3-3.1-12.5-3.1-5.6 0-12.1 1.3-19.3 4l-1 .3-.3-.6-.2-.5c-1.5-2.7-3.6-5-5.5-7.3l-1.6-1.9-1.2-1.4.9-.5.6-.3c5.7-2.7 9.2-5.6 11.3-8.4-2.7 2.6-6.8 5.2-12.7 8l-.9.5-.3-.3-.3-.3c-4.2-4.5-8.9-8.2-13.9-10.8 4.3 3 8.4 6.6 12 10.8l1.3 1.4-.9.3-.8.3-.5.2c-.3.1-.6.2-1 .3-8.9 3.3-17.5 4.9-25.4 4.9h-1.4c1.5.1 3.1.2 4.8.2 5.7 0 12.1-.9 19.3-3.1 1.9-.6 3.7-1.3 5.5-2l.9-.5.3.5.3.3c2.3 3 4.5 6.3 6.5 9.8l.7 1.4-.8.3-.7.2c-1.3.6-2.8 1.2-4.4 2-19.2 9-38 27-47.4 43.6 9.8-15.3 25.6-29.9 44.1-40 2.8-1.5 5.6-2.9 8.6-4.2l1.2-.5.3.6.2.6c2.1 4.2 4 8.6 5.5 12.9l.5 1.3-.7.2-.6.2c-8.7 3.4-16 9.2-20.3 16.3-.8 1.3-1.4 2.4-2.1 3.5.7-.9 1.3-1.9 2-2.8 5.4-7.1 12.5-12.6 20.6-15.8l1.4-.6.2.8.2.7c2.1 6.4 3.6 13 4.8 19.9-.3-7.1-1.4-14.1-3.1-20.6l-.3-1.3.7-.2.6-.1c3.7-1 7.3-1.6 10.7-1.6 6.1 0 11.6 1.6 16 4.8-.7-.7-1.5-1.4-2.4-2-3.8-2.6-8.7-3.8-14.2-3.8-3.4.2-6.9.7-10.5 1.6z"/><path fill="#003DA6" d="M123.2 189.5l10.7-17.6-4.1-8.5-11.2 19.6-23.2-11.5 31.7 34.1c4.4 3.5 9.9 4.3 9.9 4.3l-13.8-20.4zm18.3 25.4c-6.5-.2-11.9-4.9-11.9-4.9-2.4-1-11.3 15 11.8 18.5v-.3c-5.6-6.4-2.1-11.2.1-13.3z"/><path fill="#6ECDB2" d="M455.1 347.5c1.4.8 2.1 2.2 2.1 3.6-.1 4.3-5.6 9.3-10.9 11.6l-.7.3-.2-.8s-.3-1.2-1-2.3c-.7-1.2-1.7-2.2-2.7-2.1h-.3l-.2-.1-1.7-.6 1.6-.8c2.1-.9 4.3-2 5.2-2.4 1.4-.6 4.3-2.3 4.8-3.1v-.1l-.5-.2c-.3-.1-.9-.2-1.5-.2-3.1 0-7.8 1.9-9.6 2.7-.9.5-3 1.4-5 2.3l-.2.1h-.2c-1.2-.2-2.4-.5-3.7-.7l-2-.2 1.7-1c1.9-1.2 4.2-2.7 5.1-3.3.5-.3 1.3-.9 1.9-1.6.6-.7 1-1.5 1-1.9 0-.2 0-.3-1.3-.6h-.6c-3.7 0-8.6 3.4-10.3 4.4-.9.6-3.6 2.3-5.6 3.5h-6.2l1.4-1.3c1.3-1.3 3.3-3.1 4-3.7.5-.5 1.3-1.7 1.3-2.4 0-.3-.1-.5-.3-.7-.2-.2-.8-.3-1.7-.3h-.3c-4.8.2-8.6 4-9.7 5.1-.8.7-2.9 2.8-4.3 4.1l-.2.2h-.2c-1.2.1-2.3.2-3.4.5l-1.4.1.6-1.3c.6-1.2 1.5-3.3 2-4 .1-.1.2-.6.2-.9-.1-.9-.2-1.7-2.6-1.9-.5 0-.9 0-1.4.1-5.2.8-7.3 4.4-7.8 5.4-.3.7-1.4 2.9-2 4.1l-.1.3-.3.1-3.5.7-.7.1-.1-.7c-.2-1-.6-2.9-.7-3.6-.1-.5-.7-2.3-3.8-2.3-.7 0-1.5.1-2.4.3-4.9 1.3-5.5 4-5.5 4.9v.2c.1.6.5 2.6.7 3.5l.1.7-.7.2c-1.2.3-2.3.7-3.4.9l-.3.1-.3-.2c-.9-.8-2.7-2.2-3.3-2.8-.6-.5-2.2-1.9-5.1-1.9-1 0-2.2.2-3.5.6-3 1-3.5 2.3-3.5 3.1 0 .6.3 1.2.5 1.3.6.5 2.1 1.7 3.1 2.6l.9.8-1.2.5c-1.2.5-2.2.8-3.3 1.3l-.2.1-.2-.1c-1.6-.6-4.3-1.4-5.2-1.6-.9-.3-3-1-5.6-1-1.5 0-3 .2-4.7 1-1.7.8-2.1 1.6-2.1 2-.1.7 1.2 1.7 1.7 1.9.9.2 3.4 1 5 1.6l1.7.6-1.6.8c-.9.5-2 1-2.8 1.5l-.2.1h-.2c-2.2-.2-5.6-.5-6.8-.6-.5 0-1-.1-1.9-.1-2.6 0-6.5.3-9.2 2.1-.5.3-.8.6-.9.7l-.1.2.1.1c.2.1.5.3.9.5.8.2 1.7.5 2.4.5 1.3.1 4.7.5 7 .7l1.9.1-1.5 1.2c-1 .8-2 1.6-2.9 2.6l-.2.2h-.3s-2.7-.2-5.7-.6c-3-.5-6.4-1-8-2.1-.5-.3-.9-.7-.9-1.4 0-.3.1-.6.2-.8 4.7-7.1 20.4-15 39.8-21.8s42.6-12.2 61.9-14c3.3-.3 6.5-.5 9.8-.5 14.4.2 27.4 3 32 5.8M334.6 392.8c-2.1-1.7-4-4.1-4-6.6v-.8l.1-.7h1.3v.7h-.1.1v-.7h.3l.2.3c2.2 3 6.1 6.5 12.8 7.1l1.5.1-1 1.2c-1 1-2.4 2.2-4.3 2.3h-.3c-2 0-4.5-1.2-6.6-2.9zm11.7-9.2c-.5-.9-.6-2-.6-3 0-2.6 1-5 1.7-6.3l.9-1.9.5 2c.8 3.5 3.3 10.1 10.3 12 .2.1.5.1.7.2.1.1.5.3.5.8l.1.7-.7.1c-1.3.2-2.4.3-3.6.3-4.6.1-8.3-1.6-9.8-4.9zm-3.1 33c-1.5-1.5-3.4-3.3-4.5-3.7-1.2-.5-2.7-.7-3.8-.7-1.2 0-2.1.1-2.1.1l-1.6.2.9-1.4s.7-1 1.6-2.1c.9-1 2.1-2.2 3.6-2.2.9 0 1.6.6 2.6 1.3.9.8 2 1.7 2.9 3 2 2.3 3.8 5.2 4.4 7.8l-1.3.7c.1 0-1.2-1.4-2.7-3zm-9.9-4.6l-.6-.3.6.3zm68.8 93.7s3.6-7.3 7.3-16.8c3.7-9.6 7.7-21.2 8.4-29.9.1-1.4.1-2.8.1-4.2 0-2.7-.1-4.8-.1-4.8h.7l.7.1-.7-.1h-.7v-.2c1-5.6 5-12 5-12l.2-.3h.3s2-.1 5.1-.1c3.8 0 9.4.2 15 1.2l.6.1v2.2c0 5.7-1.5 25.4-20 47.6l-1.3-.8s1-2.2 2-5.8c.9-3.4 1.9-7.9 2-13-3.8 7.5-14.7 28.1-23.5 37.7l-1.1-.9zm38-31.5s.5-.5 1.2-1.5c.8-1 1.9-2.7 2.9-4.9 2.3-4.4 5-11.2 6.4-20.4l.1-.8.7.1s3 .6 6.2 1.3c3.3.7 6.6 1.5 7.8 2.2l.8.5-25.2 24.5-.9-1zm-56.9 14.1c-6.3 0-12.9-2.7-19.6-7.8l.5-.6.3.6-.3-.6-.5.6-.8-.7 21.1-12.9.3.1c4.2 1.5 7.7 2 10.3 2 2.9 0 4.7-.6 5.4-.8.2-.1.3-.1.3-.1l1.7-.9-6.5 17.5-.2.1c-3.7 2.2-7.8 3.5-12 3.5zm-29.1 13.5c-6.3-6.4-8-14.8-8-22.1 0-9.2 2.8-16.7 2.8-16.8l1.4.1s.7 5.2 2.8 11.3 5.6 12.9 11.1 16.1c5.4 3.1 10.6 4.4 16.1 4.4 6.2 0 12.8-1.6 20.2-4.5l1.4-.6-.5 1.5c0 .1-5.1 16.4-19.2 22h-.1s-1.2.2-3.1.2c-5 .3-14.9-1.3-24.9-11.6zm-75.8 6.2l-.2-1.5c20.7-5.7 32-20.7 38.2-33.1 3-6.2 5.6-14.3 7.3-21 1.7-6.6 2.7-11.8 2.7-11.8h1.5c1.2 5.1 1.6 10.1 1.6 14.9 0 23.5-12.1 41.9-20.4 46.9-8.7 5.1-25.6 5.4-29.8 5.5h-.9zm-19.1-12.5c-3.6 0-5.5-.9-5.6-1h-.1L223.6 466v-.2s-1.5-7.6-1.5-16c0-4.1.3-8.4 1.4-12.2 2.8-10.1 6.6-16.5 6.8-16.7l.7-1.2 6.2 11.9-.3.3s-.1.1-.3.6l-1 2.1c-.8 2-1.9 5.1-2.4 9.9-.2 1.9-.3 3.7-.3 5.6 0 4.3.6 8 1.2 10.7l.3 1.4c.6-2.8 1.4-7 2.3-10.5 1.4-5.8 4.2-14 4.2-14l.6-1.7 6.1 12.3v.2c-.6 2.7-1 6.9-1 11.4 0 7.3 1.5 15.3 6.4 18.9 1.4 1 3.1 1.6 5.1 1.6 11.8.1 32.1-17.6 41.5-34.5 7.2-12.8 8.6-34.5 8.6-43.2 0-1.7 0-2.9-.1-3.4-.2-1.5-1.2-4.2-2.1-6.3-.9-2.2-1.7-4-1.7-4l1.2-.8 8.6 7.7v.1c.1.1 3 4.5 4 15.6.1 2 .3 4.7.3 7.8 0 13.9-3.5 37.2-26.3 58.7-15.7 14.6-26.7 17.4-32.9 17.4zm44.9-106.2l.5-.6-.5.6zM190.9 263.6c-.3-.2-.7-.7-.7-1l-.6-2.8c-14.7-1.9-28.1-7.6-28.1-7.6l.5-1.4c13.5 3.5 23.5 4.4 24 4.4 2.7 0 7.7-1.7 11.9-3.5 4.3-1.7 7.8-3.6 7.8-3.6l.1-.1h.2c1.7 0 2.9.3 3.8.9.8.6 1.3 1.5 1.3 2.3-.1 2.6-2.6 5.1-3 5.6l-.1.2c-.5.5-1.2.9-2.3 1.6-1.2.7-2.8 1.5-4.4 2.3-3.4 1.5-6.9 3-9.1 3-.5.1-.9-.1-1.3-.3zm-29.4-11.4l.2-.7-.2.7zm18-3.1c-1.6-.6-2.2-2.3-2.7-4.2-.3-1.6-.5-3.5-.5-4.9-2.6-.6-13.2-3.1-16.7-4.7-.6-.2-1-.3-1.4-.8l.6-.5-.6.5-1.2-1.5 1.9.3s10.9 2 21.7 2.2h.1l.1.1s.2.1.8.2c.6.1 1.4.3 2.4.3 1.2 0 2.7-.2 4.5-.8 4.5-1.6 7.3-2 7.3-2h.3s1.3.5 2.6 1.3 2.7 2.1 2.7 4c0 2.3-2 4.5-7.5 7.3-1.7.8-10 3.3-13.6 3.3-.1 0-.5 0-.8-.1zm35.7 17.4c-.5-.3-1.2-.6-1.9-.6h-.9s-3 1.3-6.3 2.6-7 2.4-7.8 2.4c-2.3 0-5.4.3-14.7.3h-2.3l1.9 1.4c.1.1 3.5 2.3 11.2 2.7h1.4c1.2 0 2.3 0 3.6-.1l.3 2 .5 2.6.8-.3s2.2-.8 4.7-1.9c2.4-1 5.1-2.2 6.3-3.3 2.6-2.4 4-4.5 4.1-6.3-.1-.4-.3-1.1-.9-1.5zm-12.1 21.2v-.6l.5-.2c3-1.2 9-4.1 9.7-4.3 2.3-1.7 3.6-2.6 4.9-2.7.3 0 .8.1 1.2.5.2.3.3.7.3 1 0 1.5-1 3.5-2.4 5.4-1.2 1.7-3.5 3.4-5.8 4.8s-4.7 2.3-6.3 2.4c-.5 0-.9-.1-1.3-.3-.3-.2-.6-.8-.6-1.3v-.1l-.2-4.6m73.2 164c-17.7-25.2-32.7-71.2-32.8-71.2l-.5-1.4 1.4.5s.5.1 1.2.3c.7.1 1.5.3 2.2.3.6 0 .9-.1 1.2-.2.2-.1.3-.2.3-.7v-.5c-1.2-6.1-4.9-17.8-5.5-19.7-.6-.3-2.2-1.5-4.3-2.7-2.6-1.4-5.6-2.9-7.6-3h-.3l-.2-.3s-7.5-11.8-11.2-21.7c-.9-2.7-1.2-5.6-1.2-7.9 0-2.4.2-4.3.2-4.3l.2-1.3 1 .9.2.2c.2.1.5.3.9.6.8.5 2 .9 3.6 1h.3l7.2 12.6-.2.3c-.8 1.5-1.3 3.3-1.3 5.1 0 3 1.2 5.9 3.4 8 2.1 2.1 5 3.4 8 3.4s5.9-1.2 8-3.4c2.1-2.1 3.4-5 3.4-8s-1.2-5.9-3.4-8c-.9-.9-2.1-1.7-3.3-2.3l-.3-.1-3.1-17 .2-.2c.3-.6.7-1 .9-1.7 1-2.8 1.4-5.1 1.4-7.1 0-6.4-4.5-8.6-6.4-9.4l-.3-.1-9.7-41.8.1-.2s1.4-3 3-7.5c1.4-3.7 2.8-8.3 3.6-12.6-2.4 2.2-7.3 5.9-13.3 5.9h-.3c-6.1-.2-11.8-4.2-12.9-7.2-.1-.5-.2-.9-.2-1.3 0-1 .6-1.9 1.4-2.4.8-.6 1.7-.9 2.9-1.3 2.2-.7 4.9-1.5 7.2-3.3 0 0 5.7-3 10.9-7 .5-.3 1-.5 1.5-.5 3.6 0 10.9 4.1 10.9 4.1l.2.1.1.1c.9 1.5 1.5 4.4 2.1 7.7.5 3.1.8 6.4.8 8.2v.7c0 .5.2 3.1.2 7 0 8.2-.8 21.3-6.2 29.7 2.8 4 25 34.4 29.1 46.2v.2s.6 13.4.6 23.4c0 4.2-.1 7.7-.3 9.6l4.1 12 5.6 5.7v.1c5.5 8.2 13.2 22.6 15.7 30.5.3.6 2.2 4 2.2 11.3 0 5-.8 11.8-3.5 20.7-5.5 18.5-18.8 21.1-19 21.1l-.5.1.4-.3zm108.3 8.9c-10.3-4.4-22.4-14.6-26.1-21.8v-.2s-.8-10.1-.8-19.9v-2.1l-7.5-9.2.1-.3s2.4-7.6 4.3-14.4l.1-.2 1-.7h.1c4.7-.7 6.1-1.6 8.4-3.6l.2-.2h.3c1.5.2 2.9.3 4.2.3 8.3 0 12.2-3.8 13.3-5.7l.2-.5.5.1c1.7.2 3.4.3 5.1.3 6.8 0 13.9-1.7 22.8-4.7l.3-.1.3.2c2.8 1.9 9.4 5.7 18.6 7.1l.6.1v.6c.1 1.3.2 2.7.2 3.8 0 1 0 2.1-.2 2.9l-.7-.1.3.7s-8 5-14.7 6.6h-.2l-3.1-.9c.5 2 1.3 5.9 1.6 8.2l4.2 1.2c1-.5 5.2-2.2 7.5-3l.7-.2.2.8s.8 2.9.8 6.2c0 .7 0 1.4-.1 2.1v.1s-3 10.8-7.1 18.5c0 0-1.7 3.6-3.4 7.7-1.7 4-3.5 8.6-3.5 10-.3 7.2-3.5 9.8-3.7 9.9h-.1c-2.6 1.3-7.7 2.9-13.7 2.9-3.1-.2-7.1-.9-11-2.5zm16.9-13.2l.7 1.5 5.9-.8.5-1.4-7.1.7zm-6.2-7.7l11.5 1.2 5.8-2.3c-.7-.3-1.5-.7-2.4-.8l-2.9 1.7-2.3-1.5-2.3-.3-7.4 2zm11.6-6.8l5-5.2-5.2.3-2.6-2-3.3 1.9h-1.5l7.6 5zm-7.1-20.4l3.6 2.1-.5-14.2.7-2.4-2.8 1.2-21.4-4.3-10 5.4 5.8 1.3-3.4 3.4 20.5 4 6.4-3 1.1 6.5zm-71.4 143.4s-1.9-1.3-4.8-3.3l-1.2-.8 1.3-.5c10.4-4 16.7-12.8 19.1-17.2-8.6 5.1-17 6.9-24.5 6.9-4.8 0-9.1-.7-12.9-1.6h-.1l-.1-.1c-7.1-5.5-14-11.2-17.4-15.1l-1-1.3h1.6s1.6 0 5-.5 8.6-1.5 15.6-3.5c7.2-2.1 13.3-5.6 17.7-8.6 4.3-3 6.9-5.5 6.9-5.5l.7-.7.5.8s.7 1.2 2.1 3c1.4 1.9 3.5 4.3 6.4 6.9 5.7 5 14.3 9.9 26.2 9.9 2.2 0 4.5-.1 6.9-.6l2.7-.5-2.1 1.7s-23.5 19.8-47.9 30.5l-.3.1h-.4zm112.1-189.1c.3.8.5 1.6.5 2.3 0 3.3-2.3 5.9-4.5 7.8-2.2 2-4.4 3.1-4.4 3.1l-.2.1h-.2c-1-.1-2-.2-2.9-.3l-2-.3 1.7-1c1.5-.9 1.9-2.2 2-3.6 0-.8-.1-1.6-.3-2.3-1.2 3.4-4.1 4.7-6.8 4.5-3.6 0-7.2-1.6-7.2-1.7l-1-.5.9-.7c1.5-1.2 2.1-4.7 2.1-7.8 0-3.5-.6-6.6-.6-6.6l-.1-.9h.9s4.9.2 10 1.4c4.9.9 10.5 2.8 12.1 6.5"/><path fill="#6ECDB2" d="M370.5 384.5c-2.1 0-3.8-.6-4.1-.7-3.4-.9-8.6-4.7-8.6-11.3 0-1 .1-2.1.3-3.1l.1-.3.3-.1c4.5-1.7 9.8-3.6 15.5-5.2 10.4-2.9 27.8-4.5 37-4.9h.5l.2.3c1.5 2.6 2 5 2 7.1 0 5-2.9 8-3 8.2l-.1.1h-.1c-3.1 1.2-6.2 2-9 2.7h-.2c-3.1-.7-7.9-2.7-9.6-7.7l-.3.7c-.6 1.4-1.2 3.1-1.2 4.7 0 1 .2 1.9.8 2.6l1 1.3h-1.6c-8.4 0-14.2-3.5-16.4-9.7 0 .1-.1.2-.1.3-.5 1.3-.9 3.1-.9 4.9 0 2.6.8 4.9 3.8 6.5l.9.5-.7.7c-2 2-4.4 2.4-6.5 2.4zm-36.1-23.4c-2.7-.8-3-2.9-3-3.4v-.2l.1-.3.3-.1c16.3-7.7 36.7-15.7 70.4-20.6 8.3-1.2 15.4-1.6 21.5-1.6 13.9 0 22.1 2.3 25.2 3.3 2.2.7 4.1 1.7 5.4 2.9 1.4 1.2 2.3 2.1 2.6 3l.5 1.9-1.6-1c-1.5-1-11.5-4.9-22.5-4.9h-3.4c-10 0-20.5.2-40.1 3.8-21.7 4-43.6 11.9-54.7 17.4l-.2.1-.5-.3zm85.9-32.3l29.4-34.7-38.8 35.3c3.3-.2 6.4-.4 9.4-.6zm-58.4 10.3l-42.2-21.7 32.6 24.7c3.2-1 6.3-2.1 9.6-3zm101.2 9.5c-.2 1.3-.8 2.7-1.5 4.2l46.6-4.2h-45.1zM451.6 364c-1.4 1-2.9 2.2-4.4 3.3L492 371l-40.4-7zm-57.4-31.8l-6.5 1-6.5-53.8 13 52.8zm53.4 0l6.2 1.9 51.5-18.8-57.7 16.9zm-122.9 21.7l-43.3-3 35.4 7.7c2.4-1.6 5.1-3.2 7.9-4.7zm-171.5-171l9.9 4.1 8.5-24.1-3.3-9.1c-3.4 8.7-10.3 25.3-10.3 25.3l-28.2-15.6L144 193l9.2-10.1z"/><path fill="#fff" d="M232.5 172.4s-8.3 24.1-43.9 35.6c0 0-4.1 8.6 3.6 11.6 61.8-21.5 55-56 40.3-47.2zm-61-9.7l2.9 8.2 7.7 21.5 8.7-21.7 7.5 2.9 8.9-28.7 6.6 26.8 9-17 5.7 4.9-.1-.7 2.4-9.4c-.3-6.9-.5-13.5-.6-20.6 0 0-5.6 18.8-5.6 18.9 0 0-14.8-6.6-22-10.1l-.2.8-9.4 28s-16.5-8.5-24.7-12.9v.1l3.2 9zm100.9 204.8s12.6 14.8 19.3 32c0 0 2.2 10.8 0 17.5 0 0-14.4-40.7-19.3-49.5zm138.7 31.2l4 25.5-5 .7 1-26.2zm13.3 10.1l.1 4.1-6.8.7 1.7-4.4 5-.4zm9.9 33.6h6.1s-1.4 14.1-8 25.2c-.1.1 6-12.7 1.9-25.2zm-29.9 9.8l4.3-.7s2 5.9-4.7 7c0 0 3.8-2.9.4-6.3zm38.9-114.9c-1.6-.3-3.5-.7-5.7-.9l.3 3c2 .2 3.8.5 5.6.8l-.2-2.9zm-178.6-20.8s-11.6-21.9-24.1-39.4L239 283c0 .1 19.4 24.5 25.7 33.5zm-50.1-56.1s9.4-10.7-1.2-17.8c0 0 4.9 3.4 10.9 3l12.2 50.1s-.2 1.6-2.1 3.6c-1 1.2-2.7 2.3-5.1 3.4-4.5 2-10.9-.3-10.9-.3l-3.4-7.1s5.1-2.2 8.5-9.4c4.9-10.5-5-11.8-5-11.8s6.5-12.1-3.9-13.7zm30.6 76c-.5-.5-.9-.7-1.5-.8-.2-2.9-4.1-16.1-4.1-16.1l-6.8 2.7L240 337c-.3.5-.5 1-.5 1.6 0 .8.3 1.6.9 2.3.6.6 1.4.9 2.3.9 1.7 0 3.3-1.4 3.3-3.3.1-.6-.3-1.4-.8-2.1zm-11.1-23.6c-5.2 2.1-16 .3-15-5.4 3.6 1.6 7.9 2.1 12.8.1 5-2 7.5-4.7 8.9-8.6 1.6 1.7 1.5 5.2.6 7.3-1.5 3.4-4.4 5.4-7.3 6.6z"/><path fill="#6ECDB2" d="M161.5 214c-6.3 5.8-3.1 11.1.1 14.1 11.9-1.5 33.3-9.4 33.3-9.4-7.6-3-4.7-11.2-4.7-11.2-10.5 3.7-23 5.9-28.7 6.5zm68.7 87.9l-6.5-17.6c-.1.3-.2.8-.5 1.2-1.3 2.7-2.7 4.7-4.1 6.2l4.4 11.5c1.9.1 3.8 0 5.6-.7.4-.2.8-.3 1.1-.6z"/></svg>