<svg baseProfile="tiny" xmlns="http://www.w3.org/2000/svg" viewBox="0 0 650 650"><path fill="#FFD520" d="M205.3 288.8c-15.2 6.2-34.6 11.6-29.8 25.9 2.7 7.9 8.7 13.7 16.2 16.2-9.1-1.5-20.6-9.7-23.6-19-4.3-13.3.1-21.3 19.9-30.1.1 0 .1 0 .2-.1L315.8 231v-17.2l-99 40.8 99-44.8v-10.6l-115.3 49.6 115.3-54.3v-9.8l-131.4 56.6 131.4-61.9v-9.7L168.4 235l147.4-71.3v-19.4L116.7 241v.1c-17.6 8.4-30.5 25-30.5 45.6s12.6 38.2 30.5 45.6l88.5 27.5v-71h.1zm183.5-160.5c-1.4-5.9-2.1-12.2-2.2-18.6l-7 3.4v19.7l9.2-4.5zm10.8 26.6c-1-1.6-2-3.4-2.9-5.1l-17.1 7.3v7.2l20-9.4zm-14.4 23.4l23.9-10.8c-1.9-2-3.6-4.2-5.1-6.3l-24.3 10.5v3.7c.1 0 2.1 1.1 5.5 2.9zm45.6 6.9c-5.9-3.5-11.4-7.6-16.4-12.2l-22 9.1c5.4 2.8 12.2 6.4 19.9 10.5l18.5-7.4zm4.1 187.6v58.4l19.2 5.9v-47.9c-.6-.5-19.2-16.4-19.2-16.4zm-41.5-230.1c-.9-2.1-1.6-4.3-2.4-6.4l-11.4 5v7.9l13.8-6.5zm170.5 277.5l-46.2-17.1V457l8.6 2.7c.1 0 .2.1.3.1 8 2.4 11.2 7.4 9.1 13.8-1.5 4.4-7.2 8.4-11.6 9.1 3.6-1.2 7.7-3.7 7.8-7.8.2-5.9-8.7-7.4-14.1-9L56.9 649l504.3-153.1c18-5 31.5-19.2 31.5-38.2.2-17.9-12.1-32.1-28.8-37.5zM462.4 50.3c7.6-.9 15.1-2 21.4-2.9-4.2-1.6-8.6-2.9-13.3-3.7-9.8-1.7-20.1-1.3-31 1.4-5.8 3.3-11.2 7.3-15.8 12 3.8-1.3 8.4-2.3 13.5-3.3 6.3-1 15.5-2.2 25.2-3.5zm58.5 2.1c-4.5-3.7-9.4-6.9-14.8-9.3 0 .2 0 .6-.1.8-.3 1.7-1.5 4-4.3 5.7 2.3 1.6 4.7 3.4 6.9 5.2 3.9-1 8.1-1.8 12.3-2.4z"/><path fill="#fff" d="M520.2 67.1c4.4-1.2 9.1-.7 13.5 1.5.9.5 1.9 1 2.8 1.6-2.8-4.4-5.9-8.4-9.5-12.1-4.4.5-8.6 1.2-12.9 2 2.1 2.2 4.2 4.5 6.1 7zm-25.3-21.5c3.3-.8 4.7-2.1 4.9-2.9.1-.8-.5-2-1-2.6-7.4-2.6-15.4-4-23.6-4-3.1 0-6.2.2-9.2.6 2.1.2 4.1.5 6.1.8 7.9 1.4 15.7 4.2 22.8 8.1zM413 146c.7-2.3 1.5-4.7 2.3-7 .3-1 .8-2 1.2-3l.9-2.4c-4.2-8.6-6.5-18.2-6.5-28.4 0-14.4 4.7-27.7 12.6-38.4-4.7 9-7.3 19.1-7.3 29.9 0 9.7 2.1 18.7 5.8 26.9 0-.1.1-.1.1-.2.3-.8.8-1.5 1.3-2.3.8-1.4 1.5-2.9 2.4-4.3.6-.9 1-1.7 1.6-2.7.8-1.3 1.5-2.4 2.3-3.7.6-.9 1.2-1.7 1.9-2.7.8-1.3 1.7-2.4 2.7-3.6.6-.8 1.2-1.6 1.7-2.3 1.3-1.6 2.6-3.1 3.8-4.7.5-.6 1-1.2 1.5-1.7 1.4-1.5 2.8-3 4.2-4.4l2-2c1.2-1 2.2-2.2 3.4-3.3.7-.7 1.5-1.3 2.2-2 1.2-1 2.3-2 3.5-2.9.7-.6 1.5-1.2 2.2-1.7L463 76c.6-.5 1.2-.8 1.7-1.3 2-1.4 4.1-2.7 6.2-4l1.7-1c1.5-.9 3.1-1.9 4.8-2.7.8-.5 1.6-.8 2.4-1.3 1.4-.7 2.9-1.5 4.4-2.1.8-.3 1.6-.8 2.6-1.2 1.5-.7 3.1-1.4 4.8-2 .7-.2 1.5-.6 2.2-.9 2.3-.9 4.8-1.7 7.1-2.4-2.2-1.6-4.5-3.3-7-4.7-7.1 1.4-19.1 2.9-30.6 4.4-9.7 1.3-18.9 2.3-24.7 3.4-16.9 3-23.2 7.4-25.5 10.7-6.7 11.1-10.6 24-10.6 37.7 0 13.6 3.9 26.4 10.5 37.4z"/><path fill="#4D90CD" d="M539.5 213.4c-5.9 2.3-10.9 6.1-14.9 10.5-2.4-.3-5-.1-7.4.8-5.1 2.1-8.4 6.7-9 11.9 1-4.3 4.2-7.9 8.5-9.7 7.3-2.9 15.7.7 18.6 8 .8 2.2 1.2 4.5.9 6.7.8-2.9.6-5.9-.6-9-1.4-3.5-4.1-6.2-7.2-7.6 2.9-2.3 6.2-4.3 9.8-5.7 20.1-8 43.1 1.7 51.1 21.9 2.4 6.1 3.3 12.5 2.6 18.5 2.1-7.8 1.7-16.4-1.5-24.6-7.9-19.9-30.8-29.8-50.9-21.7zM325.1 82.3v440.5l45-17.7V391l.2-.3 10.1 8.8v101.6l44.9-17.8V370.4l-28-24.9 28-46.9v-87.9l-44.9-24.3V305L370 322.2V106.8l-7.2-4-.7-11.1-4.7-77.5-3.9 72.8-.5 10.3-8.1-4.4-.8-10.9-4.7-81-4.2 76.1-.6 10.4-9.5-5.2zm-10.2 298l-55.3 21.8V299.8l10.2-4.1v91.1l45-17.7V255.5L214.6 295v147.3l55.3-21.8v101.9l-10.2 4.1v-91.1l-45 17.7v113.7l45-17.8 10.2-4.1 45-17.7V380.3zm193.5-12.7l4.4-7.4h-.1l23.2-38.4v-54.2l-45-24.3v83.1l-5 8.3-5-4.4v-91L436 215v145.9l23 20.1v.1l4.4 4v83.3l45-17.7v-83.1zM236.5 101.2l-3.3 22.1 6.6-3.1-3.3-19.1v.1zm79.3-27.8v-.2c0-4.3-1.4-7.8-3.7-10.1l-.1-.1-.2-.2-2.4-2.4c-.6-.7-1.3-1.3-2.1-1.7-2.7-1.6-7.3-2.9-14.7.5-7.2 3.4-12.3 9.1-14.5 15.8-.6-.7-1.3-1.3-2-1.7-2.6-1.6-7.2-3-14.1.2-6.1 2.8-10.6 7.6-13 13.3l-.3-1.6-3.3-3.3-18.6 8.7-2.2 12.9-2.6-2.6c-.6-.6-1.2-1.2-2-1.6-2.6-1.6-7.1-2.9-14 .2-4 1.9-7.2 4.3-9.8 7.3l-1.5-1.5-18.6 8.7c-4.9 2.3-12.1 5.7-12.6 5.9l-18.6 8.7v6.3c-.2-.1-.3-.3-.5-.5-2.6-1.6-7.1-2.9-14 .2-9.7 4.5-15.6 13.3-15.6 22.9v24.7c0 4.2 1.3 7.6 3.5 10l3.4 3.4c.1 0 .1.1.1.1l.1.1c.5.5.9.8 1.5 1.3 2.7 1.6 7.3 2.9 14.7-.5 3.5-1.6 6.4-4 8.8-6.6l1.3 1.3s16.3-7.6 17-7.9l18.6-8.7 14.2-6.6v-7c.3.2.6.6.9.8 2.7 1.6 7.3 2.9 14.7-.5 2-.9 3.7-1.9 5.2-3.1l4.4-2.1c-.7.9-1.2 2-1.6 3.1-1.3 3.4-1.5 6.9-.6 10-.2-2.4.1-5.1 1-7.6 2.6-6.4 8.7-10.2 15.1-10.1h.6c1.7.1 3.5.5 5.2 1.2 1 .3 2 .9 2.8 1.5-1.2 1-2.2 2.3-2.8 4-.8 2.1-.9 4.3-.3 6.4-.1-1.6 0-3.3.7-4.8 2.1-5.2 8-7.8 13.3-5.7 3.1 1.3 5.2 3.8 6.1 6.9-.3-3.6-2.7-7-6.4-8.5-3-1.3-6.4-.8-9 .7-1.4-1.2-2.9-2.2-4.7-2.9-1.5-.6-3-.9-4.5-1 .2-1.9.8-3.7 1.5-5.6 4.7-11.8 17.3-17.8 29.3-14.7.9.2 1.9.6 2.8.9.3.1.8.3 1.2.6 7 3.3 11.8 9.2 13.6 16.2-.8-7.9-5.4-15.1-12.7-19.2 5.2-15 19.5-25.8 36.3-25.8 1.9 0 3.7.1 5.6.5l.1-28.9zm-170.7 76.9l-8.3 3.8v-3.7c0-4.1-1.9-4.9-4-4-3.4 1.5-4.4 3.7-4.4 7.3V178c0 3.6 1 4.8 4.4 3.3 3-1.4 4-3.6 4-6.7v-5.8l8.3-3.8v5.5c0 6.7-4 14.2-12.2 18-8.6 4.1-12.7.3-12.7-6.4v-24.7c0-6.7 4-14.2 12.7-18.2 8.3-3.8 12.2.2 12.2 7.4v3.7zm30.5 17.7l-8.3 3.8v-21.3l-8.7 4.1v21.3l-8.3 3.8v-47.9l8.3-3.8v19.5l8.7-4.1v-19.5l8.3-3.8V168zm14.2-6.7l-8.3 3.8v-47.9l8.3-3.8v47.9zm30.9-46.3l-8.3 3.8v-3.7c0-4.1-1.9-4.9-4-4-3.4 1.5-4.4 3.7-4.4 7.3v24.3c0 3.6 1 4.8 4.4 3.3 3-1.4 4-3.6 4-6.7v-5.8l8.3-3.8v5.5c0 6.7-4 14.2-12.2 18-8.6 4.1-12.6.3-12.6-6.4v-24.7c0-6.7 4-14.2 12.6-18.2 8.3-3.8 12.2.2 12.2 7.4v3.7zm21.5 19.2l-1-7.4-9.1 4.2-1.5 11.3-7.9 3.7 8.8-52 10.2-4.8 7.8 38.5c-2.9 1.6-5.3 3.9-7.3 6.5zm34.8-23.8c-2.2 2.8-4.1 5.9-5.5 9.3v-.1c-1.4 2.2-2.6 4-4 5.2-4.9-1.2-9.8-.7-14.3 1-.7-1.3-1-3-1-5.2V95.9c0-6.7 4-14.2 12.1-17.9 8.3-3.8 12.3.2 12.3 7.3v3l-7.8 3.6c0-7.2-1.5-8.4-4.7-6.9-2 .9-3.6 2.9-3.6 7v24.7c0 3 1 4.5 3.8 3.3 3.4-1.5 4.5-4 4.5-8.7v-4.7l-5.2 2.4v-6.5l13.5-6.3v14.1h-.1zm30.5-15.6c0 .3 0 .7-.1 1h-.2c-2.7 0-5.4.3-7.9.8V74.2c0-3.6-1-4.8-4.4-3.3-3.4 1.5-4.4 3.7-4.4 7.3v21.4c-3 1.4-5.7 3.3-8.3 5.4V81.9c0-6.7 4-14.2 12.6-18.2 8.6-4.1 12.6-.3 12.6 6.4v24.7h.1zm-248.7 369c4.3-10.8 16.5-16.1 27.3-11.8 6.4 2.6 10.9 8 12.6 14.2-.3-3.7-1.7-7.2-4-10.2 1.3-4.1 4.2-7.4 8.4-9.2 3.8-1.5 8-1.3 11.5.5-.1-.5-.1-.9-.2-1.4-.6-6.1.2-12.2 2.7-18.2 7.9-19.8 30-29.6 49.8-22.3l-6.9 10.4v76.6l-.2.1.1-.1-20.4-8.8-2.2-32.3-2.2 34.1-20 24.8h.1v96.9l45-17.8 45-17.8V397.9l-14.9-28-20.4 31.1c-.8-.5-1.7-.8-2.7-1.3-20.1-8-43.1 1.7-51.1 21.9-3 7.6-3.5 15.6-1.9 23-3.3-1.3-7.1-1.4-10.6 0-4.9 2-8.1 6.4-8.8 11.3-2.2-3-5.4-5.6-9.2-7.1-10.8-4.3-23 .9-27.3 11.8-1.7 4.3-1.9 9-.8 13.1-.4-3.3 0-6.7 1.3-9.9zm130.9-83.4l9.1 18.4-24.4 39.1-8-22 23.3-35.5z"/><path fill="#FFD520" d="M440 171.5c2.2-3.3 5.4-5.8 8.8-7.4-11.2-5.1-20.6-13.1-27.2-23.3-.2.8-.6 1.5-.8 2.3-.2.8-.6 1.5-.8 2.3-.8 2.4-1.5 4.9-2.2 7.3 5.8 7.6 13.1 14 21.5 18.6l.7.2zm25.2-12c.5-1.7.9-3.5 1.6-5.2 4.9-12.3 15.1-20.8 27-24.2 1.6-6.2 2.8-12.8 4-19.3 3.1-17.3 6.1-33.7 16.4-40.8-2.3-2.9-4.8-5.5-7.3-8-2.4.7-4.9 1.5-7.3 2.3-.8.2-1.6.6-2.4.9-1.6.6-3.1 1.2-4.8 1.9-.9.3-1.9.8-2.8 1.2-1.4.6-2.9 1.3-4.3 2-.9.5-1.9.9-2.7 1.4-1.5.7-2.9 1.5-4.3 2.3l-2.4 1.4c-2.1 1.3-4.2 2.6-6.2 4-.7.5-1.3.9-2 1.4-1.4.9-2.8 2-4.1 3-.9.7-1.7 1.4-2.6 2.1-1 .9-2.2 1.7-3.3 2.7-.9.8-1.7 1.6-2.7 2.3-1 .9-2 1.9-2.9 2.8-.8.8-1.7 1.6-2.6 2.6-.9 1-2 2.1-2.9 3.1-.8.8-1.5 1.6-2.2 2.4-1.5 1.7-3 3.6-4.4 5.5-.7.9-1.3 1.9-2 2.7l-2.4 3.5c-.7 1-1.3 2-2 3l-2.1 3.5c-.6 1-1.2 2.1-1.9 3.1-.7 1.3-1.4 2.4-2 3.7-.5 1-1 2.1-1.5 3-.1.2-.2.6-.3.8 8.7 14.2 22.8 24.7 39.4 28.9zm58.9-86.7c10.7 16.9 14.5 36.9 10.9 56.6-.6 3.4-1.5 6.5-2.6 9.8 1.9 1.7 3.6 3.6 5.2 5.6 6.2-10.7 9.8-23 9.8-36.2 0-6.2-.8-12.1-2.2-17.8-1.4-4.2-7.1-12.9-14.4-16.4-2.3-1.1-4.5-1.7-6.7-1.6z"/><path fill="#4D90CD" d="M437.1 177.7c-1 3.6-1 7.3-.1 10.8-.3-3.3.1-6.6 1.4-9.9 4.1-10.2 15.4-15.5 25.7-12.3-.3 4.5 0 9.1 1.2 13.5-.7-6.4.2-13 2.7-19.3 8.4-21.1 32.2-31.3 53.3-22.9 11.8 4.7 20 14.2 23.7 25.2-3.4-.3-7 0-10.4 1.4-7.7 3-12.7 10.1-13.5 17.9 1.6-6.4 6.3-12 12.9-14.5 11.1-4.4 23.6.9 28 12 1.4 3.4 1.7 6.9 1.4 10.1 1.2-4.3.9-9-.8-13.5-3-7.6-9.8-12.5-17.2-13.4-.7-4.2-2.1-8.3-4-12 7.8-12.2 12.5-26.8 12.5-42.4 0-6.7-.8-13.3-2.4-19.4-8.7-34.1-39.7-59.3-76.4-59.3-28.4 0-53.3 15-67.1 37.6-.1.1-.1.2-.2.2-7.3 12-11.5 25.9-11.5 41.1-.2 29.7 16.5 55.7 40.8 69.1zm-19.5-24.9c.7-2.4 1.4-5 2.2-7.3.2-.8.5-1.5.8-2.3.2-.8.6-1.6.8-2.4v.1c6.6 10.1 16.2 18.2 27.2 23.3-3.5 1.5-6.5 4.1-8.8 7.4l-.8.1c-8.2-4.9-15.5-11.3-21.4-18.9zm8.1-22.2c.1-.2.2-.5.3-.8.5-1 1-2.1 1.5-3 .7-1.3 1.3-2.6 2-3.7.6-1 1.2-2.1 1.9-3.1l2.1-3.5c.7-1 1.3-2.1 2-3l2.4-3.5c.7-.9 1.3-1.9 2-2.7 1.4-1.9 2.9-3.7 4.4-5.5.7-.8 1.5-1.6 2.2-2.4.9-1 1.9-2.1 2.9-3.1.8-.8 1.6-1.7 2.6-2.6.9-.9 2-1.9 2.9-2.8.9-.8 1.7-1.6 2.7-2.3 1-.9 2.1-1.9 3.3-2.7.8-.7 1.7-1.4 2.6-2.1 1.4-1 2.8-2 4.1-3 .7-.5 1.3-.9 2-1.4 2-1.4 4.1-2.7 6.2-4L478 74c1.4-.8 2.8-1.6 4.3-2.3.9-.5 1.9-.9 2.7-1.4 1.4-.7 2.8-1.4 4.3-2 .9-.3 1.9-.8 2.8-1.2 1.6-.7 3.1-1.3 4.8-1.9l2.4-.9c2.4-.8 4.9-1.6 7.3-2.3 2.7 2.4 5.1 5.1 7.3 8-10.2 7.1-13.3 23.5-16.4 40.8-1.2 6.5-2.3 13.1-4 19.3-11.9 3.4-22 11.9-27 24.2-.7 1.7-1.2 3.5-1.6 5.2-16.3-4.2-30.4-14.7-39.2-28.9zm103.1-2.3c-.5 2.3-1 4.5-1.6 6.7-2.2-1.4-4.4-2.7-6.9-3.6-6.4-2.6-13-3.4-19.4-2.7 1.3-5.5 2.3-11.2 3.4-16.9 2.9-16.1 5.6-31.2 13.8-36.8 10.3 15.8 14.2 34.7 10.7 53.3zm16.5-37.6c1.5 5.7 2.2 11.6 2.2 17.8 0 13.1-3.6 25.6-9.8 36.2-1.5-2-3.3-4-5.2-5.6 1-3.1 1.9-6.4 2.6-9.8 3.7-19.8-.2-39.7-10.9-56.6 2.2-.1 4.4.3 6.7 1.5 7.3 3.6 13 12.4 14.4 16.5zm-8.8-20.5c-.9-.6-1.9-1.2-2.8-1.6-4.5-2.2-9.1-2.7-13.5-1.5-1.9-2.4-4-4.8-6.1-7 4.2-.9 8.5-1.5 12.9-2 3.5 3.6 6.8 7.7 9.5 12.1zM506 43.9c0-.2 0-.6.1-.8 5.2 2.6 10.2 5.7 14.8 9.3-4.2.6-8.3 1.4-12.3 2.4-2.2-1.9-4.4-3.6-6.9-5.2 2.8-1.7 3.9-3.9 4.3-5.7zM475 36c8.3 0 16.3 1.4 23.6 4 .6.6 1.3 1.7 1 2.6-.2.9-1.6 2.1-4.9 2.9-7.1-3.8-14.9-6.5-23-8-2-.3-4-.6-6.1-.8 3.2-.4 6.3-.7 9.4-.7zm-35.2 9.2c10.8-2.8 21.2-3.3 31-1.4 4.5.8 9 2.1 13.3 3.7-6.3.9-14 1.9-21.4 2.9-9.8 1.3-19 2.4-25 3.5-5.1.9-9.7 2-13.5 3.3 4.4-4.8 9.7-8.7 15.6-12zm-26.7 25.6c2.3-3.3 8.7-7.7 25.5-10.7 5.8-1 15-2.2 24.7-3.4 11.6-1.5 23.6-3 30.6-4.4 2.4 1.4 4.8 2.9 7 4.7-2.4.7-4.8 1.6-7.1 2.4-.7.2-1.5.6-2.2.9-1.6.6-3.1 1.3-4.8 2-.8.3-1.6.8-2.6 1.2-1.5.7-2.9 1.4-4.4 2.1-.8.5-1.6.8-2.4 1.3-1.6.8-3.1 1.7-4.8 2.7l-1.7 1c-2.1 1.3-4.1 2.6-6.2 4-.6.3-1.2.8-1.7 1.3l-4.2 3.1c-.7.6-1.5 1.2-2.2 1.7-1.2.9-2.3 2-3.5 2.9-.7.7-1.5 1.3-2.2 2-1.2 1-2.2 2.1-3.4 3.3-.7.7-1.4 1.3-2 2-1.4 1.5-2.8 2.9-4.2 4.4-.6.6-1 1.2-1.5 1.7-1.3 1.5-2.7 3.1-3.8 4.7-.6.8-1.2 1.6-1.7 2.3-.9 1.2-1.7 2.4-2.7 3.6-.6.9-1.2 1.7-1.9 2.7-.8 1.2-1.6 2.4-2.3 3.7-.6.9-1.2 1.7-1.6 2.7-.8 1.4-1.6 2.8-2.4 4.3-.5.8-.8 1.5-1.3 2.3 0 .1-.1.1-.1.2-3.7-8.1-5.8-17.3-5.8-26.9 0-10.8 2.7-20.9 7.3-29.9-7.9 10.7-12.6 24-12.6 38.4 0 10.2 2.3 19.8 6.5 28.4l-.9 2.4c-.3 1-.8 2-1.2 3-.8 2.3-1.6 4.7-2.3 7-6.6-10.9-10.5-23.7-10.5-37.5 0-13.6 3.9-26.5 10.6-37.6z"/><path fill="#fff" d="M504.1 111.9c-1 5.7-2.1 11.3-3.4 16.9 6.4-.7 13 .1 19.4 2.7 2.4 1 4.8 2.2 6.9 3.6.7-2.2 1.3-4.4 1.6-6.7 3.5-18.6-.5-37.5-10.8-53.2-8.1 5.4-10.8 20.6-13.7 36.7z"/></svg>