<svg baseProfile="tiny" xmlns="http://www.w3.org/2000/svg" viewBox="0 0 650 650"><path fill="#fff" d="M637.2 267.8c-12.9-19.7-29.4-30-45.5-36.4l6.1-.5-.3-.5 51.5-6-22.1-13c-20.4-12.1-35-17.3-69.4-19 .7-.9 1.5-1.8 2.3-2.9l7.3-8.5c1.2-1.4 2.4-2.9 2.9-3.6l7-8.2-.1-.1c8.8-9.9 17.6-19.8 18-20.2l13-14.3-20.1-.2c-35.3 0-58.9 22.6-72.6 38.4-3.7-16.9-11.8-38.5-38.5-58.2L459.5 102l10.9 66.3c.1.8.2 1.7.5 2.8-11.1-6.2-27.2-12.4-51.6-12.4-9.7 0-20.2 1-31.4 2.9l-3.9.7c-21.4-7.6-43.9-11.5-67-11.5-53 0-102.9 20.6-140.4 58.2-11.6 11.5-21.7 24.6-30.1 38.6-17.5 1.2-45.3 9.1-57.6 45.5-1.2 3.5-2.1 6.9-2.7 10.4C58.5 313 36 323.4 23 332.6c-5.5 3.5-9.8 6.7-12.9 9.7-4 4-6.3 8-6.8 12.1-1.5 2.6-2.3 5.4-2.3 8.1 0 4.7 2.3 9.2 6.9 13.7 8.6 8.5 24.9 17.1 39.1 23.4l-21.9 35.3h35.5c3.8 0 8.2 0 11.3-4.8l1.2-1.7c7.7 4.4 24.7 12.7 41.6 13.1 9.3.2 17.9-.5 25.5-2.1 9.5 18.6 21.8 35.5 36.7 50.4 37.5 37.5 87.4 58.2 140.4 58.2 77.3 0 147.8-45.1 180.2-115.1 76-17.6 126.6-41.6 141.7-56.6 3.9-3.8 6.1-7.6 6.7-11.9 1.6-2.7 2.4-5.4 2.4-8.2 0-4.7-2.2-9.2-6.8-13.7-6.5-6.5-18.6-13.8-34.3-21.2l.1-11.5c0-2.1-.6-17.8-19.6-38l61.5 14.3-12-18.3zm-72.7 33h1.2c.8 1.2 1.7 2 2.9 2.7 3.6 2.1 7.8 4.3 11.8 6.5-8.4-3.2-17.4-6.3-26.9-9.5-.7-2.2-1.5-4.7-2.5-7.4l13.5 7.7z"/><path d="M512.8 291.9l.2-.9v.2l.8.6 6.6 5.1c-6.1-1.6-12.3-3.2-18.8-4.7-1.5-4.8-3.2-9.6-5.1-14.3l12.7 11.1 3.6 2.9zM642.7 356c0-3-1.7-6.1-5.1-9.6-11.3-11.2-43.3-27.1-88.4-41.3-1.6-6.5-5-15.8-11.5-25.9 4.1 2.7 8.3 5.1 10.5 6.3l1.4.8c.1 0 1.5-.7 1.5-.7.3-.2.7-.3.9-.7 1 2.2 1.4 2.4 2 2.7l7.1 4 4.4 2.5 1.3.7c.1 0 1.4-.7 1.4-.7.5-.2.8-.5 1.2-1 1.7 4.5 2.2 4.7 2.9 5.2 10 5.6 25.5 13.5 25.6 13.5l3.9 2v-4.4c0-1-.2-23.1-35.5-49.4 3.1.8 5.6 1.4 6.3 1.6l3.9.9-.6-4-.1-.7 3.6 4.7.6.8.9.2 16.1 3.9 3.6.8-.2-3.7v-.5l2.7 4.3.6.9 1.2.2 25.2 5.5 6.6 1.5-3.7-5.6c-19.5-29.7-48.1-36.9-71-42.6-.2-.1-.5-.1-.8-.2l3.8-.3 3.5-.2-.9-3 2.4 1.7.8.6 1-.1 12.2-.9 4.5-.3-2.3-3.8-.2-.5 6.5 3.3.7.3.8-.1 29.6-3.3 8.1-.9-7-4.1c-21.6-12.8-36.4-17.5-77.8-18.6 2-2.7 4.8-6.6 9.1-12.1l1.8-2.3-2.4-1.6h-.1l3.3-.1 1.2-.1.8-.9c.6-.7 1.6-2 2.8-3.5s2.4-3 3-3.7l2.2-2.7-2.1-1.2 1.8-.1 1.2-.1.8-.9c9.8-11.2 21.1-23.6 21.2-23.7l4.1-4.5-6.1-.1c-38.8-.3-63.2 29.3-74.8 43.5-.7.9-1.4 1.7-2 2.4-.1-.6-.1-1-.2-1.6-3-18-7.1-42.5-38.3-65.4l-5.4-4 1.2 6.7 3.6 21.4.2 1.2 1 .7 4.1 2.8h-1.4l-3.2.1.5 3.1 1.5 9.2.2 1.3 1.2.7 2.9 1.6h-.6l-3.1.1.5 3c.7 4.1 1.7 10.7 2.4 15.6-.1-.1-.2-.1-.3-.2-13.7-9.2-36.7-24.6-89.3-15.3l-5.5.9c-21-7.7-43.3-11.6-66.4-11.6-51.4 0-99.8 20.1-136.2 56.5-12.1 12.1-22.4 25.6-30.8 40.2-16.6.3-43.7 6.7-55.6 41.6-1.5 4.5-2.5 8.9-3 12.9-28.8 9.7-52.2 20.4-65.5 29.7-5.1 3.2-9.1 6.1-11.9 8.9-3.5 3.5-5.1 6.6-5.1 9.6v.2c-1.5 2.2-2.3 4.1-2.3 6.2 0 3 1.7 6.1 5.1 9.6 7 7 22.1 15.8 43.5 24.9l-11.3 18.2-4.3 6.9-4.3 6.9h24.8c3.3 0 5 0 6.2-2.1l1.4-2.1c1.3-2 3.5-4 6.2-2.4 6.6 3.8 23.5 12.8 40.2 13.3 10.8.3 20.3-.7 28.6-3.1 9.3 19.6 22 37.3 37.7 53 36.4 36.4 84.7 56.5 136.2 56.5 76.9 0 145.2-45.2 175.9-114.3 72.8-16.6 126.4-40.5 141.8-55.7 3.5-3.5 5.1-6.6 5.1-9.6v-.2c1.2-2 2-3.9 2-6"/><path fill="#00AE9B" d="M470 275.4l-10.1 3.2-3.6 1.2v-2.3l-.5.7-.6 1-1.2.3-7.5 2c6 .9 12 2 17.8 3l5.7-9.1zm-5.3 9.6h-.3c-6.8-1.3-12.4-2.2-17.8-3v-.9l8.4-2.2 1.7-2.9.1 3.3 14.2-4.5-6.3 10.2zm-15.8-3.7c4.6.8 9.6 1.6 15.4 2.7l4.7-7.7-13 4.1v-1.3l-.3.5-6.8 1.7zm-133.1-87.5c3.5-.1 6.9-.2 10.5-.2 20.2 0 40 2.4 58.9 7 15.1-3.3 28.2-3.9 39.3-3.5-27.7-19.4-60.9-31.4-96.7-33.1-4.5 6.1-12.9 18.8-12 29.8zm69.4 7.3c-19.2-4.7-39.1-7-58.9-7-3.8 0-7.6.1-10.4.2h-.5v-.5c-.9-11.1 7.1-23.6 12-30.1l.1-.2h.2c34.9 1.7 68.3 13.1 96.9 33.2l1.3.9-1.5-.1c-13.2-.4-26 .6-39.2 3.6zm-58.9-8c19.9 0 39.8 2.3 58.9 7 12.8-2.8 25-3.9 37.8-3.5-28-19.4-60.9-30.4-95-32.2-4.7 6.3-12.3 18.3-11.8 28.9 2.8 0 6.4-.2 10.1-.2zm-18.7 1.3c-.9-12.9 5.3-24.6 9.2-30.4-20.7.2-40.7 3.8-59.2 10.3l8.5 26.7c13.6-3.4 27.4-5.6 41.5-6.6zm-41.7 7l-.1-.3-8.6-27.2.5-.1c19-6.7 39.1-10.1 59.4-10.4h.8l-.5.7c-3.8 5.8-10.1 17.3-9.1 30.2v.5h-.5c-13.8 1-27.8 3.2-41.4 6.6h-.5zm-7.8-26.9l8.3 25.9c13.5-3.2 27.1-5.4 40.7-6.5-.8-12.4 5-23.6 8.9-29.6-19.8.3-39.3 3.7-57.9 10.2zm110 30.9c-13.6-2.4-27.7-3.7-41.8-3.7-2.9 0-5.6.1-8.5.2 6.6 16.6 29.3 32.8 68.9 49.3 16.8-13.8 37.1-18.4 53-20.6-.5-.2-.9-.6-1.4-.8-10.1-1.5-20.9-3.2-28.8-4.7-1-.2-1.8-.9-2.2-1.8-.2-.5-.3-.9-.2-1.8-6.1 2.5-7.1 2.3-7.8 2.2-2.4-.5-4.6-.8-6.7-1-2.1-.3-4.1-.6-6.6-1 0 0-1.6-.2-1.7-.3l-.5-1.6c-.1-.2-.1-.5-.1-.7-3.3 1.5-4.1 1.4-4.7 1.3-5.6-1-25.1-3.6-25.2-3.7l-9.9-1.3 9.1-3.9c5.1-2.6 10.2-4.5 15.1-6.1zm18.6 46.3l-.2-.1c-40-16.6-62.6-32.7-69.2-49.6l-.2-.6h.6c2.3-.1 5.4-.2 8.5-.2 14.1 0 28.1 1.3 42 3.7l.1.8c-5 1.6-10.1 3.6-15.3 5.9l-7.7 3.3 8.3 1.2c.1 0 .9.1 2.2.3 5.1.7 18.7 2.5 23.2 3.3.1 0 .3.1.5.1.7 0 2.1-.5 4-1.3l.6-.2.1.6c0 .1.1.3.1.5l.5 1.5c.3.1.9.2 1.4.2 2.4.5 4.7.8 6.6 1h.1c2.1.3 4.1.6 6.6 1h.5c1.2 0 3.5-.7 7-2.3l.8-.3-.1.8c-.1.8 0 1.3.2 1.6.3.8 1 1.4 1.8 1.5 7.1 1.4 17.4 3 28.7 4.7h.1l.6.3c.3.1.6.3.9.5l1.2.7-1.4.2c-15.7 2.2-35.8 6.6-52.8 20.5l-.3.4zm-68.4-49.3c6.8 16.3 29.2 32.2 68.2 48.4 16.6-13.6 36.2-18.1 51.8-20.4l-.2-.1c-11.3-1.7-21.6-3.3-28.7-4.7-1.2-.2-2.1-1-2.5-2.1-.1-.3-.3-.7-.3-1.4-4.4 1.8-6 2.1-6.7 2.1-.3 0-.5 0-.7-.1-2.4-.5-4.5-.8-6.6-1h-.1c-1.8-.2-4.1-.6-6.6-1-1.7-.3-1.8-.3-2-.5l-.1-.2-.5-1.6v-.2c-2.4 1-3.3 1.2-3.9 1.2-.2 0-.5 0-.7-.1-4.5-.8-18-2.7-23.2-3.3-1.8-.2-2.1-.3-2.2-.3l-11.4-1.5 10.6-4.6c4.6-2 9.2-3.8 13.7-5.3-13.3-2.2-26.6-3.3-40.1-3.3-2.7-.3-5.5-.2-7.8 0zm-37.7 70.7l-19.9-62.4c-13.8 3.8-27.3 8.9-39.9 15 5.4 11.3 6.9 34.1 4.7 52.6 17.8-2.3 36.2-4.1 55.1-5.2zm-55.5 5.8l.1-.6c2.3-19.7.3-41.7-4.6-52.3l-.2-.3.3-.2c12.7-6.1 26-11.2 40-15.1l.5-.1 20.2 63.3h-.6c-18.2 1-36.8 2.8-55.1 5.2l-.6.1zm-3.7-52.9c5 10.8 6.8 32.4 4.6 51.9 18-2.3 36.2-4 54.1-5.1l-19.6-61.4c-13.6 3.8-26.8 8.7-39.1 14.6zm-5.2-6.9c13.4-6.6 27.4-11.9 42.1-16l-8.3-25.9c-18.4 7.4-35.5 17.6-50.5 30.3 4.7 1.7 11 5 16.7 11.6zm-.1.4l-.2-.2c-5.6-6.6-12.1-9.9-16.5-11.5l-.7-.2.6-.5c15.2-12.8 32.2-23.1 50.6-30.4l.5-.2 8.5 26.9-.5.1c-14.6 4-28.7 9.5-42 16h-.3zm-15.7-12.3c4.4 1.7 10.5 5.1 15.9 11.3 13.1-6.5 27.1-11.8 41.4-15.8l-8-25.1c-17.8 7.2-34.4 17.2-49.3 29.6zM320.5 272h10.1c28.2 0 55.8 1.8 82.2 4.8.7-.8 1.4-1.7 2.2-2.7-4.7-3-9.6-5.6-14.6-8.1l-24.7 3.9-6.6 1 3.8-5.3c2.2-3.1 4.5-5.8 6.9-8.3-42-17.9-64.8-35.5-70.9-55-13.8 1-27.3 3.1-40.6 6.3l20.4 64c10.7-.4 21.2-.6 31.8-.6zm92.6 5.3h-.2c-27.9-3.2-55.4-4.7-82.1-4.7h-10.1c-10.4 0-21 .2-31.5.7h-.3l-20.6-64.8.5-.1c13.3-3.2 27-5.3 40.7-6.3h.3l.1.3c6.1 19.4 28.5 36.8 70.7 54.6l.6.2-.5.5c-2.5 2.7-4.8 5.4-6.9 8.3l-3.2 4.5 5.4-.8 24.8-4 .1.1c4.8 2.3 9.8 5.1 14.6 8.2l.5.2-.3.3c-.8.9-1.6 1.8-2.2 2.7l-.4.1zm-92.6-5.8h10.1c26.6 0 54.2 1.6 82 4.7.5-.7 1.2-1.4 1.7-2.1-4.7-2.9-9.3-5.5-13.9-7.7l-32 5.1 4.5-6.2c2-2.8 4.1-5.4 6.6-8-41.7-17.8-64.2-35.2-70.4-54.6-13.4.9-26.7 3-39.7 6.2l20.2 63.3c10.2-.5 20.6-.7 30.9-.7zm108.6-8.7l.5-3.6.2-1.7-4.3 4.6-.7.7-.9.1-9.2 1.4c2.2 1.3 4.5 2.7 6.6 4 2.4-2 5.3-3.9 8.6-5.8l-.8.3zm-7.7 6.2l-.2-.1c-2.2-1.4-4.5-2.8-6.6-4l-1-.6 11.2-1.7.6-.6 5.2-5.6-.8 6h.3l.2.8c-3.1 1.7-6 3.7-8.6 5.8h-.3zm-5.3-4.4c1.7 1 3.6 2.1 5.3 3.2 2.3-1.7 4.7-3.5 7.4-5l.6-4.1-4 4.4-9.3 1.5zm62.4 175.9c2.1-3.6 3.9-7.1 5.8-10.9-1.5.3-3.1.7-4.7 1-.3 3.6-.7 6.8-1.1 9.9zm.4.2l-.8-.2c.5-3.5.8-6.7 1.2-9.9v-.3l.3-.1c1.6-.3 3.1-.6 4.6-1l.9-.2-.5.8c-1.7 3.8-3.7 7.3-5.7 10.9zm1.1-9.8c-.2 2.4-.5 4.8-.8 7.4 1.5-2.7 2.9-5.3 4.3-8.1l-3.5.7zm-151.5 15.6h-10.1c-43.1 0-84.7-4.1-122.6-10.5.9 3.8 2.1 7.6 3.5 11.3 23.6 64.3 73.2 79.4 73.8 79.6l1.6.8c14.1 3.5 28.8 5.3 44 5.3 14.9 0 29.4-1.7 43.3-5.1l-25.9-81.4h-7.6zm-10 86.9c-14.9 0-29.7-1.7-44.1-5.3l-1.7-.8c-.5-.1-50.1-15.2-74-79.9-1.4-3.7-2.5-7.5-3.5-11.3l-.1-.7.7.1c41.3 6.9 82.5 10.5 122.5 10.5h17.9l26.2 82.2-.5.1c-14.1 3.4-28.7 5.1-43.4 5.1zm-122.2-96.8c.9 3.6 2.1 7.1 3.3 10.6 23.5 63.9 73 79.2 73.4 79.3l1.7.8c28.1 6.8 58.1 7 86.6.2l-25.7-80.6h-17.3c-39.9 0-80.9-3.5-122-10.3zm-22.9-180c6 2.3 11.3 5.8 15.6 8.5 1.2.7 2.2 1.5 3.1 2.1 2.1 1.3 7.1-1.3 9.9-3.5l4-3.3 1.6-1.3 2.1.3c2.1.3 2.5 1.2 4.5 4.4l1.4 2.2s1.5 2.4 2.4 4.1c1-15.3-.2-32.5-4.5-40.9-14.5 8-28 17.1-40.1 27.4zm45 15.3l-.7-1.3c-1-1.7-2.4-4.1-2.4-4.1l-1.4-2.2c-2-3.2-2.3-3.8-4.1-4.1l-1.8-.3-1.4 1.2s-2.9 2.4-3.8 3.1l-.2.2c-2.3 1.8-6.2 3.8-8.8 3.8-.7 0-1.3-.1-1.6-.5-.6-.3-1.4-.8-2.1-1.4l-1-.7c-4.3-2.8-9.6-6.2-15.6-8.5l-.7-.2.6-.5c12-10.4 25.5-19.6 40.2-27.3l.3-.2.2.5c4.7 9.5 5.4 28.1 4.5 41.1l-.2 1.4zm-10.7-13.1l2.2.3c2.3.3 2.8 1.3 4.7 4.6l1.4 2.2s.9 1.5 1.7 2.9c.9-16.3-.7-31.2-4.4-38.8-14.3 7.5-27.4 16.5-39.1 26.5 5.8 2.3 10.8 5.6 15 8.4l1 .7c.8.5 1.5.9 2.1 1.4.3.2.7.2 1.2.2 2.3 0 6-1.8 8.2-3.7.3-.3 1.4-1.3 3.9-3.3l2.1-1.4zm278.8 30c2.4.6 5 1 7.4 1.6-1-3.1-2.2-6.2-3.3-9.3l-4.1 7.7zm7.9 2.3l-.8-.1c-2.4-.6-4.8-1-7.4-1.6l-.6-.1 4.7-9.1.3.9c1.2 3.1 2.3 6.2 3.3 9.3l.5.7zm-7.2-2.5c2.1.5 4 .9 6 1.4-.8-2.5-1.7-5.1-2.8-7.6l-3.2 6.2zm-66.1 153.6h-.5c-1.8-.3-3.6-.7-5.3-1-22.8 2.8-46.7 4.6-71.1 5.2l25.4 79.4-1.2.3c40.1-11.2 74.6-35.6 98.7-68.2.8-3.9 2.7-13.1 3.9-25.5-4.5.8-9 1.7-13.6 2.5-10.1 5-22.2 8.2-36.3 7.3zm-52.4 84.3l-.2-.8.7-.2-25.4-79.5h.6c23.5-.6 47.4-2.3 71-5.2h.2c2 .5 3.6.8 5.2 1h.3c1.7.1 3.3.2 5.1.2 10.8 0 21.2-2.5 31.1-7.5h.1c4.8-.8 9.7-1.7 13.6-2.5l.6-.1-.1.6c-1.3 12.8-3.1 22.1-3.9 25.5l-.1.1c-24.4 33-59.5 57.3-98.8 68.4zm-23.6-79.8l25 78.5c38.5-11.2 72.8-35.2 96.7-67.5.8-3.5 2.5-12.3 3.8-24.7-3.8.7-8.3 1.6-13 2.4-11.4 5.8-23.7 8.2-36.5 7.4h-.3c-1.6-.2-3.3-.6-5.2-1-23.6 2.6-47.3 4.3-70.5 4.9zM164 254.3c13.3-12.1 28.2-22.7 44.7-31.5-7.7-8-17.4-8.1-17.4-8.1-12.1 11.5-22.5 24.7-31.1 39 1.3.2 2.3.3 2.9.5.3 0 .6 0 .9.1zm.1.5h-.2c-.3 0-.6-.1-.9-.1-.7-.1-1.6-.2-2.9-.5l-.7-.1.3-.6c8.6-14.4 19.1-27.5 31.2-39.1l.1-.1h.2c.1 0 9.9.2 17.8 8.2l.5.5-.5.2c-16.4 8.8-31.5 19.4-44.6 31.4l-.3.2zm-3.2-1.4c1 .1 1.7.2 2.3.3.2 0 .5 0 .7.1 13-11.9 27.9-22.4 44.1-31.1-6.9-6.8-15.2-7.5-16.5-7.5-11.8 11.3-22.1 24.2-30.6 38.2zm.7 26c-6.5-.7-12.6 2.4-15.2 7.5-1.2 2.1-1.6 4.3-1.7 6.7 9.3-2.3 19-4.5 29-6.5-2.8-4.5-7-7.3-12.1-7.7zm-17.4 14.7v-.6c.1-2.7.7-4.8 1.7-6.8 2.4-4.7 8-7.7 13.9-7.7.6 0 1.2 0 1.7.1 5.2.5 9.5 3.2 12.4 7.8l.3.6-.6.1c-9.9 2-19.6 4.1-29 6.5h-.4zm15.6-14.4c-5.6 0-10.8 2.9-13.1 7.3-.9 1.7-1.5 3.7-1.6 5.9 9-2.2 18.4-4.3 27.9-6.2-2.8-4-6.7-6.5-11.4-6.9-.6 0-1.2-.1-1.8-.1zm31.7 170.4c-1.8-5.2-3.3-10.4-4.6-15.7-11.1-2-21.8-4.1-32.2-6.6-.7.3-1.5.8-2.3 1.2 17.8 36.3 46.9 66 83 84.3-16-13.7-33-34-43.9-63.2zm43.9 63.6c-36-18.1-65.5-48.1-83.2-84.5l-.2-.5.5-.2c.8-.3 1.6-.7 2.2-1l.1-.1h.1c10.4 2.3 21.2 4.6 32 6.6h.3l.1.3c1.3 5.6 2.8 10.7 4.5 15.6 9.2 25 24 46.2 43.9 62.9l-.3.9zm-82.1-84.5c17.1 34.8 45.1 63.7 79.3 82-18.7-16.5-32.5-37-41.4-60.9-1.7-4.8-3.2-9.8-4.5-15.4-10.8-2-21.4-4.1-31.7-6.5-.6.2-1.2.6-1.7.8z"/><path fill="#FDB927" d="M263 224.7l33.5 6.9-32-12.3 32.7-8.2L264 214l10.8-32.6-17.4 30-13.3-31.1 7.1 29.6-31.5-15.1 28.9 18.9L208 212l40 7.5-30.4 14.8 31.7-10.5-20.1 27.5 25.6-22 3.1 32.3 1.3-34.5 15.4 30.3-11.6-32.7zm-5.3 36.9l-2.9-31.5-25.1 21.4-.7-.5 19.2-26.4-30.3 10-.3-.8 29.2-14.2-38.6-7.3.1-.9 38.8 1.6-27.4-18 .5-.8 30.7 14.8-6.9-28.7.8-.2 12.9 30.2 16.9-29.2.8.3-10.6 32 32.5-2.9.1.9-31.5 8 30.8 11.9-.2.8-32.8-6.8 11.6 31.8-.8.3-14.6-28.7-1.3 32.8-.9.1zm-2.2-33.3l2.4 26.6 1.2-29.5 12.8 25.2-9.7-26.4 29.2 6-28.4-10.9 28.7-7.3-28.4 2.5 9.7-29.2-15.7 27-11.5-27 6.1 25.4-26.3-12.7 24.7 16.1-36-1.5 35.2 6.6-25.5 12.4 26.6-8.8-18.6 25.7 23.5-20.2zm86 10.4l15.6-9.2-16.9 6.6 9.9-14.9-12 12.9-7.3-16.6 3.8 17.9-16.3-7.5 13.4 9.1-17.8 5.3 18.1-2.9-16.5 13.7 18.3-11.3-6.7 16.6 8.6-15.4 2 18 2.2-17.8 12.7 11.5-11.8-13.9 16.7 6.3-16-8.4zm-3.4 22.2h-.9l-1.7-16.5-8 14.2-.8-.3 6.1-15.3-17.1 10.6-.5-.7 15.2-12.7-16.5 2.7-.2-.8 16.8-5-12.6-8.5.5-.8 15.4 7.1-3.7-17.1.8-.2 7 16 11.5-12.4.7.6-9.1 13.7 15.7-6 .3.8-14.9 8.8 15.4 8.2-.3.8-15.1-5.8 10.6 12.7-.7.6-12-11.1-1.9 16.4zm-2-19.3l1.6 15.4 1.8-14.9 8.3 7.6-8.5-10.1 11.4 4.4-10.4-5.4 11.6-6.9-13.3 5.1 7.6-11.3-8.6 9.3-5.9-13.3 3.1 14.5-12.1-5.5 9.7 6.6-12.1 3.6 12.9-2.1-12.9 10.8 14.2-8.8-4.6 11.5 6.2-10.5zm-104.3 229l18.9-22.4-22.4 19 7.1-27.9-11.3 26-19.9-21.4 15.2 25.2-28.6-2.8 25.1 6.7-24.2 17.3 25.9-13.8-15.4 26.2 19.5-23.4-1.4 28.7 5.1-27.9 12.4 26.2-6-28.1 25.4 10.9L232 474l28.9.9-29.1-4.3zm-11 37.6l-.9-.1 1.3-27.4-18.7 22.3-.7-.5 14.6-24.8-24.6 13.1-.5-.8 23.4-16.8-24.2-6.5.1-.9 27.7 2.7-14.8-24.4.7-.6 19.5 20.9 11.1-25.4.8.3-6.8 26.5 21.2-18 .6.6-18.3 21.7 28.4 4.3-.1.9-27.2-.8 23.7 14.2-.3.8-24.6-10.6 5.8 27.3-.8.2-11.8-24.9-4.6 26.7zm4.5-29.6l11.3 24-5.4-25.2 20.1 8.6-21-12.6 23.2.7-22.6-3.5 15.9-18.8-19.2 16.5 6.1-23.7-9.5 21.6-17.4-18.7 13.5 22.2-24.2-2.3 20.7 5.5-19.2 13.8 21.3-11.4-13.5 22.8 16.9-20.2-1.2 23.3 4.2-22.6zm119.4 15.7l39-5.1-39.3-1.4 32.3-21.2-34.8 15.7-.6-39.3-7.5 38.8-26-28.6 18.9 29.3-39.8-4.5 38.4 9.6-44.4 13.4 46-6.9-27.4 27.4 30.3-23.3-11.3 37.3L338 502l15.4 33.9-11.5-37.8 28 27-25.2-30.8zm8.2 41.9l-15.1-33.1-19 32.7-.8-.3 10.9-36.1-29.2 22.5-.6-.7 26.4-26.4-44.6 6.7-.2-.8 42.9-12.9-36.8-9.2.1-.9 38.8 4.5-18.4-28.6.7-.6 25.4 28 7.4-38 .9.1.5 38.6 34.2-15.3.5.8-31.1 20.4 37.9 1.3v.9l-38.2 5.1 24.6 30.1-.7.6-26.6-25.8 10.9 36.2-.8.2zM330.5 497l-10.7 35 18-30.9 13 28.6-10-33.1 23.9 23.1-20.8-25.7 34.3-4.5-35.4-1.2 28.8-18.9-30.2 13.6-.5-35.7-6.9 35.5-22.9-25.4 16.5 25.6-34-3.9 33.4 8.4-40 12 41.1-6.2-23.5 23.5 25.9-19.8z"/><path fill="#552583" d="M517.6 408.7c-9-.2-18.1-4.7-21.7-6.6-.5-.2-1.8-1-3.1.1-.3.5-.7.9-1 1.5l-.8 1.2c-3.2 4.6-7.8 10.4-13.7 16 19.2-3.9 37.2-8.4 53.6-13.1-3.8.6-8.3 1-13.3.9zm-41.7 12.8l1.2-1c5-4.7 9.6-10 13.6-15.9l1-1.6.7-1 .1-.1c.6-.5 1.2-.7 1.8-.7.8 0 1.5.3 1.8.6 3.6 2 12.7 6.3 21.4 6.6 4.8.1 9.3-.2 13.3-1l.2.8c-17.2 5-35.3 9.3-53.7 13.1l-1.4.2zm17.2-19c-.2.3-.5.7-.7.9l-1 1.6c-3.8 5.4-8.1 10.5-12.7 15 15.7-3.2 31-6.9 45.9-11.1-2.2.2-4.5.2-7 .2-9-.2-18.3-4.7-21.9-6.7-.3-.1-.8-.5-1.5-.5-.3.1-.8.2-1.1.6zm-377.9-45.6c-.3-.5-1-1.3-1.8-2.1-5.6-6.2-18.8-20.7-17.8-42.8-50.9 17-82 35.5-82 44 0 6.7 19.1 19.5 52 32.8l12.6-20.3 1.3-2.2h17.1l-3 6.5c-4.5 9.5-6.3 17.6-5.6 24.4 11.2 3.9 23.5 7.8 36.8 11.5 1.5-1.7 3-3.8 4.1-6.3 3.9-7.8 4.7-22-13.3-45.2l-.4-.3zm9.6 52.5l-.2-.1c-12.9-3.6-25.2-7.5-36.8-11.5l-.2-.1v-.2c-.7-6.9 1.3-15.2 5.6-24.7L96 367H80l-1.2 2L66 389.5l-.3-.1c-31.7-12.9-52.2-26-52.2-33.3 0-9.7 35.4-28.7 82.3-44.4l.6-.2v.7c-1 21.9 12 36.3 17.6 42.4l.5.5c.6.7 1.2 1.3 1.5 1.7l.3.3c18.2 23.3 17.3 37.7 13.4 45.6-1.3 2.4-2.7 4.6-4.3 6.5l-.6.2zM88.4 397c11.3 4 23.5 7.8 36.2 11.3 1.5-1.7 2.9-3.8 3.9-6.1 3.8-7.7 4.6-21.8-13.3-44.7l-.3-.3c-.3-.3-.8-.9-1.4-1.6l-.5-.5c-5.6-6.1-18.7-20.5-17.9-42.4C44.3 329.6 14 348.1 14 356c0 5.6 15.9 17.9 51.4 32.4L79.3 366h18l-3.3 7c-4.4 9.3-6.2 17.4-5.6 24zm368-50.6l23.1-17.8c2.1-2.2-1.7-3.8-1.7-3.8l4-9.3h34.6l-3 6.5-1.7 3.6-1.3 2.7h-2.8c-4.8 0-7.6 1.7-10.1 3.5-1.6 1.2-9 6.9-16.8 12.9l-11.8 9.1 6.9 37.2c.2 1.4 2.5 1.6 2.5 1.6h4.8l12.8-18.8 1.4-2h13.8l-3.3 6.6c-2.9 5.8-3.7 10.6-2.1 13.9 1.3 2.8 3.9 3.8 4.5 3.9.2 0 .5.1.8.1 4.4.7 9.3.9 12.6-5.2 1.7-3.3 2-9.5-7-20.2l-.2-.2-.9-.9c-3.6-3.7-14.8-15-8.5-31.9 7.4-20.5 27.2-22.4 36.9-20.4 1.4.1 2.7.3 3.9.7l-1.7-1.3-16.6-12.6c-13.9-3.9-29-7.7-45-11.1l-28.1 53.2zm58.2 50.5c-1.4 0-2.8-.2-3.8-.3-.2 0-.6-.1-.8-.1-.7-.1-3.3-1.3-4.8-4.1-1.6-3.5-.9-8.3 2.1-14.3l3-5.9h-12.8l-1.2 1.8-13 19h-5.1s-2.7-.2-3-2l-7-37.5 14.2-10.9c7-5.5 13.3-10.3 14.8-11.2 2.7-1.7 5.5-3.6 10.5-3.6h2.5l5.5-11.8h-33.5l-3.8 8.8c.7.3 2 1.2 2.2 2.3.1.7-.1 1.4-.7 2l-23.2 17.8-.7-.6 28.1-53.8.3.1c15.3 3.2 30.4 7 45 11.1l.1.1 18.3 13.9-.3.8c-1.4-.3-2.7-.6-3.8-.7-2-.3-4-.6-6.2-.6-6.8 0-23.4 2.1-30.2 20.7-6 16.6 4.8 27.8 8.4 31.5l.3.3.6.6.2.2c9.2 10.8 9 17.2 7.1 20.6-2.1 4-5 5.8-9.3 5.8zM497 371.2h14.8l-3.7 7.1c-2.9 5.6-3.6 10.4-2.1 13.5 1.3 2.5 3.7 3.6 4.1 3.7.2 0 .5.1.8.1 1 .1 2.3.3 3.7.3 3.9 0 6.6-1.7 8.5-5.3 1.7-3.2 1.8-9.2-7-19.6l-.2-.2-.6-.6-.3-.2c-3.7-3.8-14.9-15.3-8.6-32.4 6.9-19.2 24-21.3 31-21.3 2.2 0 4.4.2 6.3.6.6 0 1.3.1 2 .2L529 304.4c-14.4-4-29.4-7.8-44.5-10.9l-26.9 51.4 21.6-16.5c.3-.3.5-.8.5-1.2-.2-.9-1.6-1.6-2.1-1.8l-.5-.1 4.4-10h35.6l-6.3 13.6h-3.2c-4.6 0-7.5 1.6-9.9 3.3-1.5 1-7.6 5.8-14.6 11.2L469.4 354l6.9 36.9c.2.9 1.7 1.2 2.2 1.3h4.6l13.9-21zm-61.3 31.4l-1.3 2.1h-24c3.6 10 8.9 20.2 23.1 21.3h.5c.9.1 21 2.8 40.9-21.4h-18.3c-5.2 0-8.9-4-9.7-7.8 0 0-2.9-12.7-5.1-22.6l-8.3 14.3c-1.8 5.4 8.3 4 8.3 4l-3.3 5.6-2.8 4.5zm.6 24.1c-1 0-2 0-2.7-.1h-.3c-14.2-1.2-19.6-11.1-23.4-21.7l-.2-.6H434l3.9-6.2c.9-1.6 2.2-3.7 2.9-4.8-.5 0-1 .1-1.7.1-3 0-5.1-.6-6-1.8-.6-.8-.7-1.7-.2-3l8.9-15.4 2 8.9c3.3 14.9 3.3 14.9 3.3 15 .8 3.6 4.4 7.4 9.2 7.4h19.2l-.5.5c-16.2 19.6-32.4 21.7-38.7 21.7zM411 405.1c3.7 10 9 19.4 22.5 20.4h.5c.3 0 1.3.1 2.5.1 6 0 21.7-2.1 37.3-20.6h-17.4c-5.4 0-9.2-4.1-10.1-8.2 0-.2-1.6-7.4-3.3-14.9l-1.5-6.7-7.7 13.4c-.2.8-.2 1.5.2 2.1.7.9 2.5 1.5 5.2 1.5 1.4 0 2.5-.1 2.5-.1h.3l.1.2c.1.2.1.2-3.3 6.1l-4.1 6.7H411zm-163.7-70.5c0-2.5-.8-3.2-1.2-3.5-.9-.7-2.4-1-3.7-1l-13 24.1c2.2-.1 4.5-.8 6.8-2.3 6.6-4.1 11.1-12.4 11.1-17.3zm-18.7 20.1l13.6-25h.2c1 0 2.9.1 4 1.2.8.7 1.3 2 1.3 3.7 0 5.2-4.5 13.5-11.3 17.8-2.4 1.5-4.7 2.3-7 2.3h-.8zm14.1-24.2l-12.6 23.2c2-.2 3.9-.9 5.9-2.2 6.5-4.1 10.8-12.1 10.8-17.1 0-1-.1-2.4-.9-3.1-.7-.3-1.7-.7-3.2-.8zm52.7 17.1l-11.1 13.7h8.6l2.5-13.7zm-2.1 14.2h-9.9l11.6-14.4.8.3-2.5 14.1zm-8.1-1h7.3l2.1-11.6-9.4 11.6zm264.4-50.7c.5 2.4.6 3.8.6 4l.3 4.7c2.7 1.2 5.1 2.5 7 3.7.7.3 1.3.8 1.7 1 1.5.9 4.7-.7 6.1-1.7l3.8-2.9 2.7 4 1.8 2.9 1.6 2.5-1.6 2.4-13.8 20.9-4.1 6.2-3.6-6.6-1.7-3.2-1.6-3 2.3-2.3c.5-.8.6-3.8.2-6.2-1.8-5.4-6-6.6-8.3-6.8-3.8-.3-7.4 1.3-8.9 3.9-3.2 5.8 3.3 15.2 6.2 18.4 5.2 5.9 16.8 21.3 11.8 37.6-2.4 7.8-7.6 13.1-15.3 16.1 61.9-18.4 100.9-40.3 100.9-49.9-.1-8.7-33.7-28.1-88.1-45.7zm-12.7 96.3l-.2-.8c7.6-3 12.7-8.3 15.1-15.9 5.1-16-6.5-31.4-11.6-37.1-2.9-3.2-9.7-12.9-6.2-18.9 1.6-2.8 5.4-4.5 9.3-4.1 2.4.2 6.7 1.5 8.6 7.1.3 2.4.3 5.6-.2 6.7l-.1.1-2.1 2.1 6.5 11.9 19-28.7-3.3-5.1c-.8-1.2-1.8-2.9-2.4-3.7l-3.5 2.7c-1 .8-3.5 2.1-5.3 2.1-.6 0-1-.1-1.4-.3-.5-.2-.9-.6-1.5-.9l-.2-.1c-2-1.3-4.4-2.7-6.9-3.7l-.2-.1-.3-5.1c0-.3-.1-1.8-.6-4l-.1-.7.7.2c50.3 16.1 88.2 36.1 88.2 46.3-.1 9.4-38.9 31.4-101.3 50zm5.1-76.1c-3.2 0-6.2 1.5-7.5 3.7-3.1 5.5 3.6 15 6.1 17.9 5.3 6 16.9 21.6 11.8 38-2 6.1-5.5 10.8-10.7 14.1 57.3-17.7 95.3-38.8 95.3-48 0-8.4-32.5-27.7-86.9-45.2.3 2.2.5 3.3.5 3.5l.3 4.5c2.5 1 4.8 2.4 6.8 3.7l.2.1c.6.3 1 .6 1.5.8 1.3.7 4.4-.7 5.6-1.7l3.9-3h.1c.2 0 .3 0 3 4.3l3.6 5.6-20.1 30.4-7.5-13.7 2.5-2.5c.3-.7.5-3.5.1-5.9-1.8-5.1-5.8-6.2-8-6.5.1-.1-.2-.1-.6-.1zm-169.2 64.2l-.1-.5s-3-20.2-3.3-22.7c-.9-3.6-2.1-5.4-2.9-6.2-3.5 6.3-10.4 18.9-12.3 22.6-1.4 2.7.9 5.4 7 5.3l-3.3 5.3-2.7 4.3-1.3 2.1h-82l5-12.3s9.5.6 10.9-5l2.3-13.8h-15.8L263 388.9c-3.3 3.9 8.6 3.2 8.6 3.2l-4.7 12.6-2.7-.1h-36.3l3-6.5 2-4.3 1.3-2.7h2.9c4.8 0 8.3-3.5 8.6-3.8 45.6-56.6 53-65.7 53-65.7 2.7-3.5 6.6-5.8 10.7-6.1h18.9l-.7 5.2c-2.7 19-9.5 68.7-9.7 70.4 0 .1.8 2.1 2.3-.5l32.8-59.8c1.6-4.3-9.5-4.3-9.5-4.3l4.7-5.8 3.1-3.7 1.4-1.6h34.2c14.3 0 25.2 4 30.1 11.2 2.3 3.5 4.3 9.2.9 17.5-5.5 13.6-16.8 19.6-26.3 21.9 4.4 5.4 8.2 12.4 11.3 19.6l59-97.3c-8.2-1.5-16.6-2.9-25.2-4.1-3.9 1.2-11.6 3.7-11.6 3.7l-5.6 1.6-9.2 2.7-3.9 1.2.3-4c0-.3.5-3.7 3.2-8.4-25.4-2.8-52-4.4-79.4-4.4h-10.1c-38.4 0-75.2 3.2-109 8.3l-21.8 35.5-4.3 6.9-3.7-7.3-3.2-6.5-1.4-2.9 2.2-2.3c2.3-2.4 2.2-11.2 1.4-16.8-.1-.5-.3-.9-.5-1.4-13.9 2.7-27.2 5.6-39.6 8.9 2.2 13.6 13 26.9 13.6 27.7 8.3 10.1 26 35.5 22 62.8 1.3-.7 2.1-1.4 2.4-1.7l31-56.4c2-4.5-7.8-4.4-7.8-4.4l6.1-11.4H244c14.3 0 25.2 4 30.1 11.2 2.3 3.3 4.3 9.2.9 17.5-8 19.2-27.1 23.4-36.4 22.9-7.5.1-12.4-.6-15.6-1.5-3.8 6.9-10.5 19.2-12.1 22.5-1.6 5 7.7 3.9 7.7 3.9l-3.8 6.1-2.7 4.4-1.3 2.2h-39.4c-2.5 5.2-6 9.6-10.1 13.3 46.5 10.3 101 17.6 159.3 17.6H331c22 0 43.5-1 64.1-2.9-18.5-12.1-21.1-30.8-22.3-38.3zm-42 41.5h-10.1c-53.1 0-106.7-5.9-159.4-17.6l-.8-.2.7-.6c4.1-3.7 7.5-8.1 10-13.1l.1-.2h39.4l7.1-11.6h-1c-2.1 0-4.8-.3-5.9-1.8-.6-.7-.7-1.6-.3-2.8 1.3-2.5 5.8-10.7 9.3-17.4l3-5.4.3.1c3.6.9 8.3 1.5 14.1 1.5h1.4c11.8.6 28.8-5.3 36-22.6 3.3-8.1 1.4-13.7-.8-17.1-4.7-7-15.4-10.9-29.7-10.9h-36c-1.5 2.8-4.6 8.6-5.6 10.6 1.8 0 6.1.3 7.4 2.4.5.7.5 1.6.1 2.5L179 388.4c-.2.2-1.2.9-2.5 1.7l-.8.5.1-.9c4.1-27.3-13.9-52.8-21.9-62.5-.1-.1-11.4-13.8-13.7-27.8l-.1-.3.3-.1c12.9-3.2 26.3-6.2 39.8-8.9l.3-.1.1.3c.1.5.3.9.5 1.4.9 5.6 1 14.6-1.5 17.3l-2 2.1 7.7 15.6 25.7-42h.2c36.4-5.5 73.2-8.3 109.2-8.3h10.1c26 0 52.7 1.5 79.4 4.4l.7.1-.3.6c-2.9 4.8-3.1 8.3-3.1 8.3l-.3 3.3 18.2-5.3c.1 0 2.9-.9 5.8-1.8l5.9-1.8h.1c8 1.2 16.3 2.5 25.2 4.1l.6.1-.3.6-59.4 98.1-.3-.8c-3.6-8.1-7.4-14.6-11.2-19.5l-.5-.6.7-.1c7-1.6 19.8-6.7 25.9-21.6 3.3-8.1 1.4-13.8-.8-17.1-4.7-7-15.4-10.9-29.7-10.9H353l-4.4 5.2-4.1 5.1c2.1.1 7.3.6 8.8 2.7.5.7.6 1.4.2 2.3l-33 59.9c-.6 1-1.2 1.5-1.7 1.5-.3 0-.6-.1-.9-.5-.2-.2-.5-.7-.5-.9.2-1.7 7.1-52.8 9.7-70.4l.6-4.6h-18.3c-4 .3-7.8 2.5-10.5 5.9-.1.1-8 9.8-53 65.7-.7.7-4.1 4-9 4h-2.2l-5.8 12.4h35.6l2.3.1 4.4-11.6h-1.3c-4.5 0-7-.7-7.6-2-.3-.7-.1-1.4.6-2.2l11.4-15.6h16.6l-2.3 14.3c-1.4 5-8.5 5.3-10.7 5.3h-.3l-4.6 11.4h81.1l6.8-10.8c-3.2 0-5.5-.9-6.6-2.5-.6-1-.6-2.2 0-3.3 1.3-2.5 5-9.1 8.1-15 1.6-2.9 3.1-5.6 4.1-7.7l.3-.6.5.5c.7.7 2 2.4 3 6.5.3 2.7 3.3 22.7 3.3 22.7l.1.5c1 7.1 3.7 26 21.8 37.9l1 .7-1.3.1c-21.9 1.6-43.5 2.5-64.4 2.5zm-168.5-18.2c52.3 11.5 105.6 17.4 158.4 17.4h10.1c20.6 0 41.7-.9 62.8-2.8-17.5-12.2-20.2-30.8-21.1-37.8l-.1-.5s-3-20.1-3.3-22.7c-.8-3-1.7-4.7-2.4-5.5-1 2-2.4 4.5-3.9 7.1-3.2 5.8-6.8 12.4-8.1 15-.5.9-.5 1.7 0 2.5.9 1.4 3.3 2.2 6.6 2.1h.8l-8 12.7h-82.8l5.3-13.3h1c2 0 8.6-.3 9.9-4.6l2.2-13.3h-15.1l-11.2 15.2c-.5.6-.6.9-.5 1.3.3.7 2.3 1.4 6.8 1.4h2.5l-5.1 13.6-2.9-.1h-37l6.6-14.2h3.1c4.5 0 7.7-3.1 8.4-3.7 45.1-55.9 52.9-65.6 53-65.7 2.8-3.6 6.8-5.9 11.1-6.2h19.4l-.8 5.6c-2.4 17.5-9.2 67.4-9.6 70.3.1.1.2.5.5.5s.6-.2 1-1l32.8-59.8c.2-.5.1-.9-.1-1.4-1.3-1.8-6.9-2.3-9-2.3h-1l9.9-12h34.6c14.5 0 25.6 4.1 30.4 11.4 2.3 3.5 4.4 9.5.9 18-6.1 14.9-18.6 20.1-25.9 22 3.7 4.7 7.3 10.9 10.6 18.4l58.2-96c-8.8-1.6-16.7-2.9-24.6-4l-5.6 1.7c-4.5 1.4-5.5 1.7-5.9 1.8l-19.2 5.6.5-4.7s.2-3.2 2.9-8.1c-26.4-2.9-52.9-4.4-78.6-4.4h-10.1c-35.8 0-72.5 2.8-108.8 8.3l-26.3 42.9-8.8-17.5 2.4-2.5c2-2.1 2.2-10.1 1.3-16.4-.1-.3-.2-.7-.3-.9-13.1 2.5-26.3 5.5-39 8.6 2.4 13.6 13.4 26.9 13.4 27 8 9.7 25.8 34.9 22.2 62.2.8-.5 1.3-.9 1.5-1.2l31-56.4c.2-.7.2-1.3 0-1.7-1-1.6-5.1-2-7.3-2h-.2l-.2-.2c-.1-.2-.1-.2 6.1-11.9l.1-.2h36.4c14.5 0 25.6 4.1 30.4 11.4 2.3 3.5 4.4 9.5.9 17.9-7 17.2-23.5 23.3-35.4 23.3h-2.8c-5.6 0-10.4-.5-13.9-1.4l-2.7 4.8c-3.6 6.6-8.1 14.9-9.3 17.3-.2.7-.2 1.4.2 1.8.7.9 2.5 1.5 5.2 1.5 1 0 1.8-.1 1.8-.1l.9-.1-8.4 13.6h-39.4c-2.4 4.5-5.6 8.8-9.4 12.4zm223.3-87.6l-13 24.1c2.2-.1 4.5-.8 6.8-2.3 6.6-4.1 11.1-12.3 11.1-17.4 0-2.4-.8-3.2-1.2-3.3-.8-.8-2.4-1.1-3.7-1.1zm-13.8 24.5l13.6-25h.2c1 0 2.9.1 4 1.2.3.2 1.3 1 1.3 3.7 0 5.2-4.5 13.5-11.3 17.8-2.4 1.5-4.7 2.3-7 2.3h-.8zm14.1-24.1l-12.6 23.2c2-.2 3.9-.9 5.9-2.2 6.5-4.1 10.8-12.1 10.8-17.1 0-1.5-.3-2.5-.9-3.1-.7-.4-1.9-.6-3.2-.8z"/><path fill="#FDB927" d="M222.6 357.3l17.1-31.5s12.1-2.4 12.1 8.6c0 11.2-14.6 29.8-29.2 22.9zM244 320h-32.7l-2.1 3.7s9.6.5 6.2 6.6c-3.3 6.1-33.2 60.1-33.2 60.1s-3.6 5.3-12.1 5.3c.1-.2.1-.3.2-.6 8.8-29.7-13.6-58.6-19.6-65.8-6-7.3-21.1-30.1-12.3-46.9 8.9-16.8 38.8-18.4 46.8 8 0 0 2.7 15.6-2.5 21l3.2 6.5 25.4-41.4-3.3-5.6s-11.4 9.6-20.3 4.1c-6-3.7-16-11.4-25.7-11.9 0 0-43.7-9.9-58.7 34.6-10.8 32 11.6 51.2 15.8 56.4 4 5.2 24.1 30.1 14.1 50.4-10 20.2-28.1 15.9-33 14.6-4.7-1.3-27.4-12-10.5-48.2h-7.4L52 420h8.6s7.4-11.9 18.4-5.3c8.9 5.2 22.9 11.6 36 12 16 .5 43.1-1.3 53.5-26.3h39.8l2.7-4.4c-5.9-.6-7.6-2.9-5.6-6.8s15.6-28.9 15.6-28.9 3.7 2.8 17.8 2.5c0 0 23.3 1.3 32.2-20.2 6.2-15.6-9.2-22.6-27-22.6"/><path fill="#FDB927" d="M118.8 427H115c-14.8-.5-30.2-8.5-36.2-12.1-2.1-1.3-4.3-1.8-6.3-1.8-6.9 0-11.4 7-11.5 7l-.1.2h-9.7l30.7-49.8h8.3l-.3.6c-6.7 14.3-8 26-3.7 35.2 3.7 7.8 10.7 11.5 13.9 12.4 2.1.6 5.2 1.3 9 1.3 7.1 0 17.1-2.8 23.5-15.7 4.4-8.9 5.6-24.7-13.7-49.4l-.3-.5c-.5-.6-1.2-1.4-2.1-2.3-7-7.7-23.4-25.8-13.7-54.4 10.6-31.2 35.2-35.8 48.9-35.8 6.1 0 10.4.9 10.4.9 8.2.5 16.5 5.8 22.5 9.8 1.3.8 2.3 1.5 3.3 2.2 1.7 1 3.7 1.6 5.9 1.6 7 0 13.8-5.6 13.9-5.6l.3-.3 3.8 6.3-26 42.2-3.7-7.4.2-.2c4.8-5.2 2.4-20.4 2.4-20.6-3.8-12.4-13-19.8-24.8-19.8-9 0-17.4 4.7-21.2 12.1-8 15.1 3.9 36.3 12.2 46.3 8.6 10.6 27.9 38.2 19.7 66.2 7.7-.3 11.1-5.1 11.2-5.2.2-.5 30-54.1 33.2-60.1.7-1.4.8-2.4.3-3.3-1.3-2.3-6.1-2.5-6.2-2.5h-.7l2.7-4.6h33c12.9 0 22.7 3.5 26.6 9.3 2.5 3.8 2.7 8.4.5 13.7-8 19.5-27.9 20.4-31.7 20.4h-2.2c-10.6 0-14.9-1.7-16.3-2.4-1.7 3.2-13.6 25-15.3 28.6-.8 1.6-.9 2.8-.5 3.8.7 1.3 2.7 2.1 5.8 2.4l.7.1-3.2 5.2h-39.8c-7.4 17.1-24.2 26-49.9 26zm-46.3-14.9c2.3 0 4.5.7 6.8 2 5.9 3.5 21.2 11.5 35.7 12h3.8c25.8 0 42-8.5 49.2-26l.1-.2H208l2.2-3.6c-3-.5-5-1.3-5.6-2.8-.7-1.2-.5-2.8.5-4.6 2-3.8 15.4-28.7 15.6-28.9l.2-.5.5.3s3.9 2.7 17.4 2.5h.8c3.8 0 23.2-.9 30.9-19.8 2.1-5.1 2-9.3-.5-12.9-3.8-5.6-13.5-9-25.9-9h-32.5l-1.6 2.9c1.5.2 5.1.8 6.2 3 .7 1.2.6 2.7-.3 4.3-3.3 6-33 59.6-33.2 60.1-.2.2-3.9 5.5-12.6 5.5h-.6l.2-.6c0-.1.1-.2.1-.3l.1-.1c8.2-27.7-10.9-55-19.5-65.4-8.4-10.3-20.5-31.8-12.3-47.4 4-7.6 12.7-12.6 22-12.6 12.1 0 21.7 7.7 25.6 20.5.1.7 2.5 15.4-2.4 21.2l2.8 5.4 24.8-40.5-3-5c-1.6 1.3-7.7 5.5-14.1 5.5-2.3 0-4.5-.6-6.3-1.7-1-.6-2.2-1.4-3.3-2.2-6-3.9-14.2-9.2-22.1-9.7-.1 0-4.3-.9-10.3-.9-13.5 0-37.6 4.6-47.9 35.3-9.5 28.1 6.7 46 13.6 53.6.9 1 1.6 1.7 2.1 2.4l.3.3c19.6 25.1 18.3 41.3 13.8 50.4-6.6 13.4-16.8 16.1-24.3 16.1-3.9 0-7.1-.7-9.2-1.3-3.3-.9-10.7-4.8-14.5-12.9-4.3-9.1-3.1-21 3.5-35.3h-6.7l-29.6 47.9h7.7c.6-1 5.1-7 11.9-7zm156.6-52.9c-2.3 0-4.5-.5-6.7-1.5l-.5-.2 17.4-32h.2s1.2-.2 2.8-.2c3.7 0 9.9 1.3 9.9 9.3.1 9.4-10.5 24.6-23.1 24.6zm-5.9-2.2c1.8.8 3.9 1.3 5.9 1.3 11.9 0 22.2-14.9 22.2-23.7 0-7-5-8.5-9-8.5-1.2 0-2 .1-2.4.2L223.2 357zm207.5 109.8l17.3-10.1-18.8 7.3 10.9-16.5-13.3 14.3-8.2-18.3 4.3 19.8-18-8.3 14.9 10-19.7 5.9 20.1-3.2-18.2 15.1 20.2-12.4-7.4 18.3 9.6-17.1 2.2 19.8 2.4-19.6 14.1 12.8-12.9-15.4 18.6 7-18.1-9.4zm-3.7 24.8h-.9l-2-18.4-8.9 15.8-.8-.3 6.9-17.1-19 11.8-.5-.7 16.9-14.2-18.3 2.9-.2-.8 18.6-5.6-13.9-9.5.5-.8 17.2 7.8-4-18.9.8-.2 7.8 17.8 12.8-13.8.7.6-10.2 15 17.5-6.8.3.8-16.6 9.8 17.3 9.1-.3.8-16.9-6.5 11.9 14.2-.7.6-13.4-12.2-2.6 18.8zm-2.3-21.4l1.8 17.4 2.1-16.7 9.7 8.9-9.8-11.6 13.3 5.1-12.1-6.3 13.3-8-15 5.9 8.6-12.9-9.9 10.7-6.7-15.1 3.6 16.5-13.8-6.3 11.1 7.5-14.1 4.1 14.9-2.4-14.6 12.2 16.1-9.9-5.3 13.4 6.8-12.5z"/><path fill="#fff" d="M252.4 204.3l4.8 11.6 7.5-12.7-3.2 12.1 9.7.6-9.1 2.8 5.2 4.3-6.1-2 2.2 9.5-4.3-8.3-1.4 7.3-1.4-5.3-9 7.7L254 220l-7.6 2.5 6.5-3.9-9.7-2.5 10.8.3-6.7-5.8 7 3.1-1.9-9.4zm77.7 30.1l6.1 2.9-1.6-7.7 3 5.9 4-3.1-2.5 4.3 3.5-.1-3.1 1.3 4.3 3-4.6-1.7 2.1 3.3-2.4-1.6-.8 6.2-1.6-7-2.1 3.7 1.2-3.8-4.7 2.4 4.4-3.7-4.6.1 3.8-1.3-4.4-3.1zM212.2 470.1l10.7 1.2-6.5-10.8 7.7 7.4 4.4-6.9-1.6 7.8 5.3-2.1-4 3.7 8 2.3-8-.2 5 4-4.5-1.3 2.1 9.9-6.1-9.8-1.3 6.7-.3-6.5-5.9 6.2 4.7-8-6.9 2.7 5.2-4-8-2.3zm113.4 6.1l9.7 10.8 3.3-16.6 1 14.3 10.6-3-8.8 6.5 7.1 2.7-7.3.1 5.9 9.5-7.7-7.5 1.3 8.5-3.5-5.2-6.8 11.6 2.8-15.3-7.3 5.5 5.4-6.7-11.4.9 11.9-3.7-9.3-3.7 8.8.7-5.7-9.4zM418 462l6.8 3.2-1.8-8.4 3.3 6.5 4.5-3.5-2.9 4.7 3.9-.2-3.5 1.5 4.7 3.3-5.2-2 2.3 3.7-2.7-1.7-.9 6.9-1.7-7.8-2.3 4 1.3-4.1-5.2 2.7 4.8-4.1-5.2.2 4.3-1.4-4.5-3.5z"/><path fill="#552583" d="M560.5 231.8c-5.6-1.4-11.1-2.8-15.9-4.4l.1-1.2 18.6-1.5-2.2-6.8-.6-1.8 1.5 1.2 9 6.5 11.1-.8-4.7-7.8-1.2-1.8 2 .9 14.9 7.5 27.5-3.1c-21.3-12.4-35.8-16.6-80-17.3h-1.3l.8-1c.7-.8 1.5-2 2.5-3.3 2-2.7 4.8-6.7 9.6-12.6l-6.3-4.3-1.5-1 1.8-.1 11.3-.6c.6-.7 1.5-1.8 2.5-3.1.9-1.2 2-2.4 2.7-3.2l-6.7-3.6-1.8-1 2.1-.1 10.9-.8c8.1-9.3 17.2-19.4 20.1-22.6-36.4.3-59.6 28.6-70.8 42.2-2.4 3-4.5 5.4-5.9 6.7l-.8.7-.2-1c-.5-2.3-.8-4.6-1.3-7.1-3.1-18.1-6.9-40.5-35.7-62.2l3.2 19.6 11.1 7.5 1.6 1.2h-2l-9.3.2 1.4 8.3 10.9 6.2 1.8 1-2.2.1-9.3.5c.6 3.5 2.9 18.6 3.2 21l.1 1.3-1-.6c-1.7-1-3.5-2.2-5.5-3.6-13.1-8.8-34.9-23.4-85.1-15.1 4.4 2.2 16.1 8.4 21.9 11.2 1 0 8.8-2.2 15.6-4.4l2.2-.7-1.5 1.7-7.1 8.1 6.5 3 14.3-3.1 2.3-.5-1.7 1.5c-2.7 2.4-5.5 5.3-6 6.2 2.8 1.4 6 3.2 9.2 5.1 3.3 2 6.5 3.8 8.4 4.6l-.3 1.2c-2.1-.2-4.5-.7-6.9-1-18.3-3-49-7.8-91.9 10.1 5.3.7 18.6 2.5 23.2 3.3 1 0 8-3.6 14.2-7l.7.9c-2.9 2.9-6 6.1-6.9 7.5 2 .3 3.9.7 5.6.9 2.2.3 4.4.7 6.9 1.2.9.1 7.4-2.5 13-5.2l2.1-.9-1.3 1.8c-1.5 2.2-3 5-3.2 5.9 14.5 2.8 40.2 6.6 51.4 7.7l.1 1.3c-2.9.8-7 1.3-12.3 2-19.6 2.3-52.2 6.2-72.7 33.7l25.5-4.1 11.2-10.4 1.6-1.5-.6 2.2-2.7 8.9 11.2-1.7 10-10.7 1.3-1.4-.2 2-1.3 9.5c2.9-.3 12.6-1.6 15.6-2.1l.3 1.2c-31.7 10.9-37.5 26.9-38.4 30.9 1.5-.5 8.2-2.4 8.2-2.4l5.6-1.6 13.5-4.3 6.7-9.6 1.2-1.7v2.1l-.1 7 7.7-2.1 5.2-8.9 1.2-1.8v2.2l.1 7.5 27.9-8.8.3-.1.2.2 22.1 19.1 1.6-7.3h1.3l2.4 10.8 6.3 4.8 1.4-8.2 1.2-.1 4 13.4 18.2 13.8c-.7-5.3-4.5-25-21.7-43.7l.8-.9 4.4 2.8c5.9 3.6 14.5 9 18.6 11.4.3-1.3.6-5.2.6-8.5l1.2-.2c1.5 4.1 3.9 10.4 4.5 11.1l7 3.9s3.1 1.7 3.9 2.2c.3-1.3.8-5.2 1.2-8.9l1.3-.1c2 6 4.4 12.7 5 13.5 8.5 4.8 20.9 11.2 24.4 12.9-.6-5.1-5.4-28.6-47-54.5l.6-1.2c1.8.6 16.8 4.4 20.6 5.3l-1.4-10.3-.3-2.3 1.4 1.8 9.7 13 15.1 3.7-.9-10.9-.1-2.4 1.3 2.1 8.2 13.1 23.4 5.2c-19-27.9-46.3-34.7-68.3-40.2zm-13.2 82.3l-19.1-14.5-3.9-13.1h-.5l-1.5 8.6-7.1-5.4-2.4-10.6h-.6l-1.7 7.6-22.8-19.7h-.1l-28.4 8.9-.2-8.9-5.6 9.6-8.4 2.3.1-8.2-7 10.3-13.7 4.3v-.1c-.6.2-2 .7-5.5 1.7 0 0-6.7 2-8.2 2.4l-.7.2.2-.7c1.2-4.6 7.1-20.2 38.3-31l-.1-.5c-3.2.5-12.1 1.6-15.2 2.1l-.6.1L434 249l-10.5 11.3-12 1.8 3-10.1-11.8 11h-.1l-26.6 4.3.7-.9c20.6-27.7 53.4-31.6 73-33.9l.6-.1c4.8-.6 8.6-1 11.4-1.7v-.5c-11.4-1.3-36.9-5.1-51.1-7.7l-.5-.1.1-.5c.2-1 1.8-3.8 3.2-6l.3-.6-.6.2c-4.4 2.1-11.8 5.3-13.1 5.3h-.1c-2.5-.5-4.8-.8-6.9-1.2-1.8-.2-3.7-.6-5.6-.9l-.7-.1.5-.6c1-1.4 4-4.6 6.7-7.3l-.2-.3c-4.4 2.5-12.6 6.9-13.9 6.9-5.1-.9-20.3-3-23.3-3.3l-1.6-.2 1.5-.6c21-8.8 41.1-13 61.4-13 12.6 0 22.6 1.6 30.8 2.9l.7.1c2.1.3 4.1.7 5.9.9l.1-.5c-2-.8-5-2.7-8.1-4.5s-6.3-3.7-9.1-5.1l-.5-.2.2-.5c.6-1 3.5-4 6.1-6.5l.5-.5-15.1 3.2-7.1-3.2 8.1-9-.6.2c-5.8 1.8-14.4 4.4-15.7 4.4h-.2c-5.2-2.5-15.1-7.7-20.4-10.4l-2.8-1.4 1.3-.2c9.9-1.6 19.2-2.4 27.9-2.4 31.2 0 47 10.6 57.5 17.6 2.1 1.4 3.8 2.5 5.5 3.6l.3.2v-.3c-.2-2.4-2.7-18-3.1-20.9l-.1-.5 10.5-.5-11.6-6.6-1.5-9 10.4-.2-11.8-8-3.5-21 .9.7c28.9 21.8 32.7 44.4 35.8 62.5.3 2.3.8 4.7 1.3 7.1l.1.3.2-.2c1.5-1.4 3.6-3.9 5.9-6.7 11.2-13.6 34.5-42 71.1-42.4h1l-.7.8c-1.8 2.1-11.4 12.6-20.1 22.6l-.1.1-11.8.9 7.7 4.1-.3.5c-.3.5-.8 1-1.4 1.6-.5.5-.8 1-1.3 1.6-1 1.3-2 2.4-2.5 3.1l-.1.1h-.2l-11.9.7.5.3 6.8 4.5-.3.9c-4.5 5.8-7.5 9.8-9.5 12.4l-.1.1c-1 1.4-1.8 2.4-2.5 3.3l-.2.2h.3c44.5.8 59 5.1 80.2 17.4l1.2.7-29 3.3-.1-.1-15.3-7.7.3.5 5.1 8.4-11.9.8-9.6-6.8 2.5 7.8-18.8 1.5-.1.5c4.7 1.5 9.9 2.9 15.6 4.3 22.1 5.5 49.6 12.4 68.3 40.1l.6.9-24.7-5.4-8.6-13.8.7 11.6-15.9-3.8-10.3-13.7 1.5 11.5-2.1-.5c-5-1.3-16.3-4-18.9-4.8l-.2.5c41.7 26.2 46.3 50 46.9 54.6l.1.8-1.4-.7c-4.3-2.2-15.7-8.1-23.7-12.6l-.1-.1c-.7-.9-3.2-8.3-5-13.3h-.5c-.2 3.2-.7 7.1-1.2 8.5l-.1.6-4.4-2.4-7.1-4.1c-.7-.9-3.7-9.1-4.4-10.8l-.5.1c-.1 3.1-.3 6.9-.6 8.3l-.1.6-.6-.3c-3.5-2.1-10.4-6.3-16-9.8l-6.6-4.1-.3.3c17.1 18.7 20.7 38.2 21.6 43.7l-.2.6zM528.9 299l17.2 13c-1-6.7-5.3-24.9-21.4-42.4l-.2-.2 1.3-1.5 7.3 4.5c5.3 3.3 11.9 7.4 15.4 9.5.2-1.6.5-4.8.5-7.8v-.3l2-.3.1.3c1.7 4.7 3.8 10 4.4 10.9l10.3 5.8c.3-1.5.7-4.7.9-8.2v-.3l2-.2.1.3c2.2 6.5 4.4 12.3 4.8 13.3 8 4.5 19.1 10.3 23.5 12.4-.9-6.1-7.1-28.7-46.7-53.4l-.3-.2.8-1.8.3.1c1.6.6 13.9 3.7 19.2 5l.8.2-1.8-13.6 2.4 3.2 9.7 12.9 14.4 3.5-.7-12.1.8-.2 1.3 2.1 8.1 12.9 22.1 5c-18.7-26.6-45.5-33.4-67.2-38.8-5.9-1.5-11.2-2.8-16-4.4l-.3-.1.2-2 18.3-1.5-3.1-9.5 2.7 2 8.9 6.3 10.1-.7-6.2-10.4 18.1 9.1 26-3c-20.4-11.8-35.2-15.8-78.6-16.6h-2.1l1.3-1.7c.7-.8 1.5-2 2.4-3.3l.1-.1c1.8-2.5 4.7-6.5 9.1-12.1l-8.6-5.8 3.1-.1 11.1-.6c.6-.7 1.5-1.8 2.4-3 .5-.6.9-1 1.3-1.6.3-.5.7-.8 1-1.3l-9.5-5.1 14.4-1c7.8-9.1 16.4-18.6 19.2-21.7-35.6.9-58.4 28.6-69.4 42.1-2.3 2.8-4.4 5.4-6 6.8l-1.4 1.3-.3-1.8c-.5-2.3-.9-4.7-1.3-7.1-3-17.8-6.8-39.9-34.6-61.3l3.1 18.3 13.7 9.2-12.1.2 1.3 7.5 13.8 8-12.6.6c.6 3.9 2.9 18.1 3.1 20.5l.2 2.1-1.8-1c-1.7-.9-3.5-2.2-5.5-3.6-10.4-6.9-26-17.5-57.1-17.5-8.2 0-17.1.8-26.4 2.2l.3.2c5.3 2.8 15.1 7.7 20.3 10.4 1.3-.1 8.2-2.1 15.3-4.4l3.7-1.2-9.3 10.5 5.8 2.7 18.1-3.8-2.9 2.7c-2.5 2.3-4.8 4.6-5.6 5.8 2.8 1.4 5.8 3.1 8.8 4.8 3.1 1.8 6.3 3.8 8.3 4.5l.3.1-.5 2h-.3c-1.8-.2-4-.6-6.3-.9l-.7-.1c-8.1-1.3-18.1-2.9-30.5-2.9-19.7 0-39.2 4-59.6 12.3 5.4.7 17.3 2.4 21.6 3.2.8 0 7-3.1 13.8-6.9l.3-.2 1.2 1.6-.4-.3c-2.4 2.4-5.2 5.3-6.5 6.9 1.7.3 3.3.6 4.8.8 2.1.3 4.4.6 6.9 1.2.9 0 6.7-2.4 12.7-5.2l3.5-1.6-2.2 3.2c-1.4 2-2.5 4.1-3 5.2 14.4 2.7 39.8 6.5 50.8 7.7h.3l.1 2-.3.1c-2.8.8-6.8 1.3-11.9 1.8l-.6.1c-19.2 2.3-51.3 6.1-71.7 32.6l24.3-3.9 13.9-12.9-3.5 11.9 10.4-1.6 12.1-13.1-1.6 12.2c3.6-.5 12.2-1.6 15-2.1h.3l.5 2-.3.1c-29.5 10.1-36.4 24.6-37.9 29.9 2.3-.7 7.5-2.2 7.5-2.2s5.3-1.5 5.5-1.6l13.4-4.1 8.5-12.3-.1 10 6.9-1.8 7-12 .2 10.7 27.9-8.8.5.3 21.6 18.7 1.5-6.8h2l2.5 11.1 5.6 4.4 1.3-7.8 2-.1 5 13z"/><path fill="#FDB927" d="M365.8 357.4l17.1-31.5s12.1-2.4 12.1 8.6c0 11.2-14.8 29.8-29.2 22.9zm-69.2 8.4h-21.8l28-34.8-6.2 34.8m271.6-40.2s-6.2 4.8-11.1 2.1c-3.3-1.8-8.8-5.8-14.1-6 0 0-23.9-5-32 17.5-5.9 16.1 6.5 25.8 8.6 28.5 2.2 2.7 13.3 15.2 7.7 25.5-5.4 10.1-15.2 7.7-18 7.4-2.8-.3-15-6.1-5.8-24.3h-4L485.4 397h-7.3c-1.5 0-6.1-1-6.9-5.3l-7.5-40c11.6-9 28.2-21.9 31-23.9 2.8-2 6.6-4.3 12.8-4.3l1.7-3.6h-24.4l-1.5 3.6c7.1 2.2-1.2 8.6-1.2 8.6l-39 29.2 7.7 34.5c.3 1.7 2.3 4.3 5.3 4.3H477v-.1h6.5c-23.5 34.8-50.6 30.4-50.6 30.4-20.6-1.6-25.5-20.2-28.1-27.7-.1-.5-.5-1.4-.9-2.7h27.8l2.7-4.3s-9.6-.5-6.3-7l67.8-127.2 2.1-2.9 24.6 20.6c-3-8.1-10.6-30.8-10.6-30.8l41.5 19.5-29.9-22.6 45-3.3-48.9-7.6 44.5-25.6-47.3 13.5 20.9-41.5-29.9 31.7s-8.1-27.5-12.8-44l1.6 46.8-41.5-31s20.5 23.7 29.9 36.8l-43.1-8.8 40.9 23.1-43.1 8.8 38.3 4-24.8 15 33.3-6.2c-.1.5-.2.8-.3 1.3l-81 133.2s-.9 1.6-3.2 2.9c-3.9-9.9-11.2-25.7-20.1-31.6 0 0 23.3 1.3 32.2-20.2 6.5-15.6-8.9-22.5-26.7-22.5h-32.2l-3.1 3.7s10 .5 6.7 6.6S324 394 324 394s-1.6 2-5.8 2.3c-3.8-1.2-4.5-3.9-4.4-5.6.2-2 9.7-70.5 9.7-70.5H310c-5 .5-7.5 4.3-7.6 4.4-.1.1-53.1 65.8-53.1 65.8s-4.7 5.4-12.1 5.4l-2 4.3h29.4l1.5-4.3c-3.3 0-9.7-2.8-7.8-6.6 1.4-2.8 13.9-20.3 13.9-20.3h23.3l-3.2 19.5c-1.7 5.1-6.8 6.8-12.3 7.8l-1.3 3.8h34.9c1.4.1 33.4 0 37.9 0l2.7-4.3c-6-1.4-7.6-2.9-5.6-6.8s15.6-28.9 15.6-28.9 6.5-2.9 9.8 10.1c0 0 2.1 13.6 3.3 22.9 1.4 9.3 4.8 38.2 44.1 44.4 36.3 2.5 58.9-24.9 67.5-38.2 1.2-1.3 4.4-3.9 9-1.4 4.8 2.7 12.6 5.9 19.6 6.1 9.3.2 25.4-.7 30.1-15.8 4.7-15-7.5-29.5-10.8-33.2-3.2-3.7-11.5-15.2-6.8-23.6 4.8-8.5 21.2-9.3 25.6 4 0 0 1.5 7.8-1.3 10.6l1.7 3.2 13.8-20.9-1.6-2.6"/><path fill="#FDB927" d="M426.1 438.3c-1.5 0-3.1 0-4.6-.1-39.1-6.1-43.2-34.8-44.5-44.3l-.1-.5c-1.4-9.3-3.3-22.9-3.3-22.9-3-11.3-8.2-10.1-9.1-9.9-1.2 2.1-13.7 25.1-15.6 28.8-.7 1.5-.9 2.5-.6 3.3.6 1.2 2.2 2 5.9 2.8l.6.1-3.1 5.1H278l1.5-4.6h.2c5.3-.9 10.4-2.5 12-7.6l3.1-18.9h-22.7c-1.4 1.8-12.4 17.4-13.8 20.1-.5.9-.3 1.7.1 2.5 1.2 2 4.8 3.5 7.3 3.5h.6l-1.8 5.2h-30.4l2.4-5.2h.2c7.1 0 11.8-5.2 11.8-5.3 53.1-65.8 53.1-65.8 53.1-65.9 1.2-1.5 3.8-4.1 8-4.5h13.8l-.1.5c-.1.7-9.5 68.7-9.7 70.5-.1.9-.1 3.8 3.9 5.1 3.8-.5 5.3-2.2 5.4-2.2 0 0 31.6-57.4 34.9-63.5.7-1.3.8-2.4.3-3.2-1.4-2.4-6.7-2.7-6.7-2.7h-.9l3.8-4.6h32.4c12.9 0 22.7 3.5 26.6 9.3 2.5 3.8 2.7 8.4.5 13.7-7.6 18.6-26 20.3-31.1 20.4 8 6.1 14.6 19.7 18.9 30.5 1.8-1.2 2.7-2.4 2.7-2.5L485.7 258c0-.2.1-.3.1-.6l-32.6 6.1-.3-.8 23.6-14.3-37-3.9v-.9l42-8.5-39.9-22.5.3-.8 41.8 8.5c-9.5-13-28.9-35.5-29.2-35.7l.6-.7 40.8 30.4-1.6-45.9.9-.1 12.7 43.3 29.3-31.1.7.5-20.4 40.7 46.3-13.3.3.8-43.2 25 47.6 7.4v.9l-43.8 3.2 28.9 21.9-.5.8-40.6-19c1.5 4.5 7.6 22.8 10.3 29.7l.6 1.6-25.4-21.3-1.7 2.4-52.7 98.8 38.4-28.7c1.2-.9 4.1-3.7 3.8-5.8-.1-.9-1-1.6-2.5-2.1l-.5-.1 1.8-4.4h25.5L508 324h-.5c-5.6 0-9.3 2-12.4 4.1-1.7 1.2-8.4 6.3-16.1 12.3-4.8 3.8-10.1 7.8-14.6 11.3l7.4 39.6c.8 4 5.4 5 6.6 5h7l14.2-20.9h5l-.3.7c-3.7 7.3-4.3 13.4-1.8 17.9 2.3 4.3 6.3 5.6 7.4 5.8.2 0 .5.1.8.1 1 .1 2.5.3 4.3.3 5.6 0 9.8-2.5 12.6-7.6 2.3-4.4 3-12.2-7.5-24.7l-.2-.2c-.2-.2-.6-.7-1-1.2-3.6-3.6-13-13.1-7.7-27.8 5.8-15.9 19.2-18.2 26.9-18.2 3.3 0 5.6.5 5.6.5 4.5.2 9.1 3 12.4 5 .7.3 1.3.8 1.8 1 .9.6 2 .8 3.1.8 3.8 0 7.5-2.8 7.5-2.9l.3-.3 2.3 3.5-.1.2-14.2 21.4-2.3-4.1.2-.2c2.5-2.5 1.3-10.1 1.2-10.1-2.1-6.1-7-9.8-13.4-9.8-4.8 0-9.3 2.3-11.4 6-5.3 9.5 6.2 22.6 6.7 23.2 5.9 6.7 15.2 19.9 10.8 33.7-3.3 10.7-12.9 16.1-28.5 16.1H518c-8.2-.2-16.6-4.4-19.8-6.1-1.3-.7-2.4-1-3.6-1-2.4 0-4.1 1.5-4.8 2.3-9.9 14.4-30.6 38.6-63.7 38.6zm-60.5-78.8c2.2 0 6.3 1.4 8.8 10.8 0 0 2.1 13.7 3.3 23.1l.1.5c1.5 10.3 5.4 37.3 43.8 43.5 1.5.1 3 .1 4.5.1 32.6 0 53.3-23.9 62.6-38.2.9-1 2.9-2.7 5.5-2.7 1.3 0 2.7.3 4 1.2 3.2 1.7 11.5 5.8 19.5 6h2.1c15.3 0 24.3-5.1 27.7-15.4 4.1-13.3-4.8-26.3-10.7-32.7-4.6-5.2-11.3-16.1-6.8-24.2 2.2-3.9 7-6.5 12.2-6.5s11.6 2.8 14.2 10.5c.1.3 1.4 7.7-1.2 10.8l1.3 2.3 13.3-20.1-1.5-2.2c-1 .8-4.3 2.8-7.6 2.8-1.3 0-2.5-.3-3.6-.9-.6-.3-1.2-.7-1.8-1-3.2-2-7.7-4.6-12.1-4.8-.1 0-2.3-.5-5.5-.5-7.3 0-20.4 2.3-25.9 17.6-5.1 14.1 3.7 23.1 7.5 26.9.5.5.8.9 1.2 1.2l.2.2c10.8 12.8 10.1 21 7.6 25.7-2.9 5.4-7.4 8.2-13.4 8.2-1.7 0-3.3-.2-4.4-.5-.2 0-.6-.1-.7-.1-1.6-.2-5.8-2.1-8.1-6.2-2.5-4.7-2-10.7 1.6-18.1h-3.1l-14.4 20.7h-7.5c-2.1 0-6.6-1.4-7.4-5.6l-7.5-40.2.2-.1c4.6-3.5 9.9-7.6 14.9-11.4 7.8-6 14.5-11.2 16.3-12.4 3.2-2.2 6.9-4.3 12.7-4.4l1.3-2.8h-23.4l-1.2 2.9c1.6.6 2.5 1.5 2.8 2.7.6 3-4 6.5-4.1 6.6l-38.7 29 7.6 34.1c.3 1.6 2.2 3.9 4.8 3.9h20.5l.3-.1 7.3.1-.5.7c-18.9 27.5-39.8 30.5-48 30.5-2 0-3.1-.2-3.2-.2-19.4-1.5-25.1-18.2-27.8-26.3-.2-.6-.5-1.3-.6-1.7-.1-.5-.5-1.4-.9-2.7l-.2-.6h28l2.2-3.5c-1.5-.2-4.8-.8-6.2-3-.7-1.3-.7-2.8.1-4.6L495.4 261l2.4-3.2 23.6 19.9c-3.2-9-9.9-29-10-29.2l-.3-1 38.6 18.2-27.4-20.7 42.3-3.1-46.2-7.1 42.3-24.6-44.8 12.8 19.9-39.8-28.1 30.2-12-41.5 1.5 44.3-39.2-29.1c5.9 6.8 20.1 23.6 27.2 33.7l.7.9-41.3-8.4 39.5 22.2-41.5 8.4 36.8 3.9-23.7 14.4 31.6-5.9-.5.9-.3 1v.1l-81 133.2s-1 1.7-3.5 3.1l-.5.2-.2-.5c-4.4-11.3-11.4-25.8-19.8-31.5l-1.4-.9 1.6.1h.7c3.8 0 23.2-.9 30.9-19.9 2.1-5.1 2-9.3-.5-12.9-3.8-5.6-13.5-9-25.9-9h-32l-2.4 2.9c1.7.2 5.3.9 6.6 3.1.7 1.2.6 2.5-.3 4.1-3.3 6.1-34.9 63.6-34.9 63.6-.1.1-1.8 2.1-6.1 2.5h-.2c-3.8-1.2-5-3.9-4.7-6.1.2-1.8 8.6-63.3 9.6-70.1h-12.8c-3.8.3-6.1 2.8-7.3 4.1l-.1.1c-.9 1.2-52.6 65.1-53.1 65.8-.2.2-4.8 5.4-12.2 5.5l-1.6 3.5h28.5l1.2-3.5c-2.4-.2-6-1.5-7.4-3.8-.7-1-.7-2.3-.1-3.3 1.4-2.8 13.5-19.6 13.9-20.3l.1-.2h24.2l-3.3 20.1c-1.8 5.4-7.3 7.1-12.4 8.2l-1 3h72l2.2-3.6c-3.6-.9-5.3-1.8-5.9-3.1-.5-1-.3-2.3.6-4 2-3.8 15.4-28.7 15.6-29l.1-.1.1-.1c.2.2.7 0 1.8 0zm39 41.1l.7 2.1c.2.6.3 1.2.6 1.7 2.9 8.4 8.3 24.2 27.1 25.6 0 0 1.2.2 3.1.2 8 0 28.2-2.9 46.7-29.7h-5.2l-.3.1h-20.9c-3.2 0-5.3-2.8-5.8-4.6l-7.6-34.1-14.5 27.2c-.7 1.5-.8 2.8-.2 3.7 1.4 2.4 6.2 2.7 6.2 2.7h.8l-3.2 5.2-27.5-.1zm-107.5-34.3H274l28.6-35.5.8.3-6.3 35.2zm-21.3-1h20.5l5.9-32.7-26.4 32.7zm96.5-6c-2.3 0-4.5-.5-6.7-1.5l-.5-.2 17.4-32h.2s1.2-.2 2.8-.2c3.7 0 9.9 1.3 9.9 9.3 0 9.4-10.6 24.6-23.1 24.6zm-5.9-2.1c2 .8 3.9 1.3 5.9 1.3 11.9 0 22.2-14.9 22.2-23.9 0-7-5-8.5-9-8.5-1.2 0-2 .1-2.4.2l-16.7 30.9z"/><path fill="#fff" d="M505.5 220.7l12.4-10.2-9.6 17.6 21.8-4-22.5 10.8 21.1 6.4-13.1.9 7.2 7.2-17.5-6.5L512 262l-11.9-11.2-16.2 21.5 7-21.1-17 3.1 14.4-8.4-18.3-2.7 21.8-6.5-24.1-15.1 26 5.8-11.1-16.9L501 223l-.9-20.6z"/><path fill="#FDB927" d="M217.7 299.3h2.8l-4.5 8.3h8.6l-1 2h-11.4l5.5-10.3zm6.2 10.7h-12.4l6-11.2h3.7l-4.5 8.3h8.8l-1.6 2.9zm-11-.9h10.5l.6-1h-8.8l4.5-8.3H218l-5.1 9.3zm31.2-1.5l3.6-6.5h-9l-3.6 6.5h9zm-4.3-8.3h8.6c2.2 0 2.7.5 1.6 2.4l-2.9 5.4c-1 2-2.1 2.4-4.1 2.4h-8.6c-2.2 0-2.7-.5-1.6-2.4l2.9-5.4c1-1.9 1.9-2.4 4.1-2.4m3.1 10.7h-8.6c-1 0-2-.1-2.4-.7-.3-.7 0-1.5.5-2.3l2.9-5.4c1.2-2.1 2.2-2.7 4.6-2.7h8.6c1.2 0 2.1.1 2.4.7.3.7 0 1.5-.5 2.3l-2.9 5.4c-1.1 2-2.1 2.7-4.6 2.7zm-3.1-10.2c-2.1 0-2.9.5-3.8 2.2l-2.9 5.4c-.6 1-.6 1.4-.5 1.5.1.1.5.3 1.6.3h8.6c2.1 0 2.9-.5 3.8-2.2l2.9-5.4c.6-1 .6-1.4.5-1.5-.1-.1-.5-.3-1.6-.3h-8.6zm4.6 8.3h-10l4-7.4h9.9l-3.9 7.4zm-8.5-1h8l3-5.6H239l-3.1 5.6zm26.7-6.1l-1.2 2.2h7.3c2.2 0 2.7.5 1.6 2.4l-.8 1.4c-1 2-2.1 2.4-4.3 2.4H258c-2.2 0-2.7-.5-1.6-2.4l.1-.2 2.7-.5-.7 1.2h8.3l1.3-2.3H261c-2.2 0-2.7-.5-1.6-2.4l.6-1.2c1-2 2-2.4 4.1-2.4h6.6c2.1 0 2.7.5 1.7 2.3l-.1.2-2.7.5.6-1.2h-7.6zm2.8 9h-7.3c-1 0-2.1-.1-2.4-.8-.3-.7 0-1.5.5-2.3l.2-.5 3.7-.6-.7 1.4h7.3l.8-1.5h-6.6c-1.2 0-2.1-.1-2.4-.7-.3-.7 0-1.5.5-2.3l.6-1.2c1.2-2.1 2.2-2.7 4.6-2.7h6.6c1 0 2.1.1 2.4.8.3.7 0 1.5-.3 2.2l-.2.3-3.8.7.7-1.3H263l-.7 1.4h6.6c1.2 0 2.1.1 2.4.7.3.7 0 1.5-.5 2.3l-.8 1.4c-1.1 2-2.3 2.7-4.6 2.7zm-8.4-2.8c-.6 1-.6 1.4-.5 1.5.1.1.5.3 1.6.3h7.3c2.1 0 2.9-.5 3.8-2.2l.8-1.4c.6-1 .5-1.4.5-1.5-.1-.1-.5-.3-1.6-.3h-8.1l1.7-3.1h8.6l-.6 1 1.5-.3c.5-.9.5-1.2.3-1.3s-.5-.3-1.6-.3h-6.6c-2.1 0-2.9.5-3.8 2.2l-.6 1.2c-.6 1-.5 1.4-.5 1.5.1.1.5.3 1.6.3h8.1l-1.7 3.2H258l.6-1-1.6.2zm44.1-1.8l-.2-4.1-4.8 4.1h5zm-.4-6.1h2.7l1.2 10.3h-3l-.2-2.2H294l-2.5 2.2h-2.8l12-10.3"/><path fill="#FDB927" d="M304.9 310H301l-.2-2.2H294l-2.5 2.2h-4.1l13.3-11.2h3.2l1 11.2zm-3.1-.9h2.2l-1-9.3h-2.1l-11.1 9.3h1.4l2.5-2.2h8l.1 2.2zm-.2-3.2h-6.8l6.5-5.5.3 5.5zm-4.4-1h3.5l-.2-2.8-3.3 2.8zm20.7-5.6h1.8l5 6c.2.3.6.7.7 1.2.3-.8.7-1.4.8-1.7l2.9-5.4h2.4l-5.5 10.3h-1.8l-5.2-6.3c-.2-.2-.3-.6-.5-.8-.3.8-.6 1.3-.8 1.6l-3 5.5h-2.4l5.6-10.4zm8.4 10.7H324l-5.3-6.5-.1-.1c-.1.3-.3.6-.5.9l-3.1 5.8h-3.5l6-11.2h2.3l5.1 6.2c.1.1.2.2.3.5.2-.5.3-.8.5-1l3-5.6h3.5l-5.9 11zm-1.9-.9h1.4l5.1-9.3h-1.4l-2.8 5.2c-.1.3-.5.9-.8 1.7l-.5.9-.3-.9c-.1-.3-.5-.7-.7-1l-4.8-5.9h-1.4l-5.1 9.3h1.4l2.9-5.3c.2-.5.5-1 .8-1.6l.3-.9.5.9c.1.2.2.5.5.8l4.9 6.1zm18.7-8l-3.6 6.5h8.5l1.3-2.3h-4.4l.9-1.7h7l-2 3.6c-1 2-2 2.4-4.3 2.4h-8.1c-2.2 0-2.7-.5-1.6-2.4l2.9-5.4c1-2 2.1-2.4 4.3-2.4h8.1c2.1 0 2.7.5 1.6 2.3 0 .1-.1.1-.1.2l-2.9.5.6-1.2h-8.2zm3.7 8.9h-8.1c-1 0-2.1-.1-2.4-.7-.3-.7 0-1.5.5-2.3l2.9-5.4c1.2-2.1 2.2-2.7 4.6-2.7h8.1c1 0 2.1.1 2.4.7.3.7 0 1.5-.3 2.2-.1.1-.1.1-.1.2l-.1.2-3.9.6.7-1.3h-7.5l-3 5.6h7.5l.8-1.4h-4.5l1.5-2.7h8.1l-2.3 4.1c-1.5 2.2-2.5 2.9-4.9 2.9zm-2.6-10.2c-2.1 0-2.9.5-3.8 2.2l-2.9 5.4c-.6 1-.6 1.4-.5 1.5.1.1.5.3 1.6.3h8.1c2.1 0 2.9-.5 3.8-2.2l1.6-2.9H346l-.5.8h4.4l-1.7 3.2h-9.5l4-7.4h9.5l-.6 1 1.7-.2c.5-.9.5-1.3.3-1.4-.1-.1-.5-.3-1.6-.3h-8zm20.8-.5h12l-.9 1.7h-9.2l-1.3 2.3h5.3l-.9 1.7h-5.3l-1.4 2.5h9.3l-1 2h-12.1l5.5-10.2zm6.8 10.7h-13l6-11.2h12.9l-1.4 2.7h-9.2l-.8 1.4h5.4l-1.4 2.7h-5.4l-.9 1.6h9.3l-1.5 2.8zm-11.5-.9h11.1l.6-1h-9.3l1.8-3.5h5.4l.5-.9H365l1.7-3.1h9.2l.5-.9h-10.9l-5.2 9.4zm25.9-9.8h2.7l-4.5 8.3h8.8l-1 2h-11.5l5.5-10.3zm6.1 10.7h-12.4l6-11.2h3.7l-4.5 8.3h8.8l-1.6 2.9zm-10.9-.9h10.5l.6-1h-8.8l4.5-8.3h-1.7l-5.1 9.3zm24.3-9.8h12l-1 1.7h-9.2l-1.2 2.3h5.3l-.9 1.7h-5.4l-1.4 2.5h9.5l-1.2 2h-12l5.5-10.2zm6.8 10.7h-13l6-11.2h12.9l-1.4 2.7h-9.2l-.8 1.4h5.4l-1.4 2.7h-5.4l-.9 1.6h9.3l-1.5 2.8zm-11.7-.9h11.1l.6-1h-9.3l1.8-3.5h5.4l.5-.9h-5.4l1.7-3.1h9.2l.5-.9H406l-5.2 9.4zm27.5-8.1l-1.2 2.2h7.3c2.2 0 2.7.5 1.6 2.4l-.8 1.4c-1 2-2.1 2.4-4.3 2.4h-7.3c-2.2 0-2.7-.5-1.6-2.4l.1-.2 2.7-.5-.7 1.2h8.3l1.3-2.3h-7.3c-2.2 0-2.7-.5-1.6-2.4l.6-1.2c1-2 2-2.4 4.1-2.4h6.6c2.1 0 2.7.5 1.7 2.3l-.1.2-2.7.5.7-1.2h-7.4zm2.7 9h-7.3c-1 0-2.1-.1-2.4-.8-.3-.7 0-1.5.5-2.3l.2-.5 3.7-.6-.7 1.4h7.3l.8-1.5h-6.6c-1.2 0-2.1-.1-2.4-.7-.3-.7 0-1.5.5-2.3l.6-1.2c1.2-2.1 2.2-2.7 4.6-2.7h6.6c1 0 2.1.1 2.4.8.3.7 0 1.5-.3 2.2l-.2.3-3.8.7.7-1.3h-6.7l-.7 1.4h6.6c1.2 0 2.1.1 2.4.7.3.7 0 1.5-.5 2.3l-.8 1.4c-1 2-2 2.7-4.5 2.7zm-8.4-2.8c-.6 1-.6 1.4-.5 1.5.1.1.5.3 1.6.3h7.3c2.1 0 2.9-.5 3.8-2.2l.8-1.4c.6-1 .5-1.4.5-1.5-.1-.1-.5-.3-1.6-.3h-8.1l1.7-3.1h8.6l-.6 1 1.6-.3c.5-.9.5-1.2.3-1.3s-.5-.3-1.6-.3H430c-2.1 0-2.9.5-3.8 2.2l-.6 1.2c-.6 1-.5 1.4-.5 1.5.1.1.5.3 1.6.3h8.1l-1.7 3.2h-9.2l.6-1-1.9.2z"/></svg>