<svg id="Layer_1" data-name="Layer 1" xmlns="http://www.w3.org/2000/svg" viewBox="0 0 650 650"><defs><style>.cls-1{fill:#fff;}.cls-2{fill:#3c5239;}.cls-3{fill:none;}.cls-4{fill:#a4a8ab;}.cls-5{fill:#f6df3d;}</style></defs><title>storm-primary-logo</title><path class="cls-1" d="M648.59,321.76c-2.81-17.88-20-33-49.76-43.76L614,253.52l-23-48.73-41.24,28.14c-7.43-12.44-20.41-19.7-35.33-19.59-10.88.08-21.12,4.18-28,11a15.71,15.71,0,0,0-13.89-8,17.4,17.4,0,0,0-7.22,1.66,27,27,0,0,0-6.84-14.89,34,34,0,0,0-28.23-10.92,21.05,21.05,0,0,0-5.27-12c-9.31-11-29.46-18-54.17-18.91-1.77-5.82-3.57-20.49-4.36-29.3-1.08-13.17-8.8-17.82-15.65-17.77-9.1.06-18.08,7.83-21.32,18.41-6.75,20.16-13.48,29.27-15.44,31.66-35.51,6.3-56.23,16.19-61.59,29.4a17.05,17.05,0,0,0-.29,12.43c-10.82,4.45-18.39,9.7-23,16-19.73,1-33.35,14.29-36.72,28.13a44.17,44.17,0,0,0-17.57-3.37c-18.15.13-39.07,10.81-44.15,33.9a17.82,17.82,0,0,0-18.3,5.92,18,18,0,0,0-4.22,10.47,25.12,25.12,0,0,0-4-.28c-10.86.08-22.48,6.21-29.6,15.63-4.94,6.53-9.89,17.46-6.33,33-46.9,26.09-69.63,52.86-65.77,77.49,2.24,14.29,13.27,26.55,32.81,36.49-16,11.75-30.3,22.68-30.45,22.8l-3.89,3,4.42,2.12c20.25,9.68,59,20,60.59,20.41l1,0.28,1-.45c0.21-.1,20.09-9.3,43.86-22,5,9.86,16.15,16.44,28.45,16.35a33.84,33.84,0,0,0,14.35-3.31,30,30,0,0,0,24.48,12.09c-8.75,11.89-14.46,18.59-14.52,18.67l-3.84,4.48,5.88,0.46c14,1.09,29.27,1.59,45.34,1.48,14.7-.1,24.74-0.7,24.84-0.71l1.74-.1,15.64-31.82,45.34-3.58c0.08,4.38.49,12.54,1.26,28.15l0.15,3.11,3.1-.27c19.72-1.72,60.58-8.5,61-8.57l3.26-.54-0.86-3.19a323,323,0,0,1-7.38-36A85.39,85.39,0,0,0,388,487c26.75,0.35,54.8-10,75.5-27.72a37.17,37.17,0,0,0,26.08,10.27c9.76-.07,19.14-3.83,25.08-10.06a21.73,21.73,0,0,0,5.93-11.32,30.74,30.74,0,0,0,7,.74h0c11.08-.08,21.87-5.25,28.15-13.49,3.76-4.94,7.56-13.17,5.15-25C621.89,381.44,653,350,648.59,321.76Z"/><path class="cls-2" d="M645.62,322.23c-2.83-18-21.35-32.45-51.31-42.63l16.26-26.27L589.8,209.25l-41.07,28c-13.7-27.71-50.5-25.74-63.49-6.81-0.7-9.45-12.78-15.71-22.91-7,2.16-16.73-15.63-31.76-35.14-27.86,2.26-16-21.26-30.57-58.44-31.45-2.91-6-5.26-32-5.26-32-1.86-22.62-25.31-17.62-31.14,1.34C324,158.59,315.62,167,315.62,167c-78.87,13.72-59.32,40.66-59.32,40.66-10.94,4.12-20.49,9.66-25.54,17.31-21.76.4-34.84,16.53-36,29.64-21.35-12-57.35-1.56-61.71,30.28-10.67-6.09-23.79,3.67-21.62,16.12C95.79,294.86,62.26,312.51,71.78,347,26.92,371.53,1.7,398.22,5.5,422.48c2.29,14.64,14.94,26.89,35.64,36.43C23.43,471.84,6.71,484.61,6.71,484.61c20.23,9.67,60.07,20.21,60.07,20.21s21.36-9.87,46.6-23.46c4.84,14.23,24.79,23.31,42.31,13.34,6.32,10.5,18.52,14.85,29.89,12.26-11.17,15.6-18.66,24.35-18.66,24.35a570.88,570.88,0,0,0,69.76.77L252.3,500.3l50-3.95s1.53,31.23,1.53,31.23c19.83-1.73,60.75-8.54,60.75-8.54a332.28,332.28,0,0,1-8.18-41.52A80,80,0,0,0,388.06,484c27.89,0.36,56-11.13,75.61-28.84,19.91,21.86,55,9,54.2-11,16.32,6.73,47.35-6.3,39.59-35.39C615.83,381.38,650,350.18,645.62,322.23Z"/><path class="cls-3" d="M88.78,372A18.68,18.68,0,0,1,89,366c-10.76,10.5-16,20.05-15.48,28.41,0.36,6.25,3.95,12,10.65,17,12.48-6.39,24.28-12.49,33.63-17.34l-1.1-.3C95.24,388.45,89.67,379,88.78,372Z"/><path class="cls-3" d="M286.67,348.37c-2.79-1.1-7.13-.27-11.34,2.15-5.93,3.42-10.17,9.21-10.14,13.45a5.44,5.44,0,0,0,.23,1.55,3.89,3.89,0,0,0,2.43,2.52c2.8,1.09,7.14.27,11.34-2.15,6.69-3.86,11.23-10.73,9.91-15A3.86,3.86,0,0,0,286.67,348.37Z"/><path class="cls-3" d="M373.77,317.81l-4.95,1.47L363,333.22c3.37-.71,8.74-1.84,13.85-3a15.39,15.39,0,0,0,9.53-7.38,7.87,7.87,0,0,0,1-3.65,5.67,5.67,0,0,0-.46-2.22C385.66,314.44,382.32,315.19,373.77,317.81Z"/><path class="cls-1" d="M319.3,180.46c1.64-.26,3.32-0.51,5-0.76a142.42,142.42,0,0,1,16-1c4.51-.35,5.92-1.61,5.46-3.91-0.61-3-5.62-5.83-14-6.59,6.23-12.81,11.63-29.68,11.63-29.68,2.54-7.84,7.46-3.51,7.14.23,0,0-.3,29.28,6.44,38.93,56.82,1.38,55.79,17.33,54.5,23.14-0.68,3.07-5,7-10.58,9.69,8.84,3.08,13.88,7.06,13.54,11.53-0.69,8.94-22.65,17.22-52.68,21,0,0,17.5-6.06,14.53-14.59-7.08-20.33-128.68-6.17-98,15.79,3.36,2.41,4.64,1.63,8.69,3.2-32.56,4-69.5-13.19-19.1-31,13.3-4.7,35.23-10.59,71.66-12.44a219.18,219.18,0,0,1,38.17,1.54c8.29-7-13.4-15.18-47.07-13.52-45,2.23-59.33,13.19-59.5,12.09-0.43-2.93-5.12-15.19,47.58-23.56l0.32-.07Z"/><path class="cls-1" d="M330.06,452.85c-4.21.62-9.17,1.32-14.85,2.07,0.41,4.28.73,8.41,1,12.22-34.54,4.14-66.4,5.36-66.4,5.36,2.32-3.83,4.5-7.65,6.58-11.42q-12.75,1-26.93,1.89C208.72,498.47,191,520.62,191,520.62L223,520.88l19-34.66c49.88-2.94,74.7-6.71,74.7-6.71L320,513.12l25.65-3.78c-3.54-15.5-6.24-30.66-8.23-45.39A46.19,46.19,0,0,1,330.06,452.85Z"/><path class="cls-1" d="M292.58,280.84l58-18.13c3.64-13,7.11-23.05,9.62-29.62l-13.67,1.53c-5.5,13.84-14.05,31.68-25.76,32.28-7.9.41-14.2-14.73-15.9-27.61l-13,1.46C294.27,253.44,295,270.71,292.58,280.84Z"/><path class="cls-1" d="M282.1,317l1.8-3.61,7.73-2.45-0.12,3,7.85-2.57L298.09,290l-8.66,2.71-14.57,26.56ZM292,306.41l-5.68,2,5.79-10.72Z"/><polygon class="cls-1" points="342.42 281.27 347.57 279.62 341.61 297.73 349.36 295.2 355.45 276.95 360.61 275.3 362.7 268.98 344.51 274.93 342.42 281.27"/><polygon class="cls-1" points="385.02 283.59 387.01 277.73 379.13 280.25 385.27 261.67 377.37 264.23 369.19 288.75 385.02 283.59"/><polygon class="cls-1" points="413.3 274.42 415.17 268.72 406.22 271.59 407.64 267.18 414.95 264.86 416.47 260.33 409.18 262.68 410.59 258.54 419.12 255.81 421.03 250.06 404.7 255.34 396.55 279.93 413.3 274.42"/><path class="cls-1" d="M238.24,316.11c1.16-4.23,0-7-5.58-5.4A18.4,18.4,0,0,0,221,321.21c-3,7.13,8.88,3.57,7.47,7.34-0.44,1.18-1.83,2-3.4,2.63a3.67,3.67,0,0,1-2.5.3c-0.75-.37-0.59-1.22-0.39-2.08l-5.33,1.87c-1.55,4.46.45,7.3,5.71,5.76,5.48-1.61,10.79-5.47,12.55-11.32,2.13-7.11-9.41-2.88-8-6.62a4.09,4.09,0,0,1,3.37-3,2.72,2.72,0,0,1,1.66.15,2.35,2.35,0,0,1,.38,2.31Z"/><polygon class="cls-1" points="261.73 323.72 263.6 318.02 254.65 320.89 256.08 316.48 263.38 314.16 264.9 309.64 257.6 311.98 259.02 307.84 267.55 305.11 269.46 299.37 253.13 304.64 244.98 329.23 261.73 323.72"/><polygon class="cls-1" points="312.02 291.22 317.18 289.57 311.22 307.67 318.97 305.15 325.07 286.9 330.22 285.25 332.31 278.93 314.12 284.87 312.02 291.22"/><path class="cls-4" d="M631.22,321.84c-2.2-14.07-16.44-26.39-41.17-35.62a0.65,0.65,0,0,0-.79.27l-2.88,4.66a0.66,0.66,0,0,0,.28.94c16.55,8,25.83,17.7,27.59,28.89,2.95,18.8-16.38,40.79-54.41,61.92-4.82,2.63-15,8-29.41,14.43a0.66,0.66,0,0,0-.29.95c5,8.16,3.56,14.49,1.42,18.35-3.61,6.54-11.64,10.8-20.45,10.87a25.3,25.3,0,0,1-16.6-5.88,0.66,0.66,0,0,0-.89,1c5.49,5.59,7.92,14.5,1,21.78-2.33,2.45-7.16,5.08-13.73,5.13a27.55,27.55,0,0,1-10-1.88,0.66,0.66,0,0,0-.66,1.12c4.1,3.51,10.7,7.68,18.89,7.62a24.76,24.76,0,0,0,8.82-1.73,19.06,19.06,0,0,0,11.44-11.3,16.78,16.78,0,0,0-.22-11.91,30.16,30.16,0,0,0,14,3.3h0a27.82,27.82,0,0,0,13.56-3.52c9.39-5.35,15.79-17.77,9.47-30.46,3.07-1.39,16.65-7.63,26.9-13.56l0.34-.2C614.26,363.75,634.26,341.24,631.22,321.84Z"/><path class="cls-4" d="M470.79,259a0.66,0.66,0,0,0,.42.79,0.64,0.64,0,0,0,.22,0,0.66,0.66,0,0,0,.6-0.39,34.65,34.65,0,0,1,31.34-20.68c10.32-.07,19.05,4.68,24,13a0.66,0.66,0,0,0,.94.21l10.32-7a0.66,0.66,0,0,0,.2-0.88,31.83,31.83,0,0,0-28.32-16.24c-11.68.08-22.83,5.87-29,14.89-1.2-8.21-8.58-12.57-15.47-12.52a16,16,0,0,0-11.61,5,22.65,22.65,0,0,0-3.5-18.44,26.42,26.42,0,0,0-22-10.89,29.43,29.43,0,0,0-8.82,1.43,0.64,0.64,0,0,0-.26.16l-0.29.29-0.34.34a0.66,0.66,0,0,0,.26,1.1c1.87,0.6,7.57,4.74,9.27,10.52a0.65,0.65,0,0,0,.65.47h0.52c6.72,0,12.57,3,15.66,8.26,3.21,5.44,3,12.21-.55,18.57l-0.19.34A0.66,0.66,0,0,0,446,248l0.19-.33c2.64-4.53,6.9-7.15,11.66-7.19a13.53,13.53,0,0,1,10.69,5.18C471.31,249.2,472.11,254,470.79,259Z"/><path class="cls-4" d="M227.63,238.87c0-.73,0-1.43,0-2.13a0.66,0.66,0,0,0-.24-0.53,0.65,0.65,0,0,0-.56-0.14c-7.57,1.66-25.09,8.15-26.68,32.73a36.94,36.94,0,0,0-23.8-8.41c-14.8.1-32.71,9.44-35.24,35.26a12.53,12.53,0,0,0-9-3.42,15.32,15.32,0,0,0-11.88,5.69c-2.08,2.64-4.18,7.24-2.84,14.45a23.13,23.13,0,0,0-9.8-2.11c-8.92.06-17.56,5.27-22.56,13.6-4.6,7.67-5.08,16.36-1.35,23.94C39.82,371.15,17.52,395.71,20.86,417c2,13,13.22,24.15,33.21,33a0.66,0.66,0,0,0,.65-0.06l2.58-1.82c3.57-2.48,7.26-5.06,11-7.69a0.66,0.66,0,0,0-.09-1.13c-16.19-7.92-25.28-17.55-27-28.63-3-19.47,17.59-42.16,58.11-63.9a0.65,0.65,0,0,0,.28-0.87c-3.43-7.09-3.26-14.31.48-20.32a22,22,0,0,1,17.73-10.21,14.48,14.48,0,0,1,10.59,4.17,0.66,0.66,0,0,0,1.07-.73,13.48,13.48,0,0,1,.81-13.14A14.74,14.74,0,0,1,142.18,299a12.69,12.69,0,0,1,10.49,5.59,0.66,0.66,0,0,0,1.17-.57c-2.16-7.41-.55-15.25,4.54-22.09a34.78,34.78,0,0,1,27.16-13.72c8.55-.06,16.74,3.23,23.7,9.52a0.65,0.65,0,0,0,.72.11,0.66,0.66,0,0,0,.38-0.62,29.37,29.37,0,0,1,21-27.6,0.66,0.66,0,0,0,.3-1.05A16.28,16.28,0,0,1,227.63,238.87Z"/><path class="cls-4" d="M206.18,479.2c-2.34,4.2-7.86,6.83-14.4,6.88-6.38,0-12.07-2.46-14.85-6.54-2.54-3.73-2.69-8.69-.43-14.34a0.73,0.73,0,0,0,0-.13h0a0.66,0.66,0,0,0-1.23-.49l-0.05.13h0c-3,7.26-9.75,11.63-18.18,11.69-7.25.05-15.27-3.61-15.84-10.48a0.66,0.66,0,0,0-.36-0.53,0.64,0.64,0,0,0-.64,0c-4.76,2.85-9.85,5.79-15.13,8.75a0.65,0.65,0,0,0-.33.68c1.37,9,11.39,13,20.71,12.89,8-.06,14.87-2.86,18.22-7.28,1.9,10.3,11.8,15.62,21.12,15.55a23.82,23.82,0,0,0,22.52-16.25A0.66,0.66,0,0,0,206.18,479.2Z"/><path class="cls-5" d="M461.9,380.15l-0.54-.52-0.45.6c-1.89,2.55-5.52,4-10.78,4.37l-1,.06,0.4,0.87a41.56,41.56,0,0,1,3.54,13.21l0,0.47,0.46,0.11a36.58,36.58,0,0,1,14,6.06,20.86,20.86,0,0,1,4.43,4.54l1.08,1.53,0.12-1.87A36.87,36.87,0,0,0,461.9,380.15Z"/><path class="cls-5" d="M421.58,377.19l4.73,1.23h0a114,114,0,0,0,16.13,2.93l1.44,0.13L443,380.31a53,53,0,0,0-14.82-13.58l-0.14-.09H427.9c-1.23-.08-2.46-0.14-3.72-0.15A84.72,84.72,0,0,0,393.5,372l0.26,1.28C404.7,372.7,412.46,374.78,421.58,377.19Z"/><path class="cls-5" d="M448.41,414.24l0.63,0.11,0.13-.63c0.24-1.15.45-2.29,0.62-3.44a49.45,49.45,0,0,0,.49-7.92v-0.55l-0.54-.09a91,91,0,0,0-15.67-1.11c-21.76.15-51.38,6-88,17.46l-0.34.11-0.1.34c-3.27,11.53-1.92,22.49,3.9,31.69l0.12,0.19,1.3,0.46c0.16,0.09,4,2.1,11.44,2.05h0c9.43-.07,25.24-3.53,47-19.67C425.21,419,438.47,412.54,448.41,414.24Z"/><path class="cls-5" d="M451.95,418.71l-0.72-.38-0.22.78c-5.34,18.43-18.49,35.7-29,45.72l0.68,1.1c14.57-5.19,27.67-14.06,36.89-25l0.12-.14,0.07-.41c1.86-3,1.46-14.06-5.14-19.93A13.15,13.15,0,0,0,451.95,418.71Z"/><path class="cls-1" d="M458.09,377.74a51,51,0,0,0-21.18-9.27,50.26,50.26,0,0,1,10.94,12.48C454.92,380.88,457.3,378.93,458.09,377.74Z"/><path class="cls-1" d="M449.26,397.82a37.38,37.38,0,0,0-3.94-12.52,105,105,0,0,1-19.93-3.24l-4.78-1.25c-12.53-3.31-21.85-5.76-40.12-2.1-14.87,8.42-26.84,20.77-32.51,34.82C400,397.59,430.91,395,449.26,397.82Z"/><path class="cls-1" d="M465.22,408.22A31.67,31.67,0,0,0,454,403.3a51.56,51.56,0,0,1-.54,7.52c-0.19,1.35-.46,2.71-0.75,4.05a17.3,17.3,0,0,1,4.36,2.84c4.47,4,6.74,10.28,7.21,15.76a55.41,55.41,0,0,0,6.5-13.89c0.17-.57.31-1.13,0.46-1.69C471.25,417,470.84,412.41,465.22,408.22Z"/><path class="cls-1" d="M447.45,418c-8.7-1.26-21,4.93-35.73,18.18l-0.08.07-0.08.06C382.94,457.51,364,457.86,355,456.08c8.53,8.66,21.78,14.08,38.09,14.29a82,82,0,0,0,18.87-2C420.6,462.91,440.76,441.55,447.45,418Z"/><path class="cls-5" d="M584.66,226.38l-70.59,47.08q-3.13,0-6.25,0c-17.32.12-35.9,1.36-47.32,3.15l-1.32.21,2.52,2.39H462a330.3,330.3,0,0,1,40.32,2.13l-31,20.67-20.69-34.85-0.43-.72-0.6.58c-0.06.06-1.54,1.53-4,6.72l-17.08,36.08L422.39,312a27.41,27.41,0,0,0,.9-7,18.13,18.13,0,0,0-4.66-12.62c-2.29-2.36-6.54-5.17-13.84-5.12a43.11,43.11,0,0,0-13.12,2.46c-0.34.1-39.94,11.87-48.77,14.73l-1.14.37-9.7,24.31c-4,1.53-8.19,3.15-12.3,4.76a19.19,19.19,0,0,0-11.09-10.65,30.36,30.36,0,0,0-11.32-1.93c-8.71.06-18.79,3.14-28.38,8.68a77.85,77.85,0,0,0-23.67,21c1.29-3.66,2.8-7.9,4-11.16l1.68-4.7L246,336.57l-70.66,25.14L169,377.91l-3.57,1.66a30.93,30.93,0,0,0-2.87-3c-3.11-2.82-9.27-5-13.76-6.62l-2-.71c-7.74-2.87-11.54-5.78-11.95-9.14-1.32-10.81,28-32.87,90.2-75.24a2.54,2.54,0,0,0,.78-3.36,2.6,2.6,0,0,0-3.28-1.06c-46.15,21.14-62.55,30-92.33,46.16-19.76,10.71-33.12,21.91-38.66,32.4-26.69,18.13-39.49,34.19-38,47.72,1.07,10,9.9,18.47,26.23,25.06l0.34,0.14,0.3-.21c6.19-4.51,11.47-8.5,16.14-12.19l0.85-.67-1-.45c-1.47-.66-2.88-1.34-4.2-2,8.4-2.93,25.36-8.75,33-11.12-3.17,6.15-12.18,14.34-26.84,24.35L33.26,478.32a2.55,2.55,0,0,0,2.59,4.36c25.2-11.3,59.71-26.77,113.88-59.81,13.38-8.16,20.61-17.05,21.5-26.43a20.63,20.63,0,0,0-1.08-8.8c3.61-1.19,12.08-3.74,16.36-4.31l-10.92,37.2,5-2.13c3.11-1.34,9.08-3.24,14.36-4.92l14-4.66L220.54,370c2.09-.65,13.67-3.62,16.83-3.86-1.92,6-2.16,11.71-.68,16.49A19.1,19.1,0,0,0,248.44,395a30.36,30.36,0,0,0,11.32,1.92c8.71-.06,18.79-3.14,28.38-8.67,18.67-10.77,32.29-29,33.2-44.36a5.84,5.84,0,0,1,1.59-.15c1.1,0,2.4.09,3.23,0.17L311,381.78l35.59-6.89,7.23-17.55L378,363.93a111.42,111.42,0,0,1,49.68-11.49A89.23,89.23,0,0,1,443.43,354l10.68-21.08,6.83,13.81,26-21.16-19,35.4,4.66-.38c4.12-.33,8.36-0.5,12.94-0.54,4.22,0,8.25.06,12.15,0.15l12.14,0.16,0.69-1.3c71-124.23,75-131.76,75.08-131.82ZM84.2,411.4c-6.7-5-10.28-10.76-10.65-17C73.07,386,78.27,376.48,89,366a18.71,18.71,0,0,0-.26,6.07c0.89,7,6.46,16.4,28,21.72l1.1,0.3C108.48,398.91,96.68,405,84.2,411.4Zm195-45.51c-4.2,2.42-8.55,3.25-11.34,2.15a3.89,3.89,0,0,1-2.43-2.52,5.43,5.43,0,0,1-.23-1.55c0-4.24,4.21-10,10.14-13.45,4.21-2.42,8.55-3.25,11.34-2.15a3.86,3.86,0,0,1,2.43,2.52C290.42,355.16,285.88,362,279.19,365.89Zm107.14-43a15.39,15.39,0,0,1-9.53,7.38c-5.11,1.14-10.48,2.27-13.85,3l5.87-13.94,4.95-1.47c8.55-2.62,11.89-3.37,13.07-.82a5.65,5.65,0,0,1,.46,2.22A7.84,7.84,0,0,1,386.34,322.86Zm22.43,30.29-12.32-12.77c9.45-3.29,15.71-10.12,19.57-16.07,1-1.58,6.18.42,6.18,0.42Z"/><path class="cls-3" d="M409.76,326.61a32.26,32.26,0,0,1-17.16,11.14l-3.19.78L405,354.7q3.93-.82,7.9-1.34l12.49-26.41Z"/><path class="cls-3" d="M288.05,344.85c-3.89-1.53-9.36-.63-14.61,2.4-8.38,4.84-13.49,13.36-11.63,19.39a7.58,7.58,0,0,0,4.66,4.93c3.89,1.53,9.35.63,14.61-2.4,8.38-4.84,13.49-13.35,11.63-19.38A7.6,7.6,0,0,0,288.05,344.85Z"/><path class="cls-3" d="M372.66,314.2l-6.6,2-0.38.84-8.61,20.46,2.6,0.21c0.75,0.06,17.78-3.7,18-3.73a19.24,19.24,0,0,0,12.08-9.34,10.52,10.52,0,0,0,.6-9.14C387.59,309.62,381,311.64,372.66,314.2Z"/><path class="cls-1" d="M462.46,339.69c3.36-2.74,38.56-31,38.56-31l-25.27,47.26c8-.48,15.17-0.35,22-0.19l9.4,0.12c5.52-9.66,52.71-92.17,66.94-117.09L469.87,308.39,450,274.9c-2.74,5.77-8.84,18.67-15.95,33.68,13.78-4.84,23.3-8.25,23.3-8.25l-6.68,14.18s-53,9.21-54.45,9.48a0.83,0.83,0,0,1-.34.05,1,1,0,0,1-.3-0.07c-0.75-.3-1.19-1.54.2-2.17,7.17-2.43,14.32-4.89,21.07-7.23,0.13-.33.25-0.64,0.35-0.91a24.63,24.63,0,0,0,1.64-8.68,13.6,13.6,0,0,0-3.42-9.53c-4.24-4.39-12.19-4.93-22.45-1.51-0.39.11-37.72,11.21-47.88,14.45-0.22.56-3.52,8.83-7.74,19.41,10.43-4,18.52-7,18.52-7l-5,12.58-48.57,11.49L297.77,346c-1,.42-2.21-1.39-0.44-2.19,4.48-2,11.22-4.81,18.56-7.72a14.81,14.81,0,0,0-8.84-8.76c-9.06-3.56-22.79-1.08-35.86,6.46a75.29,75.29,0,0,0-20.14,16.87c2.51-.85,10.3-3.58,10.3-3.58l-4.79,10S238.33,362.38,216.2,369l-0.63.19L209.7,371a0.87,0.87,0,0,1-.42.06h0a1.21,1.21,0,0,1-.36-0.12c-0.63-.36-0.9-1.35.38-1.93,9.67-4.81,20.69-9.31,29.69-13.08,0.73-2.35,2.18-6.46,4.79-13.8l-65,23.13-4.28,10.92c15.2-6.94,28.37-12.65,28.37-12.65l-3.93,10.93-0.15,0-34.31,11.41h0l-5,1.73-13.25,4.63h0l-1.47.52c-1,.42-2.21-1.39-0.43-2.19,5.16-2.64,11.24-5.58,17.47-8.52a27.07,27.07,0,0,0-2.12-2.16c-2.45-2.22-8.37-4.33-12.28-5.73l-2-.73c-9.6-3.57-14.17-7.5-14.81-12.77a9.56,9.56,0,0,1-.07-1.14C130.34,347.77,150.68,330.82,204,294c-31.26,14.69-46.82,23.11-71.63,36.56-25.23,13.67-39.39,27.9-39.31,39.36a13.4,13.4,0,0,0,.11,1.6c1,8,9.54,14.24,24.63,18a30.65,30.65,0,0,1,6.14,2.18c8.85-4.6,14.41-7.52,14.41-7.52l-4.12,12.41s-41.05,15-64.71,25.58C89,419,112.71,413,128.28,408.82c-4.15,6.7-13.18,14.78-27.27,24.41L49.82,471.49c23.44-10.77,54.17-25.91,97.6-52.41,12.12-7.39,18.64-15.15,19.39-23.05,0.05-.56.08-1.1,0.07-1.64a16.28,16.28,0,0,0-.74-4.68c8.76-1.28,17.78-2.63,24.18-3.61l-7.88,26.83c3.12-1.11,7-2.36,11.12-3.67l11.64-3.88c0.42-1.37,7.08-23.41,10.15-33.58l25.52-2a22.06,22.06,0,0,0,.06,11.5,14.78,14.78,0,0,0,9.13,9.56c9.05,3.55,22.79,1.08,35.86-6.46,16.75-9.67,28.75-25.15,30.75-38.16l13.3,0.11c-5.56,13.94-10.77,27-11.79,29.52L343.43,371l7.82-19,33.13,9A115.22,115.22,0,0,1,405,354.7L389.4,338.53l3.19-.78a32.27,32.27,0,0,0,17.16-11.14l15.64,0.33-12.49,26.41a102.92,102.92,0,0,1,14.79-.91,92,92,0,0,1,11.07.81l15.39-30.37ZM281.08,369.16c-5.25,3-10.71,3.93-14.61,2.4a7.58,7.58,0,0,1-4.66-4.93c-1.86-6,3.25-14.55,11.63-19.39,5.25-3,10.72-3.92,14.61-2.4a7.6,7.6,0,0,1,4.66,4.93C294.58,355.81,289.46,364.33,281.08,369.16ZM389.7,324.59a19.24,19.24,0,0,1-12.08,9.34c-0.17,0-17.2,3.79-18,3.73l-2.6-.21L365.68,317l0.38-.84,6.6-2c8.34-2.55,14.93-4.57,17.64,1.25A10.52,10.52,0,0,1,389.7,324.59Z"/><path class="cls-5" d="M489.36,404.77v-0.93c0-.88,0-1.74,0-2.6l0-.45,0.4-.19c55.08-25.1,84.35-46.44,87-63.43,1-6.22-1.46-11.91-7.47-17.4l-0.4-.37,12-19.38,0.54,0.28c13.16,6.69,20.24,17.09,19.43,28.53-1.26,17.73-21.47,45.24-110.61,75.64Z"/><path class="cls-5" d="M205.26,447.42h0c-12,.08-23.67-0.12-34.71-0.6l-1.84-.08,1.47-1.11a142.78,142.78,0,0,0,12-9.94l0.21-.2,0.29,0c20.36,1.57,42.64,2.28,66.22,2.11,25.73-.18,52.3-1.43,76.83-3.61l0.7-.06,0,0.7c0,0.91.08,1.83,0.16,2.73l0.06,0.62-0.62.09A895.92,895.92,0,0,1,205.26,447.42Z"/></svg>