<svg baseProfile="tiny" xmlns="http://www.w3.org/2000/svg" viewBox="0 0 650 650"><path fill="#fff" d="M616.6 323.1c-.7-.5-1.8-1.1-3-1.6-.8-.4-1.4-.6-1.4-.6-13.1-5.7-47.4-16.1-79.4-24.6.8-16.3 1.1-32.9.7-50.2 41.6-51.5 25.6-62.3 25.6-62.3-14.8 6.4-28.7 10.9-41.2 14.1-20.4-8.2-41.4-15.1-62.7-20.6 26.3-86.2 1.5-90.7 1.5-90.7-40.3 43.3-81 62.1-89.7 65.8 4.3-6-26.1-118.5-37.6-144.9 0 0-.2-.6-.6-1.4-.6-1.4-1.2-2.3-1.6-3-.7-1.1-1.4-1.9-2-1.9s-1.4.9-2.1 2c-.6.8-1.2 2.1-2 3.9-11.4 26.3-42.4 147.7-35.4 146.2h-.4l-.5-.5s-45.8-18.1-90.9-67.3c0 0-24.9 4.3.8 90.9-21 5.3-41.5 11.8-61.7 19.7-12.1-3.2-25.7-7.7-40.1-14.2 0 0-15.7 10.3 23.6 60.6-.7 18.5-.6 36.5.2 53.9-31.9 8.4-66 18.8-79 24.5 0 0-.6.2-1.4.6-1.4.6-2.3 1.2-3 1.6-1.1.7-1.9 1.4-1.9 2s.9 1.4 2 2.1c.8.6 2.1 1.2 3.9 2 13.4 5.7 51.1 16.6 85 25 2 13.6 4.5 26.8 7.3 39.7-54 47-39.2 60.8-39.2 60.8 20.5-5.3 38.9-7.4 54-8 10.6 30.7 23.9 58.7 39.4 83.7 36.2 9.5 72.9 15.2 109.7 17.4 8.6 36.1 21.1 80.7 27.6 95.4.7 1.8 1.4 2.9 2 3.9.7 1.2 1.4 2 2.1 2 .6 0 1.3-.8 2-1.9.5-.7 1.1-1.8 1.6-3.2.4-.8.6-1.4.6-1.4 6.7-15.2 19.7-59.2 28.6-94.8 35.4-2 70.7-7.4 105.5-16.2 15.7-24.9 29.2-52.8 40.1-83.4 15.2.7 33.9 2.9 54.6 8.6 0 0 15-13.8-39.2-61.7 3-13.2 5.6-26.8 7.7-40.8 34-8.4 72.2-19.3 85.7-25.2 1.6-.7 3-1.4 3.9-2 1.2-.7 2-1.4 2-2.1.2-.5-.6-1.2-1.7-1.9zm-250-170.5s-.2 0 0 0c-.2 0 0 0 0 0z"/><path fill="#F3703A" d="M616.6 323.1c-.7-.5-1.8-1.1-3-1.6-.8-.4-1.4-.6-1.4-.6-13.1-5.7-47.4-16.1-79.4-24.6.8-16.3 1.1-32.9.7-50.2 41.6-51.5 25.6-62.3 25.6-62.3-14.8 6.4-28.7 10.9-41.2 14.1-20.4-8.2-41.4-15.1-62.7-20.6 26.3-86.2 1.5-90.7 1.5-90.7-40.3 43.3-81 62.1-89.7 65.8 4.3-6-26.1-118.5-37.6-144.9 0 0-.2-.6-.6-1.4-.6-1.4-1.2-2.3-1.6-3-.7-1.1-1.4-1.9-2-1.9s-1.4.9-2.1 2c-.6.8-1.2 2.1-2 3.9-11.4 26.3-42.4 147.7-35.4 146.2h-.4l-.5-.5s-45.8-18.1-90.9-67.3c0 0-24.9 4.3.8 90.9-21 5.3-41.5 11.8-61.7 19.7-12.1-3.2-25.7-7.7-40.1-14.2 0 0-15.7 10.3 23.6 60.6-.7 18.5-.6 36.5.2 53.9-31.9 8.4-66 18.8-79 24.5 0 0-.6.2-1.4.6-1.4.6-2.3 1.2-3 1.6-1.1.7-1.9 1.4-1.9 2s.9 1.4 2 2.1c.8.6 2.1 1.2 3.9 2 13.4 5.7 51.1 16.6 85 25 2 13.6 4.5 26.8 7.3 39.7-54 47-39.2 60.8-39.2 60.8 20.5-5.3 38.9-7.4 54-8 10.6 30.7 23.9 58.7 39.4 83.7 36.2 9.5 72.9 15.2 109.7 17.4 8.6 36.1 21.1 80.7 27.6 95.4.7 1.8 1.4 2.9 2 3.9.7 1.2 1.4 2 2.1 2 .6 0 1.3-.8 2-1.9.5-.7 1.1-1.8 1.6-3.2.4-.8.6-1.4.6-1.4 6.7-15.2 19.7-59.2 28.6-94.8 35.4-2 70.7-7.4 105.5-16.2 15.7-24.9 29.2-52.8 40.1-83.4 15.2.7 33.9 2.9 54.6 8.6 0 0 15-13.8-39.2-61.7 3-13.2 5.6-26.8 7.7-40.8 34-8.4 72.2-19.3 85.7-25.2 1.6-.7 3-1.4 3.9-2 1.2-.7 2-1.4 2-2.1.2-.5-.6-1.2-1.7-1.9zm-250-170.5s-.2 0 0 0c-.2 0 0 0 0 0zm144.9 169.1c0 .5-.1.8-.1 1.3 59.3 6.1 47.4 14.5-1.1 13.1-6.7 70.5-27.1 131.5-57.1 180.9-85.5 21.9-173.6 21.5-258.9-1.2C165 466.6 145.2 406 139 336.1c-44.6.9-54.9-6.8-.9-12.8 0-.5 0-1.1-.1-1.5-67.1 1.3-50.3-8.9-.7-13.2-.7-20.3-.4-41.3 1.2-63-21.8-16.8-25.7-25.2.9-12 .1-1.9.4-3.6.5-5.5-29.4-23.9-19.5-28.3 10.9-14.3 23.1-9 47-16.1 71.2-21.2-29.1-47.4-28.1-71.6 18.9-3.6.8-.1 1.8-.4 2.6-.5-33.4-62.4-11.8-55.8 20.3-2.9 12-1.5 24-2.5 36.1-3-.6-78.6 19.1-121.6 23.2-.6h2.2c5.7-120.8 24.9-77.6 23.3.7 13.5.7 27 2 40.3 3.9 32.6-53.9 54.6-60.7 20.3 3.2.8.1 1.6.4 2.5.5 48.3-70.1 49-44.7 18.8 3.9 23.4 5.4 46.5 12.4 68.8 21.3 33.9-16.2 45.3-11.6 11 15.4.1 1.6.2 3.2.4 4.7 31.5-16.3 26.5-6.3.9 12.8 1.3 20.6 1.4 40.7.6 60.1 53.6 3.9 72.7 15-.7 13.2z"/><path fill="#FDB927" d="M159.4 242.8c-7.7-5.5-14.2-10.3-19.5-14.5-.1 1.9-.4 3.8-.5 5.5 5.3 2.7 11.8 6.2 19.7 10.7.1-.6.2-1.2.3-1.7zM175 434.4s0-.1 0 0c-1.4-4.5-2.7-8.8-4-13.2-1.3-4.5-2.5-9-3.5-13.6v-.1c-.7-2.7-1.3-5.4-1.9-8.2-.6-2.8-1.2-5.5-1.8-8.3-3.5-17.8-6-36.3-7.3-55.5-6.3.4-12.1.6-17.5.7 3.5 39 11.3 75.3 22.6 108.2h16.6c-1-3.4-2.2-6.7-3.2-10zm-13.4 9.9c.8 2.2 1.6 4.5 2.5 6.8-1-2.2-1.7-4.6-2.5-6.8zm60.5-251.7c-24.3 5.2-48.1 12.3-71.2 21.2 6.1 2.8 12.9 6.2 20.4 10.4 19.8-7.4 40.2-13.1 61-17.5l-5.2-6.3c-1.8-2.7-3.5-5.2-5-7.8zm-66.3 128.6c-6.4.2-12.4.5-17.8.6 0 .5.1 1.1.1 1.5 5.3-.6 11.3-1.2 17.7-1.6.1-.2.1-.3 0-.5zm1.8-61.9c-7.4-4.9-13.7-9.5-19.1-13.6-1.5 21.7-1.9 42.7-1.2 63 5.6-.5 11.7-.9 18.2-1.3-.1-15.8.6-31.8 2.1-48.1zm341.8-44c-22.4-8.9-45.4-16.1-68.8-21.3-1.3 2.1-2.7 4.2-4.1 6.4l-6.2 7.6c20.2 4.5 40 10.4 59.2 17.7 7.2-4 13.9-7.4 19.9-10.4zm-98.3-11c.4.1.7.1.9.1 3.4-5.2 6.6-10 9.6-14.3-.8-.1-1.6-.4-2.5-.5-2.3 4.6-5 9.4-8 14.7zm89.9 42.1c7.7-4.5 14.3-8.1 19.8-11-.1-1.5-.2-3.2-.4-4.7-5.4 4.2-11.8 9-19.6 14.3 0 .5.2.9.2 1.4zm-167.5-48.9h1.2c.1-5.4.4-10.6.6-15.5h-2.2c.2 4.8.4 10 .4 15.5zm-82.6-8.6c3 4.5 6.2 9.1 9.7 14.4.4-.1.7-.1 1.1-.2-3-5.3-5.7-10.2-8.2-14.7-.9.3-1.7.4-2.6.5zm107.3 9.3c10.9.6 21.7 1.6 32.5 2.9 2.8-5.2 5.7-10.1 8.4-14.7-13.4-1.9-26.8-3.2-40.3-3.9-.2 5.2-.4 10.3-.6 15.7zm-84.3-12.5c2.8 4.6 5.6 9.5 8.6 14.8 9.3-1.1 18.6-1.9 27.9-2.3-.2-5.3-.4-10.4-.4-15.5-12.1.4-24.2 1.4-36.1 3zm247.7 62.4c-5.5 4.1-12 8.7-19.2 13.4 1.3 15.6 1.8 30.8 1.6 45.7 6.4.2 12.5.6 18.2 1.1.9-19.5.7-39.5-.6-60.2zm-17.9 73.2c6.6.5 12.4 1.1 17.8 1.6 0-.4 0-.8.1-1.3-5.4-.1-11.4-.4-17.8-.7-.1.3-.1.4-.1.4zm-.9 13.8c-1.4 20.8-4.3 40.8-8.4 59.9-.2.8-.4 1.6-.6 2.5-2.1 9.6-4.6 19-7.3 28.1-1.2 4-2.5 7.9-3.8 11.6l-2.5 7H487c11.5-32.9 19.5-69.2 23.2-108.2-5.3-.2-11-.4-17.4-.9zm-5.6 109.2l-2.8 7.7c.9-2.4 2-5.1 2.8-7.7z"/><path fill="#002D62" d="M161.6 444.3c8.9 25.9 19.9 49.8 32.8 71.5 85.2 22.6 173.4 23 258.9 1.2 13.4-21.9 24.7-46.2 34-72.6H161.6v-.1zm105.8 35.6c8.7 0 17.2 3.3 17.2 10.6v10.4c0 7.6-7 11-17.5 11l-38.6-.2c-8.7 0-17.1-3.8-17.1-11l55.1.2v-10l-38.7-.1c-8.7 0-16.4-3.8-16.4-11.1v-8.8c0-8.6 7.9-12.1 16.6-12.1l39.4.2c10.2 0 17.1 3.4 17.1 11.3l-54.6-.2v9.7l37.5.1zm92.8 21.4c0 6.6-7.5 10.9-16.4 10.9l-35.9-.1c-8.8 0-16.3-4.5-16.3-11l.1-41.7h1.9c9.4 0 16.2 2.5 16.2 9.1l-.1 32.8 32.4.1.1-32.8c0-6.9 6.8-9 16.2-9h1.8v41.7zm72.8 11h-3.6c-3.6 0-11.5-.6-17.1-5.6L393.1 489l-7.3-6.6-.1 29.8-18.1-.1.2-52.5h3.8c4 0 11.8.6 17.2 5.6L408 483s4.2 3.9 7.2 6.4l.1-19c0-7.4 6.8-10.6 16.8-10.6h1.4l-.5 52.5z"/><path fill="#FFE0A8" d="M301 211.1c-.2-4.5-.6-8.8-.7-13-9.4.5-18.6 1.3-27.9 2.3 1.9 3.4 3.9 7 5.7 10.7H301zm23.4 0c.1-4.7.2-9.3.5-13.6h-1.2c.1 4.3.1 8.9.2 13.6h.5zm89.2 225c.1 0 .1 0 0 0-9.6 3.9-18.9 4.5-23.7 4.5h-.4c-2 0-3.3-.1-3.3-.1H264.8c-2.3 0-4.5-.1-6.6-.2-1.2 0-2.3-.1-3.5-.2-14.5-1.4-24.7-5.7-32-11.3h-.1c-4.5-3.4-7.9-7.3-10.3-11.1-15.1 8.6-28.3 14.3-37.2 16.9 1.1 3.3 2.2 6.7 3.4 10h291.9l2.5-7c-8.7-2.2-22.3-8.1-38.2-17.4-6.1 7.9-13.6 13-21.1 15.9zm-33-235c-10.8-1.4-21.6-2.3-32.5-2.9-.2 4.2-.5 8.6-.8 12.9h28c1.7-3.4 3.5-6.8 5.3-10zm48.7 106.8l58-.9c2.3 0 4.6.1 6.8.2.2-14.9-.4-30.1-1.6-45.7-14.2 9.4-31.4 19.6-50.4 29.4-3.6 6.7-7.9 12.4-12.8 17zm61.7-61.5c0-.5-.1-.9-.1-1.4-8.4 5.9-18.2 12.3-29.7 19.5 11.5-7.2 21.3-13.2 29.8-18.1zm-10.2 164.2c1.2-4.3 2.2-8.8 3.2-13.2-1.1 4.6-2.2 8.9-3.2 13.2zm-78.7-206.2c-.4 0-.7-.1-.9-.1-1.3 2.3-2.7 4.7-4.1 7.2h.6c1.3-2.5 2.9-4.7 4.4-7.1zm44.7 41.9c11.7-8 22.7-14.8 32.7-20.5-19.3-7.4-39.2-13.2-59.2-17.7l-5.6 6.9c16 5.7 27.2 17 32.1 31.3zM366.1 330l.6-.5h-.2l-.5-36.8h-79.5v67.4H379c23.4-30.6 70.7-24.7 70.7-24.7s1.3 0-2.5 35.8c15.7 8.6 28.4 16.9 37.2 24 4.1-19.1 6.9-39.2 8.4-59.9-20-1.4-44.3-4.1-71-8.9l-55.7 3.6zm-210.3-8.8v.5c6.9-.6 14.4-1.1 22.7-1.5-8.2.4-15.7.8-22.7 1zm49.1-13.6v-20c-17.9-9.6-34.1-19.5-47.4-28.3-1.5 16.4-2.1 32.5-2 48.1 3.4-.1 6.9-.4 10.6-.4l38.8.6zm0 22.6c-17.9 2.6-34.4 4.1-48.4 5 1.3 19.1 3.8 37.6 7.3 55.5 10-7.4 24-14.9 41.2-22.7v-37.8h-.1zm288.8-8.9v-.3c-5.9-.2-12.1-.6-18.9-.9 6.8.4 13 .9 18.9 1.2zm-236.8-109c-1.9-3.2-3.6-6.2-5.3-9-.4 0-.7.1-1.1.2 1.9 2.8 3.9 5.9 5.9 9 .3-.1.4-.2.5-.2zm-97.5 30.5c-.1.6-.1 1.2-.2 1.8 9.1 5.3 20.2 11.8 33.1 19.9-13-8.1-23.9-15.4-32.9-21.7zm45.5 149.4v-.8c-16.1 7.7-28.4 13-37.5 15.9 1.2 4.6 2.3 9.1 3.5 13.6 6.9-6.3 17.9-14.8 34-25.3v-3.4zm238.7 7.4c16.2 11.1 26.8 19.8 32.9 26 1.5-4.9 2.8-9.8 4.1-14.9-8.6-2.8-20.5-7.7-36.2-15.6-.1 1.6-.5 3-.8 4.5zM240.8 217.3l-8.4-10.4c-20.8 4.3-41 10.1-61 17.5 11.5 6.4 24.5 14.5 38.6 24.3 6.6-17.1 19-26.3 30.8-31.4z"/><path fill="#BF2F38" d="M417.6 297c-10.2 7.9-18.8 11.7-31.9 11.7h-2.3v-37.6H273.9v100.1h109.2s3.3-7.4 12.9-14c10-7.3 22.4-10.9 35.9-10.9h4.6l-3.2 36.8c-2.2 25.3-24 36.8-49.5 36.8H270.4c-24.5 0-46.5-14.3-48.4-36.3V267.8c-2.2-26 20.3-45.6 49.2-45.6h114.4c32.5 0 53.3 16.8 50.8 47-1.5 15.9-11.8 24-18.8 27.8z"/><path fill="#002D62" d="M375.7 318.8h2.3c13.2 0 21.8-3.9 31.9-11.7 4.9-2.8 11.5-7.6 15.5-15.7-2.7 2.5-5.5 4.3-8 5.7-10.2 7.9-18.8 11.7-31.9 11.7h-2.3v-37.6H273.8v10h101.9v37.6zM270.3 420.3c-24.5 0-46.5-14.3-48.4-36.3V268.1c-.7-7.9.9-15.1 4.2-21.5-8.2 8.1-12.9 19-11.7 31.4v116c1.9 22 23.9 36.2 48.4 36.2h113.5c20 0 37.9-7.2 45.5-22.6-9.1 8.6-23 12.7-38 12.7H270.3z"/></svg>